<mxfile host="Electron" agent="Mozilla/5.0 (Macintosh; Intel Mac OS X 10_15_7) AppleWebKit/537.36 (KHTML, like Gecko) draw.io/24.7.8 Chrome/128.0.6613.36 Electron/32.0.1 Safari/537.36" version="24.7.8" pages="4">
  <diagram id="9ZYibPOpZEzaKFUbFbRb" name="Workflow - provision">
    <mxGraphModel dx="3616" dy="2040" grid="1" gridSize="10" guides="1" tooltips="1" connect="1" arrows="1" fold="1" page="1" pageScale="1" pageWidth="1169" pageHeight="827" background="#ffffff" math="0" shadow="0">
      <root>
        <mxCell id="0" />
        <mxCell id="1" parent="0" />
        <mxCell id="jYIIFlzwB7jrBm0eti1w-2" value="Databricks Specific Provisioner" style="rounded=0;whiteSpace=wrap;html=1;fontStyle=1;strokeWidth=2;fontSize=13;verticalAlign=top;fillColor=#dae8fc;strokeColor=#6c8ebf;" parent="1" vertex="1">
          <mxGeometry x="690" y="760" width="380" height="620" as="geometry" />
        </mxCell>
        <mxCell id="jYIIFlzwB7jrBm0eti1w-14" value="&lt;span style=&quot;background-color: rgb(255, 255, 255); font-size: 13px;&quot;&gt;Workspace:&amp;nbsp;&lt;/span&gt;test-domain_databricks-test-dataproduct_0" style="rounded=0;whiteSpace=wrap;html=1;align=left;spacing=4;verticalAlign=top;fontStyle=1;fontSize=13;spacingLeft=4;" parent="1" vertex="1">
          <mxGeometry x="1780" y="850" width="690" height="520" as="geometry" />
        </mxCell>
        <mxCell id="jYIIFlzwB7jrBm0eti1w-15" style="edgeStyle=orthogonalEdgeStyle;rounded=0;orthogonalLoop=1;jettySize=auto;html=1;fontSize=13;" parent="1" edge="1">
          <mxGeometry relative="1" as="geometry">
            <mxPoint x="690" y="1060.7" as="targetPoint" />
            <mxPoint x="470" y="1060.7" as="sourcePoint" />
            <Array as="points">
              <mxPoint x="640" y="1061" />
              <mxPoint x="640" y="1061" />
            </Array>
          </mxGeometry>
        </mxCell>
        <mxCell id="jYIIFlzwB7jrBm0eti1w-16" value="Provisioning request" style="edgeLabel;html=1;align=center;verticalAlign=middle;resizable=0;points=[];fontSize=13;" parent="jYIIFlzwB7jrBm0eti1w-15" vertex="1" connectable="0">
          <mxGeometry x="0.0837" y="2" relative="1" as="geometry">
            <mxPoint x="-11" y="-9" as="offset" />
          </mxGeometry>
        </mxCell>
        <mxCell id="jYIIFlzwB7jrBm0eti1w-17" value="" style="group;fontSize=13;" parent="1" vertex="1" connectable="0">
          <mxGeometry x="570" y="990" width="40" height="43" as="geometry" />
        </mxCell>
        <mxCell id="jYIIFlzwB7jrBm0eti1w-18" value="" style="shape=note;whiteSpace=wrap;html=1;backgroundOutline=1;darkOpacity=0.05;size=13;fontSize=13;" parent="jYIIFlzwB7jrBm0eti1w-17" vertex="1">
          <mxGeometry width="40" height="43" as="geometry" />
        </mxCell>
        <mxCell id="jYIIFlzwB7jrBm0eti1w-19" value="" style="endArrow=none;html=1;rounded=0;fontSize=13;" parent="jYIIFlzwB7jrBm0eti1w-17" edge="1">
          <mxGeometry width="50" height="50" relative="1" as="geometry">
            <mxPoint x="3.333333333333334" y="18.305714285714295" as="sourcePoint" />
            <mxPoint x="36.66666666666667" y="18.305714285714295" as="targetPoint" />
          </mxGeometry>
        </mxCell>
        <mxCell id="jYIIFlzwB7jrBm0eti1w-20" value="" style="endArrow=none;html=1;rounded=0;fontSize=13;" parent="jYIIFlzwB7jrBm0eti1w-17" edge="1">
          <mxGeometry width="50" height="50" relative="1" as="geometry">
            <mxPoint x="3.333333333333334" y="24.571428571428573" as="sourcePoint" />
            <mxPoint x="36.66666666666667" y="24.571428571428573" as="targetPoint" />
          </mxGeometry>
        </mxCell>
        <mxCell id="jYIIFlzwB7jrBm0eti1w-21" value="" style="endArrow=none;html=1;rounded=0;fontStyle=0;fontSize=13;" parent="jYIIFlzwB7jrBm0eti1w-17" edge="1">
          <mxGeometry width="50" height="50" relative="1" as="geometry">
            <mxPoint x="3.333333333333334" y="30.71428571428571" as="sourcePoint" />
            <mxPoint x="36.66666666666667" y="30.71428571428571" as="targetPoint" />
          </mxGeometry>
        </mxCell>
        <mxCell id="jYIIFlzwB7jrBm0eti1w-22" value="" style="endArrow=none;html=1;rounded=0;fontSize=13;" parent="jYIIFlzwB7jrBm0eti1w-17" edge="1">
          <mxGeometry width="50" height="50" relative="1" as="geometry">
            <mxPoint x="3.333333333333334" y="36.85714285714286" as="sourcePoint" />
            <mxPoint x="36.66666666666667" y="36.85714285714286" as="targetPoint" />
          </mxGeometry>
        </mxCell>
        <mxCell id="jYIIFlzwB7jrBm0eti1w-23" value="yaml descriptor" style="text;html=1;align=center;verticalAlign=middle;resizable=0;points=[];autosize=1;strokeColor=none;fillColor=none;fontSize=13;" parent="1" vertex="1">
          <mxGeometry x="535" y="960" width="110" height="30" as="geometry" />
        </mxCell>
        <mxCell id="jYIIFlzwB7jrBm0eti1w-24" style="edgeStyle=orthogonalEdgeStyle;shape=connector;curved=1;rounded=0;hachureGap=4;orthogonalLoop=1;jettySize=auto;html=1;entryX=0;entryY=0.5;entryDx=0;entryDy=0;labelBackgroundColor=default;strokeColor=default;fontFamily=Helvetica;fontSize=16;fontColor=default;endArrow=classic;" parent="1" source="jYIIFlzwB7jrBm0eti1w-26" target="jYIIFlzwB7jrBm0eti1w-29" edge="1">
          <mxGeometry relative="1" as="geometry" />
        </mxCell>
        <mxCell id="jYIIFlzwB7jrBm0eti1w-25" value="Deploy,&lt;br&gt;update DP" style="edgeLabel;html=1;align=center;verticalAlign=middle;resizable=0;points=[];fontSize=16;fontFamily=Helvetica;fontColor=default;" parent="jYIIFlzwB7jrBm0eti1w-24" vertex="1" connectable="0">
          <mxGeometry x="-0.0027" y="-2" relative="1" as="geometry">
            <mxPoint x="2" y="-26" as="offset" />
          </mxGeometry>
        </mxCell>
        <mxCell id="jYIIFlzwB7jrBm0eti1w-26" value="DP team" style="shape=umlActor;verticalLabelPosition=bottom;verticalAlign=top;html=1;outlineConnect=0;hachureGap=4;fontFamily=Helvetica;fontSize=16;fontColor=default;" parent="1" vertex="1">
          <mxGeometry x="80" y="850.25" width="60" height="117.5" as="geometry" />
        </mxCell>
        <mxCell id="jYIIFlzwB7jrBm0eti1w-27" value="" style="edgeStyle=orthogonalEdgeStyle;shape=connector;curved=1;rounded=0;hachureGap=4;orthogonalLoop=1;jettySize=auto;html=1;labelBackgroundColor=default;strokeColor=default;fontFamily=Helvetica;fontSize=16;fontColor=default;endArrow=classic;" parent="1" source="jYIIFlzwB7jrBm0eti1w-29" target="jYIIFlzwB7jrBm0eti1w-30" edge="1">
          <mxGeometry relative="1" as="geometry" />
        </mxCell>
        <mxCell id="jYIIFlzwB7jrBm0eti1w-28" value="Deploy,&lt;br&gt;update DP" style="edgeLabel;html=1;align=center;verticalAlign=middle;resizable=0;points=[];fontSize=16;fontFamily=Helvetica;fontColor=default;" parent="jYIIFlzwB7jrBm0eti1w-27" vertex="1" connectable="0">
          <mxGeometry x="0.3239" relative="1" as="geometry">
            <mxPoint y="-24" as="offset" />
          </mxGeometry>
        </mxCell>
        <mxCell id="jYIIFlzwB7jrBm0eti1w-29" value="" style="rounded=0;whiteSpace=wrap;html=1;hachureGap=4;fontFamily=Helvetica;fontSize=20;verticalAlign=middle;fillColor=#fff2cc;strokeColor=#d6b656;glass=0;" parent="1" vertex="1">
          <mxGeometry x="270" y="849" width="200" height="120" as="geometry" />
        </mxCell>
        <mxCell id="jYIIFlzwB7jrBm0eti1w-30" value="Provisioning Coordinator" style="whiteSpace=wrap;html=1;fontSize=20;fontFamily=Helvetica;fillColor=#fff2cc;strokeColor=#d6b656;rounded=0;hachureGap=4;glass=0;" parent="1" vertex="1">
          <mxGeometry x="270" y="1051.25" width="200" height="118.75" as="geometry" />
        </mxCell>
        <mxCell id="jYIIFlzwB7jrBm0eti1w-31" value="" style="shape=image;verticalLabelPosition=bottom;labelBackgroundColor=default;verticalAlign=top;aspect=fixed;imageAspect=0;image=data:image/png,iVBORw0KGgoAAAANSUhEUgAABUgAAAD3CAYAAADPJr6lAAAACXBIWXMAAC4jAAAuIwF4pT92AAAgAElEQVR4nO3dDWyd5Z3n/dsvcV6c4KQYesIWbCbMUCpaG3V2mzIRNh0x7fOwTMxoZmiXleyUjlQ98gpn9lkRFkYxGlhAOzsx6pGekaZVbGn7UGZmi720O2VQi82klHbbSVwQlDZpYtomh3AgMYnz4tfV5fxPuOP45bzcL9f/ur4fKYLOtDn3uX18n/v63f///6qam5sLAACISz6bsfmLZqSxO9duwXGkLp/NNAdB0KXw0Icbu3PDFhwHAAAAAKVq+cEBAIAgCExAulvpiSAgBQAAgLfy2UyX5cUO/Y3duX4LjmNJBKQAAAAAAACAXqbYoc3io7e+oKHagmMAAAAAAAAAgFQQkAIAAAAAAADwFgEpAAAAAAAAAG8RkAIAAAAAAADwFgEpAAAAAAAAAG8RkAIAAAAAAADwFgEpAAAAAAAAAG8RkAIAAAAAAADwFgEpAAAAAAAAAG8RkAIAAAAAAADwFgEpAAAAAAAAAG8RkAIAAAAAAADwFgEpAAAAAAAAAG8RkAIAAAAAAADwFgEpAAAAAAAAAG8RkAIAAAAAAADwVi0/egAAAABanXnliaa5yVN3m8OfPT/eFsyc3zT/72eO3zg3dWbNwrc1N31m9cyJQ2vNv1evv2a2eu2V7y/21msamkcL/1697urB+X+pXfvj+lsf3seHBQAAtxCQAgAAALDexEsP9cxNn7l5bvL0DTPjR1rCQWe5Zk8frZ49fXTjYv/z6XdebQv9x4v/fvZfskF1/ebp6nWNp6vXX3Okqm7DkerVDSNVdRueXbd11xifJAAA9CEgBQAAAGAVE4aaatDZU7/aOns231BpEBq12YljtbMTxzYG77zaGgSB+dMRBMGesz/92lxNQ/O4qT41VaeEpgAA6EBACgAAACBV84HomeMdpjJ0+p1XF63o1GBu8lSVOX6pPjV/9pw/9NzZ6g3XHq1Zv3m4et2H/5LAFAAA+xCQAgAAAEjUxL7ee2bP5j8/896b7ZoD0WKY6teZE4e2TAXBliAI7jOBac3GG96s2fCRgfrbHuuz/x0AAOA+AlIAAAAAsTOh6Mz44V3Tx396s2lR9/WMS2A635p/7md/99e1mU/+suaKpr9f3/7kgxYcHgAAXiIgBQAAABALQtHlmZb8qbeGTXXprvM//+YDhKUAAKSDmxQAAAAAkTnzyhNNM6d+3Td9fP9nbdtcyWYLw9JV/+rW0ZpNv/0f6m99eJ/v5wYAgLgRkAIAAAComNloafrkoW4T8nE2K2PC0snDz7cGh5//56lfjZysverm/7H+M3u+pPk9AQBgMwJSAAAAAGUx1aKzZ97+i8mx4U5a6OMhu+Lfd/7gt75Yd137S9VXND1MVSkAANHiJgYAAABASebb6E8eGph8a/g2U+3I2YufOc/nDz7XFgTBP0/nXztU23hzF0EpAADRICAFAAAAUJSJlx/dNnPiF1+Z+s3LLQSj6ZmfVfrW8D/PvPvGr2oamv+6/rbH+nw9FwAARIGAFAAAAMCyTMXo1PED32W+qF0mx757bRAEe6aO/Wj3qn/1e1+u39b7jO/nBACAchCQAgAAAFgUrfQ6yJzSb0y/97PHaL0HAKB0BKQAAAAALnPqhe5nJw8/v51gVI+LrfcnfnGg9sqbOtZt3TXm+zkBAKAYBKQAAAAALpp46aGe84f+139lV3q9Jg8/3zr1m5cPz5z69dCGO7J3+34+AABYCTc9AAAAAOY3YJrO/e+/nzr6wwxnQ7/5Xe/f/IeO6eP7z9Rd2/6f2cgJAIClEZACAAAAnjv1nT8bZs6om2ZOHFp79sShPdMnD3Wvurr192m7BwDgcgSkAAAAgKcm9vXeMzn2wl4TovEZcJuZTzqd+8nh2XMnnlzf/uSDvp8PAADCCEgBAAAAD5mq0fMHn2vjZ+8PUyF87rWBXTPv/axr1TWf3ko1KQAAFxCQAgAAAB6hahRmzux0/nWqSQEAEASkAAAAgCdOvdD97OTh57czaxSFatLZidznaq+8qcOHatJ8NrMxCILWBf/n9iX+6yeDIDiw4P92oLE7dzKmwwPKls9mCp/jxT7jxRou/Pcau3PD/DTgGwJSAOrks5nmIAi6FB76MDcbAIA0nHnliaapoz94hR3qsdDk4edbZ04efGNu+tyO+m29z2g+QaEAtFWCokJoFNkoiXx2/ldoXMLTQoh6xPzhPg9xymczhc92s3y2zWe8JcKX3F34F/mcG2OFz7f8MZ/xk43duYUPDwD1CEgBaNQc/gJXhhtnAECiTEv9+V8M/ffZiWPc+2NRZtzCuYnjT89Njt+x/jN7vqThLEkY2i6BUeGfDQm9fEModN0eOqZAAqUD8meYqlOUI/T5Lny205oX3SR/Cq8/vwaTz/pI+LPe2J07wg8bmtVKKfZSbQU2M180g3z6PiAX0R5bjqcUjd25Xj1Hm4x8NtMjTwW16efL0Q75bKZLwmQsrTmfzdh8/aHqWIEFLZuVtLgVqjOCUGXSEa6pqMTp7+386vmD3/oiLfVYyXzL/etP3zd79r1PXnHnwC22nbAFgVF7xJVzUSoESttDYdKohKXDrGGxFKkQ7bL88x3WFg5u89nMWOFzTmAKjWrl5ltjJZb55ePL5VIdWqvq8tkMoVqI3ADuseaAijdO2G2VrhSfNmvRpOC6SUBqEXmwHG5xi/J3bNG/S6o0RiU8LVRqHOB7EysZ/5+fPzj11vAWThRKYVruT3z9986s3nLXTWnPJZWxSh1yT6MhMFpKi/y5X67pQ/L9Psi13G9yX9Eln/OkKqDjYu6rO+VP4cHAoHzOacmH9WrNB1WS/iZlP64m84XJF8olOiw6llKZY+/Tdcix0vqz5KEFAGfIwjzcvpnm4rywuA63co6FWjiHWXygwMwbnRz77oHpd17V2IkCC8y33L/xzMG56XP/Pum5pHLt7ZH7YW1r1GJtlz97JETqJyz1R2g/hS6HP+NB6N5lt9yz9Ln6Oc9nM3MWHIbtzOfA5sKU2wtziEyocX/KB1MOQjUhFYfbi/ov26mLn+UltAakVLoBUE0qOTqUtLeF2zjNsY/LPV2hKomZdx4y80Ynx17YawIu388FKmNm1p57/etPz02fbV3f/uSDcZ5OWct0SDCquVK0HC3SOWbC0pFQWMo13DFyj9GjfN1erqbQ53xIxrJRXAOrFALSYaUBKaHaBzRXjxotVARfoDzs5ksOgDr5bKZDvke1t7c1hFrb9lKV5B8Tjs4HWswbRUTm55K+NrArmJ28Ko7Nm2TmYk+hJRcXZzr25bMZc1/dy/VbP9kXoNfxatFSzFdQh6pK+3kgABtUBxc2yDEX33GFP5EWKU+Hzo22FtIe8kZF63kY4osNgBamisPMv85nM+a69awszrXP/lqoUJV0OJ/NDJsFmjyEg4NODz/wOOEo4mI2bzr1nT+LrFNIrkfm79tPOLqowgOvwvXbhbWed+RzbgLuvYSjiypUlR4xm6Zyj4K0VYdeX2vlF6HaBS6cB774L9B6HqgeBWA1c+Odz2Z6ZLHyoqOh6FLaZIF2RILhUnfYh8XMTvWmyo9wFHE6f/C5NrPxVyUvsSAwYiPJ4pjz9KI5b1KJCMvJQ9gDBKNFa5BNUwlKkSoXAlLvQzVpDXRhgbedi+E8NmgCgAiZbhMTCgZBcEIqFXxerBSqkvYXqkotOCZUYD4cff3p+ziHSMLUW8NbyglJqaSLRJOMTyEotZTcbwzKQ1jfZulGoRCUHuAzjjRcDEgVD8glVHOritbrimDFYfcI7fUAbCMVHKaF8zAtnItqCy+2uZ/Sh3AUaSglJCUYjUU4KPW+WMgWpvLRBHuebsAUtcJnfJiRikhS9YLXGlJ69n1vsycgdQfVowBQoVAw+iItnEVpCrXf09qmBOEo0rRSSEqLcSKapPV+mLEp6THnXj7ruz0a25OUNpnD2+vH20XaFgakzCFVRp4aunQh9v2JGwEpAJSJYLRi4RlgtLZZjHAUNlgsJKXFOBVtMjalnwdcyTJzzYMgGOazHrvdJoSmmhRxcyUg9TlUcy4cljZz7ygOu0cbu3NHLDgOAJ4KzRglGI1GQ6h90/fODusQjsIm4ZCUFuPUdfKAKxmy6WO/zDWnajQZLcwmRdwuCUhlhqDKNnuPb+BdfN/8LHXpV3rcANzQwYzR2Jj2zWeZAWYPwlHYyISk7+39xE9pMbZCA7Mb4yXndZj7jlQUPt99Hr53JGBhBWlAm70eMmvGxZk+BKS6DCs9bgBuoK0tfhdngNG+mZ7Tww88TjgK21TXb55e+4n7ds5OHL/NdBXxA7JGm1Tb9fh+IqIk6+8D3Huk7n55CMA9CSK1WECqNezwMVRztby8wbeKYMVh91hjd+6ABccBAIjfbllws2tywib29d5z/ufffMCrNw3r1V3/2QNrbrrnhvrbHuuTTkSzNhnnJ2cNU223hyApGtLavZ8qaWuYhwBUSiNSlwWkMktQ49M/70K1IAhcXqD49rPUGnazORMA+KWwa3IfC+5kTLz86LZzr3/96bnJU1U+vF/Yr6puw9yamzufuOLOgVvWbd01VjhgeWjeTkhqnTaZTcrDrTJJOLpX5cG7rTCXtNX3E4FoLFZBGiieKehNqCZPSlwu7fftC1zr+2X+KAD46X4WJfE788oTTZOH//GfCEdhi5pNW86uubnztvXtTz642CFJSEpbt30a5OFWr+8nolSEo9ZrkEpS7kdQsaUCUq1VYT6Faq6HwU2+XOQUh9201wOA30w16X4W3PGZOvqDV2ZOHFrr6vuDLquuaz+06d7vr6u/9eF9yx14Y3fOPEB/hB+vlXbTcl88wlE1CEkRiUUDUsVt9t6Eag7PHw3z4T0GbM4EAFCOBXcM3v925/6poz/MOPfGoNKaj33haw1/+I0bij32xu6ceXAywE/bSm10AKyMcFQdQlJUbKkK0kBx+OF8qOZBe32BLyMTmD8KANCOBXeETn9v51cnDz/PuUTqzLzRta1f/vz6z+z5UhnH0sPO9tZqkjDJx42OVyTfZX2WHyYuZ0LSfh7YolzLBaTMIbWXL6MEnK8IVhx2jzd25whIAQBhhZZ7XzpAYjG/Y/3Bb33RwbcGZebnjX7s3i/Ub+t9ppwjl53tO9i0yVomTHqWa/alZH02zG71arVI+E9IipItGZDKbMExhafUhzZ7n570uR4Ga31/hKMAgKXsNbvcc3ZKN78p09gLe9mUCWkz4ejqLXfdVG44WiCj2wjg7MY1W0ioNkg4ql4LFcAox3IVpAGbNdlHLtrbXX1/i3D9hkpr2E1ACgBYzv35bIY2txJNHT/wXTZlQtpWXfOpnAlH123dFUmxjHQdPcUP1mrz12zfT4KEaj6MsvNBZz6b6fH9JKA0rgakLodqvs2JaZE2B+doDrtprwcAFKGTNrfinR5+4PGpt4a3aDleuMnsVN/wR0ObowpHCxq7c8wjtV+nzyGpzGPttOBQEJ09zEZHKZYNSBu7c8NKZ8Y4G6p5GJAGDr9nre9ryIJjAADowCywIky8/Oi28z//5gPWHyicNh+OlrBTfRm6mEdqPS9DUskOqKB1E90sKNpKFaSB4ipSV0M1n9rrCwhI7UL1KACgFISkK5j61chzzB1FmhIIRwt7XPTyg7aejyFpP3NHndXCdQfFIiBVRMr+fdTm6KJKa9hNQAoAKBUh6RJOvdD97PQ7r3JekJokwtGCxu6cmfE4wk/bet6EpLLGbrPgUBAfM2PX9c2fEYEVA1KZNaixFcLFUM3XgDRw7b0rDruHGrtzJy04DgCAPoSkC5jW+snDz/vYHQRLmN3qkwpHQ2i118H5kFS+j2it9wO72mNFxVSQBlSRWoOA1B1a38+wBccAANCLkDSE1nqkyYSjZrf6pA+hsTt3hJZXNUxI6vIGyD201nvD7FPDdQfLKjYg1RqKOBOqScWhzxfv7Y4tppg/CgDwFSGp2bX+ezu/Sms90lJdv3nahKNR71ZfLFrtVdnrYkgqGzP1WHAoSE6P7/ceWJ7rFaQuhWrMzHAk8FYcdo/KE38AACrldUh65pUnms4f/NYXLTgUeKiqbsPc6t/e/u/TCkdDCKf06MtnM62Ovadeqke900D1OpZTVEAqMweHlJ5JV6pIfW6vL3AlJNb6PpjPAwCIUouvM8Gmjh/4Lq31SMvq3/mjJ+u39T6T9g9AdrV/JO3jQFEaXHqoJdWjnRYcCpJ3v/z8gcsUW0EaKK4iVR+qydO6JgsOJW2E3emivR4AEDUz386rkHTipYd6pt4a3mLBocBDq2/848H17U8+aNE7N7//aVeyojgNDu1H4PJcVayMKlIsyoeA1IVQjQv4BQ2Kd3+fpzjspr0eABCX+x3fBOQSU8d+tNuiw4FHVl3zqdyGO7J32/SOpVORsEKPFu0720sVLOMd/NZJFSkWU3RAKl9eowrPovpQjfb6S2g/F1oXgOxeDwCI014H59tdho2ZkBazKdOqaz691cYfQGN3rp8Nm1TRvrO975sf4wKK0HCZ2hJPifny2qPwNHZorYCVJxu013+AsDsdzB8FAMRt0ISk8lDeSZNjw8y8Qyos2ZRpOaaK9MUEXmc8CAIz+/Sk/LNgYTGAeZARfmhTGNvWlsAxamA2bTogc2S18b161FwHjsjn2+eg2Oxo3+fyPQdKV2pAOqg4INWK6tFLNcjiSd2XseKwe0zpzQ8AQJcmudd0ZVPGS5x6ofvZ2Yljpd57AxUzc0dt2JRpOY3dObMB0EjEAeS4BJ8HCv8sMQxZtMBGWrRb5VpV+KdvQVODFFCoqvyX9ViLBYcSt7HQZ//ASp996eBolp9nhyfnqEHeK4VAuKikmzQzgzCfzYwq/IVRG6pR+r2oLqVP/ticCQCA5bXls5nexu6cUzMJz7zyRNPk4ee3W3Ao8EztVR8/advc0WWYe/zDFf4dI3LvOhzX2k+CpuFw1akETO3yHnwIlwKZR6rteu1y8dGYhH39pe4dIb8rB+R3p1ceAnTI59nlqukeAlKElbJJU4HWsERd0OjRE65Saf1i0xp2E5ACAJK027V5pDMnDw3MTZ6qsuBQ4JGqug1zq65tu0vLO5ZQZ6CM/6kp4NkRBMGmxu5ce2N3ri/pwhjzevK65tp1fRAEO5Xu31EqbddrF4uPTDC6o7E712zC6ig21jUPAcxsYPP7JJ/ncn4vNWhhsyaE+RSQagzVaK9fXJO2hZPisHvctDxZcBwAAL8MSgWLevPVo28N38bnF0mru/6zQ/W3PrxP2YkvthrRtM8/ZcIbE0pKmGPFLEETUIXC0lskXBq34NDioqICz8HiI/OZ2inBaGw/A/k8dzkclPo+kxYhJQek8jTO5gHfS1EXqhGQLkvbuaG9HgCA4jWVEJRYjepRpEFZa/1FRVSRmnXoI2ZeYmN3rieKark4SWVpl8x3fMTRoHS+1d6C41iJS/OtTXWyeTDQl9QLhoLS25XmQUshc8FF5VSQBlSRxk+qJtglcWkEpMkgIAUApOX+fDajfkFL9SiSpq21fhGLhW0mWHwk1EasaudpaVnudTgo3a2gVdmVgNSEo+1pPRyQ7sJWh6pJNRbSISbl7qRpSrjvV/hD6VBUjcCTjOXNzwux/alxoDvsNu31BKS69Yc3EEjAboVna8zy1jBGXMB3/bLRpqowpOD093Z+lepRJK3uuvaXFLbWXyQbA4d3tDeBYp/W60CYvAezCU6frEs1rqmX0m95COlCQFoIR1P9XZDX78pnM+Y+dW+axxKRDtmkCp4rKyA1rQL5bGZM2p80UROqEZAWxZyjxNoKKjxOjQhmlItzHtFi8tmMxoD0iGu7ZcMq46Eb7pOL3HybioXCnM1mhfdVSWiS+WAqf08nx4Y7LTgMeKS6fvP0hs/9rfogqPqKa/+/2dO5NcHs1OeVrN1KIgFTTz6b6Zf1jAudg235bKbDxgILKVjR/h07ZkM4GmbWGvls5qSE4w22HFcZoiikG0nweDcqnadrPsM2X89PlltBGkh4ovGmz/pQTS7g2y04FNt1EZDGiupRACjeiASg83/K3UFZ2ryaJTxtl39qXnREwbRuDia9K3WlTg8/8PjsxLFK7rWBktVd/wd/pf2szVdenzv5xbqmz4xeceeAc+FomFzX2vPZTOFBkPbrfZ+lawgXWqg7bKyiNoG4jMMZVvz5NYV0Gys5v7LjfyLkfL+Y1OtFqN/2wpRKbtoGlQakGkI1lwZIx8n6imDlYTcBKQAsbUyuk8NRVsvIYvlA+BosoWmH/HFpB95S9Gm7P5p++1++bMFhwCNmY6b17U8+qPUdn3nliaapoz94ZeroDzPmP0/95uUW839bt3WXSxvCLMpstiPtyv3Kr/NmnmOvhSGI9vX1UzY/JJQO4x7l7fbtrH9R7iZNgSwGNA6XblEwQJr2+uLZ/mWn9ct4yIU5TwAQsXHZlOB22SikJ4lWQtkF2Sw4TVB6vVkoObaDbDHmWzftP8wLJl5+dNv0O69uLOa/C0Rl1eZ/84jWkzmxr/eec288c7AQjhpmfu/smbf/It0jS45c61vlGq9ZjxSJ2MT29f9KrB8zI6O9dlpwKOWiSA3lB6RCa8Ju+4efgLR4tp8r2usBQL8xuek3oWiX7OCaCtM1IcGsWeztSHjmVdo0jNWZN3PiF1+x4DDgkVXXfCpXf9tjan5HwkxL/bnXv/70YiMppo796N+lenApMNd4ub5r3em+QWZH20RzQDqgpXDFVEKbQhsLDqUcBKTwNiC1NrSS6gjfZ42VYruFTyjDCEgBQC8TjO6QalHrdlA21Roy8+p2T4LS+dZNC45jRaY12PJDhGNqM//6TzS+o/e/3bn/3OtP32eqRRf7/8+cOLTWVJcmf2Tpkmq8dsUhqW1VpJor+rWty7q0dhpbcAxIWaUBqdZdrm0O1ageLZ2V50xx2D1Kez0Az5kbe9Oq2iqLVKuZilYJSnd40HpvY+vmJeY3mFki7AHisOq69kP1tz68T9vJHf+fnz84efj5FTfPmX7vZ48lc0R2KWzgZO7NFR6+bVWkWsOv8SRG+URJ1pEqHmYuJJsfwWMVBaTy4ddaQm1rEElAWjp+ltGyPgwAgBiNSDDaq+1hkYS5LsyvW46NrZuXmDn5yzstOhx4oPZDH31I27s04ejUW8NbivnvTud+8lvxH5GdlIek1j/QUsDajZmWI632Gh/YrvjABm6rtII0oM0+OrJLLe31pbP1SY/WJ1C01wPwkaka3WkqMc2cT63v34S6Mr/udoerSa1ddF/YhfuDTWaAuJmd6+u39T6j6USXEo4GslnT6eEHHo/3qOwlD+s0hqTWP9BSQGvHbqC0ilT7Zl6okM8BqY3hVZcFx6BRg20720rY3WTBoZRqVHMwAABlMovOdql4cIJsJNWquNNnOdYuumdOHPQ2xEE6tO1cX2o4WjDz3s+8XicpDklZ3/pLY05EBannKg5I5WKtcWMA60I12usrYtu503ozQPUoAN+MSDiqso1tOVJN2iHzVF1jZUA6/d4b3MshMdX1m6c17VxfbjhqmMpsU6Ed/VHpEQpJNW2AYzbXIyT1kNJxjFSQeq42ordvQpU2haeyw5ZASHHFoS0Iu6NBQArAJwON3TnnF25mnmo+mzHdAXstOJyomAfdXTZtojXx8qPbzI7bFhwKPFHX1D6g5Z2eeqH72XLD0YLZM2//RRAEX4r0wJQxoZNsJDOsaDRbD3sc+Eke0gJqRNFiHzCHNBJcPCrTYMuuc4rD7jEXK6gAYAlehKMFEiTusONoImPVfLPZidx/tOAw4Imqug1z1es+/Jca3q2ZH3r+zX+oeK3DBmgXyP26pu+vFlkfoXRscgUkKJKAVGYWatxZz5pQjYA0EracQ6pHAcBuXoWjBQ6GpE0W3ccFs6d+tdWCw4AnajOf/OW6rbus34htYl/vPed//s0Hovi7pvOvfziKv8cFjd25QWXjU9isqTxaN/0FVIqqgjRQXDafepiVz2bMrIuWtI/DAQSklaH1BYAPvAxHCxwMSa1YdLN7PZJW+6GPPqThpE+OvbDX7EIfxd/l+272C5nxKYr2AqEYqDwtkhUASECUASlt9rqPwQVNabdvKA67x2mvB+CBIZ/D0QIJSXfacTQV227D4nH23Ikvp30M8Mf85kzbep+x/Q2//+3O/VHP5Z2dyH0uyr/PAR1KNm1qYLOmsqnZiA3QLrKAVNrsrW/zWETqoZriHc9tlPa5pL0eAOw0yvftBxq7c2bBpWaDlxWk/t078/7Yn6R9DPDHqo/83rdsf7MTLz3UM3n4+cjXWNPHf3pz1H+nZrJTuJbvtjSv1RrHARZsJ1wGkhFlBWmgOGRJ7YKTz2Y20l4fqbQXSVq/vAhIAbjMVNd0yUISQqppNS8aC1Jvs595902NmzNCqer6zH+z+cjNyInzh/7Xf43j756dOFY78fKj2+L4u7WSeaRDCg5/u6x906D9+7+Pja6A+EUdkDKHVNdru6gprVY7xWH3uNxYAYCrehgjsiQt7ZnLSbUbyIQ1JrRJ6/Xhl5pNW87W3/rwPpvf9MzJQwNx/k7MnXuXarrLdSm5lqe19tUekDYEQTCcz2bIDoAYRRqQyuJDa5t9WvOruMhFL61zSns9ANhnSGZuYhEyIqnXgXOTWmBCWIMk1V59y/M2n3DzwOD8wefa4nyNmdPH2Nl7AemQ0HAtT2u95MJDUhOSPpvPZlz4zgasFHUFacBmTcWTisPtSb+uB9JaqBCQAoBdxpk7ujKZR6plJ+SlpPYdTFiDJFWvbfyGzSd8Ove//z7u12CkxeLkWm57sVJa10uXukh257OZA/lshu8eIGJxBKTDSn9IaSygqB6NR0vSFcHKw26tv7MAsJJe5o4WTXuQnFqbPWENkmL77vVmY6apoz/MxP06zCFdVuozmVfQkFKwdySF14yTGev2Yj6b6U+xExZwTuQBqcwy1DjLKvv3PE0AACAASURBVPFQjYA0VkmfW60/yyHCAwCOGpVqGhRBWu0fUX6uEg95zWY0zB9FUmquvNHq6sCpYz/andRrzU2eujOp19JE1uK2dwQkvm5yeA55ZxAEhyUopaIUqFAcFaQBbfZF4yIWn6TPrdafJe31AFxlexWNjfqUb9iU+Hfx3OSpu5N+Tfir5oqm2NvXy2WqR6ffeTWxHcpnJ3KfS+q1FLL94WBa6ybto2SW0ykVpab1vku6GwGUiID0UoldrGUHuoakXs9D2xP+YmD+KADYY6SxO8f4kBJJR4HmqtvEu4FmzxynGwiJqV6z6W9sPdvT+dceSPL1Zk8fpa14CVJFanO1cUtKAZ4P9wWm9X6vGSkgVaV8RwEliCUgVdxmn2SoxsUqfomcY8Vh9wjt9QAcxQ6v5aOKtASzZ47fmOTrwV81m7acXbd1l5Whl5kHmsTs0bAkq1WVsv17MI0qUp8KQxqkqtTsen+SsBQoTlwVpIHiJzRJXTi4QMWPn+XyqB4F4KJRqkfL50AVaaKL7pnxtxqTfD34q2bjDW/a+uZnTvziK2m8Lhs1Lcv2gqXEN9WTOaSaHwCWKxyWzuWzmUFpw6cKG1ggzoCUOaRLkAHKtNfHL6mKYAJSALAHGzNVrl/xsSdbQcoGTUhI9doP/cTWcz31m5db0nhdNmpamjzssvleP605pKx/gmC7tOEflpmlfWzwBFxAQHq57Qm8BtWjyYn1Yq847B6VHYsBwCXjjd05zeGeFeT7YUjp4TclVRVjNqVJ4nUAo6qu4QUbT8Tp4Qcen5s8VZXGa8+de+/TabyuIjY/MGxL6XW5R7iUebhxv2zwdJLqUvgutoBUnlqpvLlOYD4HAWly+FkujpsDAC7i2hYdqkhXMDd95uYkXgcw6rf1PmPjiZh5f+xP0nptZgAvT1rKrd2sKZ/NpNFmP2z5BlZpalhQXXpEqks72BUfvoizgjSgzf5y8kXQFNffHyOtXyQEpItjPh8AFxGQRkTxhptBUrPt5iZP35DE6wC1V33c2k01p3M/+a20Xntu6syatF5bEZvX42lVKTKKpzhNUl36bBAEJ/LZzHA+m+lJI9gGkhJ3QMpGTZfrivHvjpP5ch1VeNwNcVUEaw675YkyALiEa1v0tD7oTmTxRvUaklK9/horxyKl2V4fsJN9sWx+cJhW0Nbv6WZNlTJjEfYEQbA/tDN+F9WlcEmsAanMsCJUu5TWAcj9iitz4vpZag67AcA1XNuip/WcJjLbjuo1JKWqboOVAensRO5zFhwGlmH5zu2pBKQyCpCOk8oUdsbfu6C6lNmlUC3uCtKAUO0DcsFIZZfHChWqcrQulOIKpTWH3QDgGkaHREza7FVKogVwZvyIxk0aoVD16oYRG4965uTB1Kuo2SytKLZ+P6YZpvVSRRqpQnVpeHYprfhQJ4mAlFDtA1rnVc7/DBVXBDdFfYF2IOwGAKdoDvMsZ2UwU4TYF95pthbDM7Vrf2zbGz7zyhNNMycOrbXgULAyWwPS1NZSUkXKLNJ4FGaX7icshTaxB6SEapfQ2pI9vMS/axL1uVcddgOAY7SGeBpo/d6PdTE28fKj2+L8+4Gw+lsf3mfbCZmbPHW3BYcRzJ4fT2SkhnLWXsdTnl/ZRxVp7BYLS2nDh7WSqCANFN9cRxaqKa44HF9QlcPIhAtcCLsBwBVc2+Kj9dzGuwCbPvu7sf79gKiu3zxt47mYPXPcjmKBmfObLDgKq1nePZZaZaFUkWpd02lUCEtNG/4BNniCjZIKSAnVHKk4lC/YsfQOp2yRVQQ7FHYDgCsYHRKTxu4cASmQoup1jadtPP+zZ46nPn8UJaHTYhGyNhqy7sDc1yIbPB2R3fBpwYcVEglICdXmad3QZ7FAzfe5srTXA4BdCEjjpfEeLtaAlLZe+G72bN6KTcpmxo9oLFpIwxFLj8uGNXIXrfapKeyGv79QVerpeYAlkqogDXwO1aR0fHs0h5OsJSoOtVYER3XBdSnsBgD1ZN454qMxgG6K9W+nrRcJqWlotnIvBzZoUofvySVIq73WAhiXzFeVyqzSXtrvkYYkA1KfQzWtF9xF2w2kIljjU7aWSodCOxh2A4B2tA3GT2WFLosrIB5mB3tOrToEpMuQcTKPWHuAfjHXl93Sfk9QikQlFpD6HKo52pKtNWyr9GfhVNgNAA44yQ8xdloX1sw0A2Jgyw72KImt13FrrtON3bneIAgGLDgUXNBAUIqkJVlBGngcqqmsOHQ0IK20Ipj5owBgF+aPxo/KIwBWmhk/YsUsVJTNqtCrsTtn1opWjrXwWDgoZUYpYkVAWpyyQ7F8NqO24lDmsSxK2rW1VgRX8kXsYtgNAABKwMYwSEr1uqutu4ebm53+sAWHMW9u8lSVBYdhPWkhR3HaCUmt1CAzSs1mTlr3BIHlEg1IFYdqbRWEaloD0mK+RL0KvF0NuwEAWI7ihTUt9kAM5s6992nOK1wl6yZCUnuZB5Qv5rOZPtruEbWkK0gDD6tIXW7J1rpg8u1nyRNjAICPWDgBAEoWCknZCNJe90vbvdY1OiyURkDqTagmv6wa5+KMNnbnipk3pjXs3l7m0ybmjwIAAACA40xI2tida2fjJquZrOVZqkkRFSpIi1dOqKZ1NkZ/Mf8lebKmdXf0ksJOD8JuAAAAAECIbNy0k3NiNVNNOpzPZhitg4okHpD6FKp5UnGoNfAuNbx2OuwGAAAAAFyusTvXFwTB7Ur3U/FFi4SktNyjbGlUkAY+hGry9KIp3sOJRakVh77MlKW9HgAAAAA8JBsWNjOX1GqFlvte308EykNAWppSQrIuGw64DCXNiJWKYI07/DUU+3TJo7AbAAAUoWrVunOcJ/iqas2HfsAPHz4KzSXdSTWp1Xbnsxk6KVGyVAJSH0I1xRWH5VxItF58iv0ZeRF2AwCA4lSvu/pNThWSMHvmuHVriqrq2rctOIx5VXUb5iw4DOvlsxmt48KsJC33rVSTWq2TkBSlSquCNHA5VFNccTjW2J07UMb/zvWKYJ/CbgAAAECFmoZmqvh0U9vtZjr1pJr0brOOtuCQcDlCUpQkzYDU5VBN6xO6sn4m0sattSJ42Z3uPAy7AQAAgCVV1W14lrOjTrOlB6x+HFhjd25Qqkkfoe3eSoSkKFpqAanLoZriluxKQmutF52VflZehd0AADjkJD9MaDc3M9lg21tYt3UX1XL62BqQOkFmk/bKeR7w/XxYiJAURUmzgjRwMVTLZzPmotiS7OFEYlx25iuX1nmXK1UE+xh2AwBwUREPhm0VWydFVd36g3xCkITZ00etDLZqr/o4DyB0sfU67tTnSIJSs368nqDUOiYk1bq2R0LSDkhdDNW0zqusKFCTdm6NT5Obllr4eRx2AwAQtpGzcamq2nWv2XQ8QNKqVq07Z8NJr2lo1tiRmAZbK0idHAkm80lNGLeJ1nur7GXDMiwn1YDUxVDN14A0wr8jDUs9SfL5ZwkAWmitbtSE1kwgJTPjR6xrsTeq1139pgWHgeJpLPpQb0Hr/Q42c7LCYD6b4cEvFpV2BWmgOMy5LFSTX7S2dA6nIuMyXLpSWkcmLPUUiYAUAOzHTW78tAak8VUm1a79cWx/NxAyN3mqysbzUb3uajvuN2tWn7DgKKxmecWcF5vKSlDa39idM9+nt9N+n6oGxbkFYmZDQOpSqOZ1oKa4IrhF2ukvIuwGADU0Xqu1UVmlaxakcf3d9bc+vC+uvxtYaGJf7z22nZT62x7rs+AwgurVDSMWHIbtrL2Gx3mdtpUZhRZqv9+hdONq7bYzjxSLST0gdSlUUxyQRjmv0pW5svwsAUCJRb6PES2N5zf2e8uqug1zcb8GMG92arONJ6Jm05azFhwGVmZrBanX4XaoqrRVNnXaSQt+ovpotcdCNlSQBi6EavLLtT3dwylblBWHroxMoL0eAPRgDmm8NM6uOxL3C9Q0NLPpBhIxe+a4lfelNRtvSH0OqS2VrJazNSD1rnp0KbKpU5+04N8SBMFTVJbGzrTac/3AJWwJSF0I1bTuhjYUZWuDtHdrXDBcrAgm7AYAdQhIY6J4t9fYA1JbdvGG+2YnT33ExjdZs+Ejqc5RpIp7ZXINt3KjL1/mj5bKdNg2dud6FlSWEpbGo5MuJIRZEZC6EKpRcRj735mEwiKQsBsAdNF63daAgHQJ7OKNpMydffdKG0+2qd5MM6SkirsoNq9RCUhXEKosbQ3NLB1Qmp3Yig2bcJEtFaSB4sq3wsKBgDTevzMJhZ8hP0sA0IWNmuKjNSCNfeFdVbf+YNyvARjT77xq7Zy82swnf5nWa1etvfLdtF5bEQJSR4RmlnY1duc2Siv+I1SXVqwtn83QiYR5BKSV68hnMx0Wty4sZzSmikOtM2W3S3s9ASkAKKO4Fdx2WsPn+Fvsa9e9FvdrAAU27mRv1G7ckk3rtavrNvw6rdfWQL4Xmyw91HFTHWnBcaglrfi9oerSu6W6lI2eStej7YARD5sCUrWh2iIb/GgRSzm5hK5Dis8JYTcA6KP14Za15AGwSmbhGPdxszkMkjQ3OX6HjSfc/B5U12+eTuO1q9ddTXHA8mxeo1I9GiGpLh2U6tJmmV26Q9bktOOvjFmkmGdNQKo8VGNDn2T/7jhp/VkyOwWA7whIo6f1nI4k9UJpBUPwz8zpY9ZWya/a/LvfT+WFa9f+OJXXVUBBV5zW4igVZHapacfvCLXj70zy+1EhrUVviJBNFaQBLcKJGo25rYGfZbI43wB818QMqchpDUgTq0yqabgun9RrwW8z775pa6t0UH1F08NJv6bZHKr+1of3Jf26inRZ3hVHQJogacc3mz21N3bnqqQd/yna8S9BQAoCUo/Feq6VVwRrE3fYDQBacHMbEcXz1YMkA1J2skdSZieO1U68/Og2G0+4CSpXXdd+KMnXZAf7Fdk+U5EW+xRJO35PqB1/J2t3HrTDsoCUUC1RSYTRPBlMBg8WAOACAtLoaB5ZkNj9BzMQkaS5c+9ae42rbbw50WOraWhm5+4l5LOZLos3ZwrYO8Eu0o5vqks7Fmz25ONDCO4jPWdbBWlAqJaIsSQ2LyC4SwznGQAuaJCFISogGxV0Kj2Hie6MXFW34dmkXguweQ5p0lWkVWs+9IOkXkuhXssPmbWLpRZs9rQxFJb6gnn2nrMxIOWCGb9EzrEsUHi6G6+kwm4A0IKAtHKaz2GiD9rXbd01VrNpy9kkXxP+snkOaZBwFensRO7ppF5LEwXVowEFUXoUwlKpLN3hwdq+id3s/WZdQEqologkdzxnd/V48UABAC7Vls9mrK2ysp3sfGz77LrlJP69WL3uw8wBRyLm55Du673H1rOdVBVpdf3m6SvuHPhp3K+jjVy/ba8eNVX+BKTKSGWp2RXfzOi83fHd8LmH9JiNFaQBoVqskq44JMCLF78rAHA52xeINutRvDlTkEZlUk1D08tJvyb8NTN+eJfNb95UkZod5uN8jZorb2Tn7cX1KKgeZW2onAm4zW74QRDc4mhQSkDqMVsDUi6c8Ul04SAVwdzExGOc9noAWBRVpGVwoHp0LMn5owVVa67kYSUSM3Py4I02n21TRVp3XftLcb5GzfrNVCAuIG3BGq7frPMdYdahEpTe7th6n53sPWZlQEqoFqs0vpT4IowH5xWoHHOG3EUVaem0V4+m8r1oAiHmkCIpMycOrZ14+dFtNp/wDZ/72/Y4fyd4KLGofgXXb1PcwfrFMTIyodWhzZxaLDgGpMTWCtKA8CcWaX0pcRMTD35HgMrZ3oqG8rWxo33xpPpot5bjXUJq9xs1G294M63Xhn9mTvziK7a/6bqmO3bE8fea4NU8lIjj79Yqn82Yh1ttCg6ftYujZEZpl2zkpB5dSP6yOSAlVIteKl9K0gZORXC0eAILACvrk7ZxrEz7fVfSM9YvUV2f+U5arw3/TB//6c22v+n6bb3PrL7hrsjnE/Iw4lLycEtLxwRrF8eZjZwcCUm5d4yH9cGztQEpoVos0vxS4gsxWpxPICL5bIZZQ+5q4IHryhRVHy0n1e/F9e1PPpjm68Mv87vZv/SQ9fMmTat97VUfPxnl31mz4SOutPFGZVDJaBSKOzwhIelTyt8tawNP2VxBGhACRS7NgeYMU48WvxtAdJhD6rbt+Wymw/eTsBRl1UfLST0IX3XNp3JpHwP8MX3yULeGN1vX9PutUe1qb/6e+tse64vi73JBPpvpVzQvkYeVHmnszvVQ7IZFWF+Za3tASqgWnSEzGyStF5cnhuNpvb6D+N0AosNTYvf1SxCIy2mpPlpOqu31BTUbf+vbaR8D/DH11vCWM688Yf0c7XVbd42t+di9X4ji76rNfPKXUfw9LpAZ252K3grBtn80P3xlBmk8rH+gY3VASqgWKRsqDql6jEaqYTewDK3Xa26C3GcCwEHmkV5KWfXRcqyoTKpe9+G/tOAw4JGZU79WETqZeaRrPvaFr1X699Rc0fT30RyRbjIaaK+iNzHS2J07YsFxIFms/XEZ20eb1VpwDCsZVPZ0zFa2BKT8LCvHlw1sdUDpHEPtsxdRnBapYGFne53VR8uxIiA1lXJTR3+Qmzr6w4wFhwMPTP36+/9Wy7tc/5k9X5qbPH3D+YPPlfWda9rrmfV7MVzQ1kmWaJAvHSOHk3zNCOxs7M45VWVrCnry2cwI99lYoFXWjFayvcU+IAyKxIgNFYdUBEeG3wkgYsyo9EanVE16TcJRTdVHyxmyqTKJNnskyWzWdHr4gce1nHSzadOq69oPlfO/pb3+knBU01iUsaQ3Z1JarerquCetlcO2j2WyNmAsgtWde9YHpIRqkbApUGN2ZmWsCLuBJWj+bBKQ+sPrkDSfzbQ7FI4Gtm38QZs9kjb99r98WdNJb/jDb9xQTkjqe3u90nA0SHEOpbb8wNVxT1oDUqvnOyvPA6xec2moIA0I1SpmU0BK9WNlOH+wmeanmZ3Mp/SKlyGpVI669D2SeGXSSkybfbkVckA5pt95dePESw/1aDp5pYak1fWbp31ur1ccjo6n+J2j7Z60ydHNJNkIFQs12Ny5pyUgJRQq36hlbQb8LCvD+QPio2qBiYp5FZKG2uq171gfZuUOub5XuiF5U8d+tFvbaTchad31ny0qxKq9+hOvxX9EdlIcjhp9KVa6aaxcdLGbieKD+IwqPnYC0goRCpXPqsWffEkOWXAoGtkWdgMLaa/276GK1DsmJHV+d/t8NtPrWFt9kHJl0rJMpZupeLPx2OAmjVWkxhV3DtxSzO72NZt++z8kc0R2kSorreHoeNKbMy2gcc3k4iaSbNAUH81t9p22VkyrCEgJ1Spi4+KBwLs83m8sAutpn4/bkPLNPNKx3SxApUrHKSb4NQFwEATqqsuKkGZl0opWbf7d79t6bHCTxirSQHa3X/uJ+3aaXeoX+//XXvXxk/W3Prwv+SNLlzzYelZx1X/a12iNY59aXLoXUf5eNMyw1TzaLLC1C0hLBWlAqFaWMUsrDpkpWx5+B2C1xu6c9i/qQJ5oujooH0trkZDUmTEL8jk+IAGwa9KuTFpR9RVNDzt31mE1rVWkRv1tj/WtubnztppNW84u/P/VXnXz/0jnqNLhyIMtG67RWu9JXRr3pLkiVsPnR3thSqeNIbqmgJRQrXRWBmoS2mqemZEGW8NuYCEXfredb7nGokyVzp58NjOseaMEWVybhemLtu/CWgGrq0cNU/HGZk1I2uSvhv+L1pNufmc23fv9deG5pPObM31mz5fSPbLkOPRgqyfta7Ssm7TtZB/Y3HpcBhdHBtjEhXzMuofdagJSQrWy2NySTbt4aagehRYuBPkNUk1ISOonMy/rgLQ3qiLz6szi+n6Hf3LWV48W1G7ckrXjSOCLmROH1p7+3s6van67Zi6pabk34agvoyoce7BlijpsWedprSJVv06WjSFd2hTSRtorSI022+63NVWQBoRqJRmzvN2VwK80fPahhQtt9oG0XDOP1F/mpn53Pps5Ijf5VjNVR6byVebVuVo1WmB99WiBaRterGUYiNP5g9/64plXnlB9HTC/O0Ew9/+c/+U/Xu362JtQ1agrD7Zs+s7UWmHXJg88VZICA3UPmRew/rPjyGizQO63rfm8awtICdWKZ/W5oiK4JLaH3UCYS+NQTJvTASpJvWZChr2FoNS2z4K5oZRg9EVPdoo134eqFl2rNv+b/9+Cw4BH5iZPVU2/+4b6NdPsRO7eYHb6JnN9y2cz/Q61Hc8z70dmjbo0DmWosTtn032g5vWT5s98rwOfaS3VmSMWHEMU+m2ZR6oqICVUK4mGkIK5ssXhwQDUsOzGOAotru5wjpLMB6VmhIQs1FP7PMiiuteEtlIx6kMwWqCuIsXMTzStwhYcCjwyefj51ol9vfdofcdSVRm+tnUGQXBYrn2qH1rKNdx0hh12bBO9cQs3GNJ8T9qgcSa+VAK6UA2tJVx3pYiqwZb1lrYK0oBQrSjjjd05DaEabePF4TMPbVx7kGVC0v0aZ1Iicg2yUN8vVaV9SbR/mhtGs8O+qWiWRfVuD1rpFxqxaK5dSeqa2gcUHS4cMTn2wl7F72Sp79vdoQdVqqrrFgSjnRYcUtR6bdtQVsaxaL4nVTXuScItV9b3WvZUcKnLtEHur1Md01E1NzeX5uuXTH7x9qs66OQNNHbnVOwaJxUwvi3ySmHCbtp7F5BA4kWrDqo4j2hrDy2HbDTg6iYxY7IIcO4Bj+LfK1uMyAMtc7N6pNzRKLLoN3/Mz6NV/slGB0Fwi+ZxM+/tvWVqduJYrQWHAo+svvGPBzfckb1b0zsu8btoSOYSW1tMIBV1XY5Viy5kHmBZOStWHm7vtuBQKmH92l4ymmFH7lfUrL/lnvGwBYcSNXNt70pj5ry6GzVzc5zPZsYI1ZalqSV70PHdditFez00cvn3ujCTslee6g9GXTEhN5kbHRxX4Lq2cEtoPpsJJFAvfD4OLDHTqrCo3CjVIrjcU9pncZsq0nOvP32fBYcCj0wefn67abWv39b7jKJ3XcqDZBM6bpe1obn36LfhWiHf4ybQ6vBkzWpba33YoAMBaae02qcSGK3EsXA00NS9adYgjmZj26VbwBSlJFpFra6CNHC/Oqlijd25Ki3HSkXwiu5WMi4hUVSQ2i+fzZz0qOptVG7A56sHy7l5lc90qywymtL4rFBBCkuZG/9WLTvXL4cqUqShZtOWs5vu/f46DSc/ou+hQlg6nNQ9tIRX7fLHl1C0YGfSAUapHOpYHJWQ1JoHhtIO3efYPb/1n+kwGd3h4tiOgjEZ3dAXx71gYc5v4e/WepPWT0C6pCFLj2tRUhE8Tvvg4ghHodiw4+1kYS3yZ75CQZ7kHpFqwaVuYgtVg810RADLsrJiphxUkSINMycOrT31nT8b3vC5v7WyBXqBKB4MNsk68X6p5B+R7+LC+JOKq8MkyG0OjUHxtfp/REmQNOxIgFTYODTxqrqFJFTqd/ReX1sH16DjAWmTrLF257OZodADsIo6+OQ6Xqj07yj83FUGpIRqy9IYqLn+S10uVWE3sMCgRwHpQk2h0NPXcwBE4SmXRk2YHe0nx4Y7qSJF0s4ffK6t+qWHeupve8zaMEtmdbYV8V8t1UrjT1a6xmyUIDSQf7L+vGBcQgUNXKqwM5+/PfL70pvGd6SjVaMF4wpH+vg0kmt7YW0VKkgpvP/lzkNhvn/her7ktVzzDRqh2uIISN1B9Sg0M59fzTvoAkjXWETVZFZZveX//k9nf/q1PXy2kLRzP/u7v66q2/Dsuq27xiw9+UmGt+EHmXGEsj7o0FLdb0JEB+c0ms/ti/lsZiSJoFQqRjvke9nlzid162/zeyiVlb4VZRSu44VreCSzhquj+EtSQnh0uSGNbWjSRj5uwaHYhs841JJrEVXQAMrlTGt9mKngq73q4869L9hvbvJU1eTYd62sjMpnMz2Mm1HlEYXV/f0WHEMcCkHp/IY2sr9HZEylqsy4PCKFD67/nmpdf5MbRERtBakJ1Wizv4zmXwyqSC+lMuwGFnB1NhGAeGlcfBdt1bVtd02/8+o/KzlcOGT6nVc3vv/tzv1X3Dlwiy3vSirTvNjA0hEjSjcc7XdgN/vlhOc0jhU2Di38KWZdmc9mCm3I7aH5uj5lLeOK9/+gcy8i2mcgEapdSvNiwpXh2VHhKRDUkwdZrrU0AYiX1sV30epvfXjf7PtjI2YupJJDhkMmDz/fevp7O79qZuJa8q5cnWXoolFFc0cvYTZ08agNuUnW1RfX1ovM3g1jtu4FatffHrfZR05zi33g2UDalYxWupNXyggEL8VnG65wtaUJQPQ0bfpRkZqNWzqr6zdPK34LUOzc60/fN7Gv956034HsIkyBhA7jDow+0bDjfpyaQpuWhf8Qjl6g/fPBmisC2gNSQrUPqP6FYF7hJbSH3UAYX9YAitXuy3gZs1FO3fV/8FcWHAo8de71rz9tQUjqe2ClSYfC3b0vIaNbRi06JNhjxIHP96BUCaMCqgNSQrVLuBAWE3hfQKAEZ0jYP8BPFMAKdmhfnJRqffuTD6665lM5XUcNV5hNm87/Yui/n3nliVTG4JgNZYIgaOEDpcIOh+ZCE8pjMa58LsgRKqS9gjQgVJvnSsUhP8sLOA9wDZsvAFjOQGN3zsub+lXXfHprVd2GOQsOBR6anThWe/7Qc28kHZLKTtsub5jjkh0uXZ/lvVBlh7AxxZszLdQn4zBQJgJSNzjxRE8qgkcsOJQ00V4P51BFCmAZQ43duS5fT5BptV/9O3/0pAWHAk/NnDi0NoWQlConHZ5y9OGVt985WJQzhRySp5CPVUB9QCofAt9nibj0xeX7LzSbM8FVVJECWGiUhSqt9khfkiEprfVqmMr+HhffmIwL8L0oBxeMOvgQgDVXBVyoIA08fwo55tjMLt8DUp6ow0lUkQJYYNSnTK25wAAADqJJREFUTZlWQqs90pZESEprvRoDHlT2Oxn+omTOfQ5Yc1XGlYDU51DNqfcuv9C+VgS7FnYDC/UyFweAzH8jHA0xrfZrPvqnf27NAcFLcYak+WxmI4UQKvgQjgay5nrKgkNBeoYc2nxsoR7WXOVxIiD1PFRz8UbD1ypKbhrhNLlWs3so4Ddzw95BOHq5+tse66u7/rM8KEWqYgxJzfd/Kjvmo2g7PZsJ3cuGTd4ad7mKWO6xWHOVwZUK0sDTUG3c0acevs7hJCCF8xq7c73MjQa8NS6Vo4SAS7jizoFbajZtOWvlwcEbhZB04uVHt0XxnvPZjAndOvkEWc3sVu9VoCIhEq32fur1YGPkPh4AlM6lgNTHUM3JQE0WTr79MrsadgOL4WYU8M8Y4Whx6q7/v/6AeaRImwlJz7028NLEvt57KjkUmTtKJZO9xiUc9bKDr7E7N0irvXdGfHgYwAOA8jgTkHoaqrlccehbNSXVo/CGPAzgZhTwh6kabyUcLU79rQ/vYx4pbDA3earq3Otff/r093Z+tZzDCc0dbeAHaqVCVb/vm8TS3eQP85n3ZoyEPAAYsuBQ1HCpgjTwLGQalw+8q3z7oiYghVcau3M93IwCXmC3+jKYeaSrb/xj7g2Qugsh6dP3nfrOn5XT6TTI3FFrmWtzMw+uLlbadbGpjRe6PGitX4jPdglcC0h9CtWcvmn2rCLY9bAbWApf2IDbhghHy7fhjuzdq65rP6T1+OGW8wefaxv/5vZjxW7elM9mzLqsjY+BlQa4Nl9K1p60I7vtER/X3KEHACiCUwGpZ6GaD/MqfZnJSTgKL3EzCjhtoLE7x271FWr4w2/cwKZNsMXU0R9mzr3xzMGV5pKyKZPVzLzRLq7Nl5NRA4/YdlyIxJBsFOslCYYH+CitzLUK0oBQzSm+BIdszgRvyc0o80gBt8wvwPmZRmP1lrtuIiSFLWYnjtWePfA33zj1Qvezix1SPpvpCIJgLz8w65iW+luYN7o8CdEIktwySgXlPMabFcHFgNSHUG3Ih6d+8qTDh/ZbKkjhNZlHys0ooN84C/Dordu6a6yu6Y4d7GwPm5x/8x86Tj5zx4lwy73sWM/vv32ekpZ67+eNFkMe8HFf6gbmoAs5Bx2MN1uecwGpJ6GaT4Ga6+/Vi7AbKAJPNQHdRtjwIz7123qfWfOxe79ASAqbTL/z6sazP/3a4dPDDzwu4egwO9ZbxayJ7zYPollvlIz7Uv0IRxeQDararTooy7hYQRp4EKoRkLqD6lHgg6ea7dyMAiqZjQ9YhMRsPiT96J/+udNvEurM73L/2sCu6vrM3xGOWmVAHlqx1ihD6L50SN3BIyAcXZo8yN5h6/GljYBUn1GfftE9+FLnpgUQhKSAOmZjzNt93vggafW3Pda35mNf+Jpf7xq2W3Vd+6EP7TjwO6ZakfbN1BWuy2zEVCFz/sxmg7Tbq0M4ugIZhURIuggnA1LHQzUf5/q4+uTOq7AbKAYhKaCG+W5ubezOsdFgwtZ/Zs+XCElhCxOONvzhN24IPliDNbP5YirGpZq/metytJhJqgrhaJEISRfnagVp4HCo5mPFoavvmSH2wCIISQGrjclMuw4WIOkhJIUNwuFogVTdmfmN18tsYsRvQB5YUc0fEwlJCZPsNtDYnWvl3qR4hKSXczkgdTFUG5XBur5xNSClvR5YgiywWnliD1jlKVmE8/1lAUJSpGmxcDTMrFnMbGLT7k1QGhtzXm+Rdnof14iJkjDpFsZIWGmnhNgoESHppQhIdfFyQSJPgVyrCPY17AZKIjc7OzlrWAaVxvErLMLZCdkyhKRIw0rhaJhp9w4FpVyvozEic0bbZcMVJETOdzOhvzXG5Xehz/cTUYlQSOp9+O9sQOpoqOZzxYZrs3SovgGKJDc9t/OljSUM0soZG9NOv4NFuN1MSLr2E/ftrKrbMOf7uUD8Vt/4x4PFhqNhEpS2UlFakXAwypzRlEiXU7s8wOfeND0m62HmbkQkJG33/TPtcgVp4FioNub54sS1QJGAFCiB3PzwxB6LopUzcuHNPpiXrcCF3e3v/QIhKeJkqpU33JG9u5KXWFBRyhid4pjzdD3BqF3kAX4r9x2JG5eWemahR4wKafcDUpdCKK8DNWlHd6Utx/ewGygLT+yxkgULbxYspZsPRqUig80+lKnf1vuMCUlrNm056/u5QLRM8L7m5s4nTLVyVH+xXK+7pAPgEalYxwfG5H5nEzNG7RV6QEt7cjKGZBY6LfUxCa23HnHyDa7A6YDUsVCNCg53zgHVo0AFQk/sXRujgogQlJZsLByMUpGhlwlJV2+56yZCUkRlPhz92L1fWN/+5INxnFQJmMx1x1Qt3e35d/u4VIveLhX8fVyPdZBui2ZfQ6UEjMnvRQcPC5IhD8pv8e3hlesVpIEjoRoVhxe4EiwSdgMVkgVVhwRgVJ1gUaGg9BZaORc1KjNGCUYdsm7rrrFN935/ndlIx/dzgcqYoH3tJ+673gTvSZzKxu7coHy3b5KKPF/C0iF5v81SLUobvUJSedcrVdHcc0Sj0E7PrNEUSAbV6lPw70NA6kKoxsXgg4pg7UEIYTcQIQnAmmVhQVCKRZnrLq2clyhUKLUyY9RdZiMds6GO7+cB5TEBu6lGNoF70qdQgqb+BWHpgEMtzGPyfu5u7M5VSVVcPw+p3CAP8bsISisSHvlDO32KFgT/zndl1VpwDLEyF6h8NmO+hJoUvw1ubj9gzsX9thxMGQi7gRhIyNOfz2bMDWmv8ms+YiIP2sznozefzZiFd+FPgwfn3FSLmkXGIItwf5gNdapXN/Sc+9nf/fXc5Kkq388HimOC9Uo3Y4qKXK/6Cx1Y+WymVa7b7VLZpOH6PS5rgPk/FEv4Qe45uvLZTE8QBOZPF/enKxqT33XGS1hGPs/t+WymXe4nW1x8n84HpEJzqDZu2k0sOA5b9CsPSPlZAjEKBaXtcjO6nfONxch362A+m9kYCkpd+7yMyvfmIDO7/GV2uA9q1/548vA//tPMiUNrfT8fWNr8vNGP/umfz39mLCXh4sWAUQLT8J82C458RI5x/g+BqN8k6Cs8nO1y9H6jUuZ3pp+uFvvJqINW+Sz3uBaUVs3NzVlwGPGSL879Sg9/QEr0IfLZzBGlT99M2L3RguNQT8KvFxW+j0fYGTpZ+WymWW5EexRdN8zT88RnkPF7dUGosrRd4XdNoUppUKqUCEVxife/3bl/8vDzrZwVLFR71cdP1jX9fmsaLfVRk+/+ZrmOB6F/RlVxOh4Kac0196T85yNcd1GM0P1pl6uVeEUYL1SH8xBBL0eKUm4vrLu8qCA1v3CK2+ypOLyc1opgfpZAwmShYiph+kJteR0W3oyOyTWCm8SUFSpLgw8WMO2hP7bdRxQW6YW2Tca4YFlX3Dlwy+nhBx4///NvPkDLPQpW33DXyIbP/W27KydEvvuPLDfaSu4JSilcIPxEZBbcnzaHHsy6Xlk6LvdYg3TJukHuPYflc9yldJTExXEOXlSQBh9UhGh8Ys78jQVCv3zaDBJ8REPxZ4AAwxKhtupWuSFNOjAdXRBspb7oooJ0ZfK5aQ3NvmtO8LMzFlrwF9o2WayjLGdeeaJp6ugPXpk6+sMMZ9BfZpf6uqY7diS1Sz2AlUlu0Z7S/WkcRgvdLayD/CAPoArjJGwNS0dDFcz+BaQAACxHAsJC6FWoLInixnREgq2L4RYPvtwSaucs/AlCn6Gwhe2di+0GWlg8FFo2T/JwDXE59UL3s5OHn99ONal/6q7/7IHaK2/qcKGlHnCZ3J+m8WC2XCMLigC45/WYhKXhbqy0NtYrqjiFgBQAgBXIzWlYOAgLQgFoAaEWABUmXn5029SvRp6bfudV5qR7YL5q9Nr2/2zzRkwAlif3pc0LHupHNWO3WKPyMHdY7oHZkAwrWmRjvTg+t+ERVAdKCeoJSAEAAADPMZvUfa7NGgVwudA4oCAUnIYtfMi/mJOhjciCBYUAdEIhcqFilHAH1mKf34KFn9H5DqxKxzgQkAIAAACYn006/e4bg+x07xazQ/2qa9vuqr/14X2+nwsAAJZCQAoAAADgool9vfdM/eb7f0PbvW7V9Zun667/g79a3/7kg76fCwAAVkJACgAAAOAypu1+8vA//b+zE8dqOTt6VNVtmKu7rv0l2ukBACgeASkAAACAJZ3+3s6vTo4NdxKU2s/MGa3ZuKWT3ekBACgNASkAAACAZZn5pDMnDw1MvjV8Gxs52WfVde2Hahtv7mLOKAAA5SEgBQAAAFCUQlA6dezHv0dFabpMK31t5pO/JBgFAKByBKQAAAAASkbrfToKM0ZppQcAIDoEpAAAAADKZjZzmn77X77Mrvfxmt+Vvql9oHrdh/+SYBQAgGgRkAIAAACo2MTLj26bOfGLr0z95uUW5pRGZ36+6MYt2frbHutz5T0BAGAbAlIAAAAAkTLt9zMnf3nn1NEfZjizpavZtOVs7dW3PF+z4SM9VIsCABA/AlIAAAAAsZjf1OnUr/umj+//7MyJQ2s5y0szLfS1V3/itZqG65+o39b7jK3HCQCAiwhIAQAAAMTOtODPTuT+48x7b7Yzr/QCUylas/GGNwlFAQBIFwEpAAAAgESZytLZM2//xczpY+0z777Z5MtO+GYH+trGj71dveHaV6rrM/+t/taH91lwWAAAeI+AFAAAAECqJvb13jN7Nv/52VO/2joz/lajK4GpCURrGprHaxqaR6vXXT3IRksAANiJgBQAAACAVUw7/tzkqTvnzr336ZnxIy0z40caNOyMX3vVx09Wr7/mSPXaD/2kqq7hBdrmAQDQgYAUAAAAgPVMW/7c5Km7Z8+Pt81NnmqePX20eW76zOqkN38ymylVr2s8XbX2yner6zb82lSGBrVrf0y7PAAAehGQAgAAAFCtEJ6a9zA3febmucnTNxTez+yZ4zfOTZ1ZU+z7M+3wH/yH1SeqVzeMzP87ISgAAG4KguD/AHF5VCE9kdVYAAAAAElFTkSuQmCC;fontFamily=Helvetica;" parent="1" vertex="1">
          <mxGeometry x="291.99" y="894.75" width="156.02" height="28.5" as="geometry" />
        </mxCell>
        <mxCell id="jYIIFlzwB7jrBm0eti1w-32" value="Asynchronous operations" style="text;html=1;align=center;verticalAlign=middle;resizable=0;points=[];autosize=1;strokeColor=none;fillColor=none;fontStyle=1;labelBackgroundColor=default;fontSize=13;" parent="1" vertex="1">
          <mxGeometry x="505" y="1060" width="170" height="30" as="geometry" />
        </mxCell>
        <mxCell id="jYIIFlzwB7jrBm0eti1w-33" value="5 - Extract descriptor metadata" style="shape=process;whiteSpace=wrap;html=1;backgroundOutline=1;align=left;fontSize=14;spacingLeft=6;" parent="1" vertex="1">
          <mxGeometry x="730" y="1020" width="320" height="40" as="geometry" />
        </mxCell>
        <mxCell id="jYIIFlzwB7jrBm0eti1w-34" value="&lt;font style=&quot;font-size: 16px;&quot;&gt;Setup&lt;/font&gt;" style="edgeStyle=orthogonalEdgeStyle;rounded=0;orthogonalLoop=1;jettySize=auto;html=1;exitX=1;exitY=0.5;exitDx=0;exitDy=0;entryX=0;entryY=0.122;entryDx=0;entryDy=0;entryPerimeter=0;curved=1;" parent="1" source="jYIIFlzwB7jrBm0eti1w-44" target="jYIIFlzwB7jrBm0eti1w-14" edge="1">
          <mxGeometry x="0.1547" y="-20" relative="1" as="geometry">
            <mxPoint x="1050.0000000000005" y="1141" as="sourcePoint" />
            <Array as="points">
              <mxPoint x="1340" y="1091" />
              <mxPoint x="1340" y="890" />
              <mxPoint x="1670" y="890" />
              <mxPoint x="1670" y="913" />
            </Array>
            <mxPoint as="offset" />
          </mxGeometry>
        </mxCell>
        <mxCell id="jYIIFlzwB7jrBm0eti1w-35" style="edgeStyle=orthogonalEdgeStyle;rounded=0;orthogonalLoop=1;jettySize=auto;html=1;entryX=0;entryY=0.5;entryDx=0;entryDy=0;curved=1;" parent="1" source="jYIIFlzwB7jrBm0eti1w-8" target="jYIIFlzwB7jrBm0eti1w-55" edge="1">
          <mxGeometry relative="1" as="geometry" />
        </mxCell>
        <mxCell id="jYIIFlzwB7jrBm0eti1w-36" value="&lt;font style=&quot;font-size: 16px;&quot;&gt;Create&lt;/font&gt;" style="edgeLabel;html=1;align=center;verticalAlign=middle;resizable=0;points=[];" parent="jYIIFlzwB7jrBm0eti1w-35" vertex="1" connectable="0">
          <mxGeometry x="0.0559" y="7" relative="1" as="geometry">
            <mxPoint x="-127" y="32" as="offset" />
          </mxGeometry>
        </mxCell>
        <mxCell id="jYIIFlzwB7jrBm0eti1w-37" style="edgeStyle=orthogonalEdgeStyle;rounded=0;orthogonalLoop=1;jettySize=auto;html=1;curved=1;entryX=0;entryY=0.75;entryDx=0;entryDy=0;exitX=1;exitY=0.5;exitDx=0;exitDy=0;" parent="1" source="jYIIFlzwB7jrBm0eti1w-9" target="jYIIFlzwB7jrBm0eti1w-48" edge="1">
          <mxGeometry relative="1" as="geometry">
            <mxPoint x="960" y="1234.97" as="sourcePoint" />
            <mxPoint x="1908.4410000000003" y="1110.0049999999994" as="targetPoint" />
          </mxGeometry>
        </mxCell>
        <mxCell id="jYIIFlzwB7jrBm0eti1w-38" value="&lt;font style=&quot;font-size: 16px;&quot;&gt;Setup permissions&lt;/font&gt;" style="edgeLabel;html=1;align=center;verticalAlign=middle;resizable=0;points=[];" parent="jYIIFlzwB7jrBm0eti1w-37" vertex="1" connectable="0">
          <mxGeometry x="0.1874" y="-19" relative="1" as="geometry">
            <mxPoint x="-137" y="70" as="offset" />
          </mxGeometry>
        </mxCell>
        <mxCell id="jYIIFlzwB7jrBm0eti1w-39" style="edgeStyle=orthogonalEdgeStyle;rounded=0;orthogonalLoop=1;jettySize=auto;html=1;entryX=0;entryY=0.5;entryDx=0;entryDy=0;curved=1;" parent="1" source="jYIIFlzwB7jrBm0eti1w-10" target="jYIIFlzwB7jrBm0eti1w-52" edge="1">
          <mxGeometry relative="1" as="geometry">
            <mxPoint x="1490" y="1141" as="targetPoint" />
            <Array as="points">
              <mxPoint x="1310" y="1190" />
              <mxPoint x="1310" y="1062" />
            </Array>
          </mxGeometry>
        </mxCell>
        <mxCell id="jYIIFlzwB7jrBm0eti1w-40" value="&lt;font style=&quot;font-size: 16px;&quot;&gt;Setup&lt;/font&gt;" style="edgeLabel;html=1;align=center;verticalAlign=middle;resizable=0;points=[];" parent="jYIIFlzwB7jrBm0eti1w-39" vertex="1" connectable="0">
          <mxGeometry x="0.1762" y="1" relative="1" as="geometry">
            <mxPoint x="91" y="-45" as="offset" />
          </mxGeometry>
        </mxCell>
        <mxCell id="jYIIFlzwB7jrBm0eti1w-42" value="&lt;div&gt;Each Workload&#39;s git repository is linked to the Workspace with its own name (normalized). The permissions on this folder are configurable.&lt;/div&gt;&lt;div&gt;&lt;br&gt;&lt;/div&gt;" style="shape=callout;whiteSpace=wrap;html=1;perimeter=calloutPerimeter;position2=0;size=40;position=0.08;align=left;" parent="1" vertex="1">
          <mxGeometry x="2210.72" y="883" width="240" height="137" as="geometry" />
        </mxCell>
        <mxCell id="jYIIFlzwB7jrBm0eti1w-43" value="Idempotent, i.e. does not fail if something it provisions already exists" style="shape=callout;whiteSpace=wrap;html=1;perimeter=calloutPerimeter;align=left;size=40;position=0.06;position2=0.02;base=19;" parent="1" vertex="1">
          <mxGeometry x="1030" y="662.5" width="220" height="105" as="geometry" />
        </mxCell>
        <mxCell id="jYIIFlzwB7jrBm0eti1w-44" value="6 - Provision Workspace if it does not exist and setup permissions" style="shape=process;whiteSpace=wrap;html=1;backgroundOutline=1;align=left;fontSize=14;spacingLeft=6;" parent="1" vertex="1">
          <mxGeometry x="730" y="1071" width="320" height="40" as="geometry" />
        </mxCell>
        <mxCell id="jYIIFlzwB7jrBm0eti1w-45" value="" style="group" parent="1" vertex="1" connectable="0">
          <mxGeometry x="2228.5499999999993" y="1220" width="113.20000000000005" height="120" as="geometry" />
        </mxCell>
        <mxCell id="jYIIFlzwB7jrBm0eti1w-46" value="" style="edgeStyle=orthogonalEdgeStyle;rounded=0;orthogonalLoop=1;jettySize=auto;html=1;" parent="jYIIFlzwB7jrBm0eti1w-45" edge="1">
          <mxGeometry relative="1" as="geometry">
            <mxPoint x="56.650000000000546" y="90" as="sourcePoint" />
            <mxPoint x="56.650000000000546" y="90" as="targetPoint" />
          </mxGeometry>
        </mxCell>
        <mxCell id="jYIIFlzwB7jrBm0eti1w-47" value="Details in&amp;nbsp;&lt;div&gt;previous diagram&lt;/div&gt;" style="shape=callout;whiteSpace=wrap;html=1;perimeter=calloutPerimeter;align=center;size=40;position=0.06;position2=0.08;base=19;" parent="1" vertex="1">
          <mxGeometry x="1440" y="810" width="130" height="84.75" as="geometry" />
        </mxCell>
        <mxCell id="jYIIFlzwB7jrBm0eti1w-48" value="&lt;pre&gt;&lt;pre style=&quot;line-height: 14.4px;&quot;&gt;  Workspace/&lt;br&gt;    └── databricks-test-dataproduct_0/&lt;br&gt;      ├── databricks-test-workflow/&lt;br&gt;      │  ├── notebooks/&lt;br&gt;      │  └── ...&lt;br&gt;      └── &amp;lt;workload component name&amp;gt;/&lt;br&gt;        ├── notebooks/&lt;br&gt;        └── ...&lt;/pre&gt;&lt;/pre&gt;" style="text;html=1;strokeColor=default;fillColor=none;spacing=5;spacingTop=-12;whiteSpace=wrap;overflow=hidden;rounded=0;" parent="1" vertex="1">
          <mxGeometry x="1955.9" y="1021" width="354.1" height="159.5" as="geometry" />
        </mxCell>
        <mxCell id="jYIIFlzwB7jrBm0eti1w-52" value="Databricks&lt;br&gt;Workspace-Repo&lt;br&gt;Sync" style="rhombus;whiteSpace=wrap;html=1;fontSize=13;align=center;verticalAlign=middle;rounded=0;spacing=4;fontStyle=1;spacingLeft=4;" parent="1" vertex="1">
          <mxGeometry x="1488.78" y="979" width="210" height="165" as="geometry" />
        </mxCell>
        <mxCell id="jYIIFlzwB7jrBm0eti1w-53" value="" style="edgeStyle=orthogonalEdgeStyle;rounded=0;orthogonalLoop=1;jettySize=auto;html=1;entryX=1;entryY=0.5;entryDx=0;entryDy=0;shape=flexArrow;dashed=1;startArrow=block;exitX=0;exitY=0.25;exitDx=0;exitDy=0;" parent="1" source="jYIIFlzwB7jrBm0eti1w-48" target="jYIIFlzwB7jrBm0eti1w-52" edge="1">
          <mxGeometry relative="1" as="geometry" />
        </mxCell>
        <mxCell id="8ip56edqfe3CFt1MV2Ge-4" style="edgeStyle=orthogonalEdgeStyle;rounded=1;orthogonalLoop=1;jettySize=auto;html=1;exitX=1;exitY=0.5;exitDx=0;exitDy=0;" parent="1" source="jYIIFlzwB7jrBm0eti1w-55" target="8ip56edqfe3CFt1MV2Ge-2" edge="1">
          <mxGeometry relative="1" as="geometry">
            <mxPoint x="2240" y="1265" as="targetPoint" />
          </mxGeometry>
        </mxCell>
        <mxCell id="jYIIFlzwB7jrBm0eti1w-55" value="Workflow:&amp;nbsp;&lt;span style=&quot;font-size: 13px; font-weight: 700; text-align: left;&quot;&gt;test-domain_databricks-test-dataproduct_0_databricks-test-workflow_environment&lt;/span&gt;" style="shape=process;whiteSpace=wrap;html=1;backgroundOutline=1;" parent="1" vertex="1">
          <mxGeometry x="1958" y="1210" width="240" height="110" as="geometry" />
        </mxCell>
        <mxCell id="jYIIFlzwB7jrBm0eti1w-56" style="edgeStyle=orthogonalEdgeStyle;rounded=0;orthogonalLoop=1;jettySize=auto;html=1;exitX=0.5;exitY=1;exitDx=0;exitDy=0;shape=flexArrow;dashed=1;startArrow=block;entryX=0.5;entryY=0;entryDx=0;entryDy=0;" parent="1" source="jYIIFlzwB7jrBm0eti1w-58" target="jYIIFlzwB7jrBm0eti1w-52" edge="1">
          <mxGeometry relative="1" as="geometry">
            <mxPoint x="1763.26" y="1158" as="targetPoint" />
          </mxGeometry>
        </mxCell>
        <mxCell id="jYIIFlzwB7jrBm0eti1w-57" value="" style="group" parent="1" vertex="1" connectable="0">
          <mxGeometry x="1410" y="380" width="367.5675675675677" height="220" as="geometry" />
        </mxCell>
        <mxCell id="jYIIFlzwB7jrBm0eti1w-58" value="&lt;span style=&quot;background-color: rgb(255, 255, 255);&quot;&gt;Component repo: test-databricks-workload-notebook&amp;nbsp;&lt;/span&gt;" style="rounded=0;whiteSpace=wrap;html=1;align=left;spacing=4;verticalAlign=top;fontStyle=1;fontSize=13;spacingLeft=4;container=0;" parent="jYIIFlzwB7jrBm0eti1w-57" vertex="1">
          <mxGeometry width="367.5675675675676" height="220" as="geometry" />
        </mxCell>
        <mxCell id="jYIIFlzwB7jrBm0eti1w-59" value="" style="shape=image;verticalLabelPosition=bottom;labelBackgroundColor=default;verticalAlign=top;aspect=fixed;imageAspect=0;image=https://upload.wikimedia.org/wikipedia/commons/thumb/e/e0/Git-logo.svg/1200px-Git-logo.svg.png;container=0;" parent="jYIIFlzwB7jrBm0eti1w-57" vertex="1">
          <mxGeometry x="8.49027027027023" y="43.683170731707264" width="63.07202743902438" height="26.321138211382113" as="geometry" />
        </mxCell>
        <mxCell id="jYIIFlzwB7jrBm0eti1w-60" value="Notebooks" style="shape=card;whiteSpace=wrap;html=1;verticalAlign=top;container=0;" parent="jYIIFlzwB7jrBm0eti1w-57" vertex="1">
          <mxGeometry x="18.49000000000001" y="82.83000000000001" width="140" height="120" as="geometry" />
        </mxCell>
        <mxCell id="jYIIFlzwB7jrBm0eti1w-61" value="" style="group" parent="jYIIFlzwB7jrBm0eti1w-57" vertex="1" connectable="0">
          <mxGeometry x="243.878188188188" y="122.83000000000001" width="68.611811811812" height="65.65" as="geometry" />
        </mxCell>
        <mxCell id="jYIIFlzwB7jrBm0eti1w-62" value="" style="shape=note;whiteSpace=wrap;html=1;backgroundOutline=1;darkOpacity=0.05;size=13;fontSize=13;container=0;" parent="jYIIFlzwB7jrBm0eti1w-61" vertex="1">
          <mxGeometry width="37.217217217217225" height="40.01784651992861" as="geometry" />
        </mxCell>
        <mxCell id="jYIIFlzwB7jrBm0eti1w-63" value="" style="endArrow=none;html=1;rounded=0;fontSize=13;" parent="jYIIFlzwB7jrBm0eti1w-61" edge="1">
          <mxGeometry width="50" height="50" relative="1" as="geometry">
            <mxPoint x="3.1014347681013987" y="17.03616894705533" as="sourcePoint" />
            <mxPoint x="34.11578244911584" y="17.03616894705533" as="targetPoint" />
          </mxGeometry>
        </mxCell>
        <mxCell id="jYIIFlzwB7jrBm0eti1w-64" value="" style="endArrow=none;html=1;rounded=0;fontSize=13;" parent="jYIIFlzwB7jrBm0eti1w-61" edge="1">
          <mxGeometry width="50" height="50" relative="1" as="geometry">
            <mxPoint x="3.1014347681013987" y="22.867340868530647" as="sourcePoint" />
            <mxPoint x="34.11578244911584" y="22.867340868530647" as="targetPoint" />
          </mxGeometry>
        </mxCell>
        <mxCell id="jYIIFlzwB7jrBm0eti1w-65" value="" style="endArrow=none;html=1;rounded=0;fontStyle=0;fontSize=13;" parent="jYIIFlzwB7jrBm0eti1w-61" edge="1">
          <mxGeometry width="50" height="50" relative="1" as="geometry">
            <mxPoint x="3.1014347681013987" y="28.584176085663273" as="sourcePoint" />
            <mxPoint x="34.11578244911584" y="28.584176085663273" as="targetPoint" />
          </mxGeometry>
        </mxCell>
        <mxCell id="jYIIFlzwB7jrBm0eti1w-66" value="" style="endArrow=none;html=1;rounded=0;fontSize=13;" parent="jYIIFlzwB7jrBm0eti1w-61" edge="1">
          <mxGeometry width="50" height="50" relative="1" as="geometry">
            <mxPoint x="3.1014347681013987" y="34.301011302795956" as="sourcePoint" />
            <mxPoint x="34.11578244911584" y="34.301011302795956" as="targetPoint" />
          </mxGeometry>
        </mxCell>
        <mxCell id="jYIIFlzwB7jrBm0eti1w-67" value="catalog-info.yaml" style="text;html=1;strokeColor=none;fillColor=none;align=center;verticalAlign=middle;whiteSpace=wrap;rounded=0;container=0;" parent="jYIIFlzwB7jrBm0eti1w-61" vertex="1">
          <mxGeometry x="-31.388188188187996" y="40.02000000000001" width="100" height="25.63" as="geometry" />
        </mxCell>
        <mxCell id="jYIIFlzwB7jrBm0eti1w-75" value="" style="curved=1;endArrow=classic;html=1;rounded=0;entryX=-0.037;entryY=0.77;entryDx=0;entryDy=0;entryPerimeter=0;fontSize=13;" parent="1" edge="1">
          <mxGeometry width="50" height="50" relative="1" as="geometry">
            <mxPoint x="470.6599893550097" y="1129.2857142857142" as="sourcePoint" />
            <mxPoint x="690.0000000000001" y="1128.7828571428572" as="targetPoint" />
            <Array as="points">
              <mxPoint x="577.1098853244301" y="1111" />
            </Array>
          </mxGeometry>
        </mxCell>
        <mxCell id="jYIIFlzwB7jrBm0eti1w-76" value="&lt;font style=&quot;font-size: 13px;&quot;&gt;Status request&lt;/font&gt;" style="edgeLabel;html=1;align=center;verticalAlign=middle;resizable=0;points=[];" parent="jYIIFlzwB7jrBm0eti1w-75" connectable="0" vertex="1">
          <mxGeometry x="0.0507" y="-16" relative="1" as="geometry">
            <mxPoint x="-3" y="-8" as="offset" />
          </mxGeometry>
        </mxCell>
        <mxCell id="jYIIFlzwB7jrBm0eti1w-77" value="" style="curved=1;endArrow=classic;html=1;rounded=0;entryX=-0.037;entryY=0.77;entryDx=0;entryDy=0;entryPerimeter=0;fontSize=13;" parent="1" edge="1">
          <mxGeometry width="50" height="50" relative="1" as="geometry">
            <mxPoint x="689.3400106449903" y="1149.2142857142858" as="sourcePoint" />
            <mxPoint x="470" y="1149.7171428571428" as="targetPoint" />
            <Array as="points">
              <mxPoint x="582.8901146755701" y="1167.5" />
            </Array>
          </mxGeometry>
        </mxCell>
        <mxCell id="jYIIFlzwB7jrBm0eti1w-78" value="&lt;font style=&quot;font-size: 13px;&quot;&gt;Provisioning status&lt;/font&gt;" style="edgeLabel;html=1;align=center;verticalAlign=middle;resizable=0;points=[];" parent="jYIIFlzwB7jrBm0eti1w-77" connectable="0" vertex="1">
          <mxGeometry x="0.1688" y="-12" relative="1" as="geometry">
            <mxPoint x="27" y="5" as="offset" />
          </mxGeometry>
        </mxCell>
        <mxCell id="jYIIFlzwB7jrBm0eti1w-79" value="Unity Catalog Metastore" style="shape=cylinder3;whiteSpace=wrap;html=1;boundedLbl=1;backgroundOutline=1;size=15;" parent="1" vertex="1">
          <mxGeometry x="2029.27" y="730" width="181.45" height="90" as="geometry" />
        </mxCell>
        <mxCell id="jYIIFlzwB7jrBm0eti1w-81" value="&lt;div&gt;Same for all Domains&lt;/div&gt;" style="shape=callout;whiteSpace=wrap;html=1;perimeter=calloutPerimeter;position2=0;size=40;position=0.08;align=center;" parent="1" vertex="1">
          <mxGeometry x="1898.26" y="590" width="160" height="90" as="geometry" />
        </mxCell>
        <mxCell id="jYIIFlzwB7jrBm0eti1w-82" style="edgeStyle=orthogonalEdgeStyle;rounded=0;orthogonalLoop=1;jettySize=auto;html=1;entryX=0;entryY=0.5;entryDx=0;entryDy=0;entryPerimeter=0;curved=1;" parent="1" edge="1">
          <mxGeometry relative="1" as="geometry">
            <Array as="points">
              <mxPoint x="1191" y="1140.5" />
              <mxPoint x="1191" y="767.5" />
              <mxPoint x="1641" y="767.5" />
              <mxPoint x="1641" y="782.5" />
            </Array>
            <mxPoint x="1050" y="1140" as="sourcePoint" />
            <mxPoint x="2030.2700000000004" y="782.5" as="targetPoint" />
          </mxGeometry>
        </mxCell>
        <mxCell id="jYIIFlzwB7jrBm0eti1w-83" value="&lt;font style=&quot;font-size: 16px;&quot;&gt;Attach&lt;/font&gt;" style="edgeLabel;html=1;align=center;verticalAlign=middle;resizable=0;points=[];" parent="jYIIFlzwB7jrBm0eti1w-82" vertex="1" connectable="0">
          <mxGeometry x="0.0485" y="-47" relative="1" as="geometry">
            <mxPoint x="5" y="-47" as="offset" />
          </mxGeometry>
        </mxCell>
        <mxCell id="U4OkaSuM4WUT4dq1MzHq-39" value="" style="group" parent="1" vertex="1" connectable="0">
          <mxGeometry x="1745" y="680" width="760" height="720" as="geometry" />
        </mxCell>
        <mxCell id="jYIIFlzwB7jrBm0eti1w-41" value="&lt;span style=&quot;font-size: 18px;&quot;&gt;&lt;span dir=&quot;ltr&quot; class=&quot;ui-provider cfk cfl jk cfm cfn cfo cfp cfq cfr cfs cft cfu cfv cfw cfx cfy cfz cga cgb cgc cgd cge cgf cgg cgh cgi cgj cgk cgl cgm cgn cgo cgp cgq cgr&quot; style=&quot;font-size: 18px;&quot;&gt;Databricks Cloud Account&lt;/span&gt;&lt;/span&gt;&lt;div&gt;&lt;span style=&quot;font-size: 18px;&quot;&gt;&lt;span dir=&quot;ltr&quot; class=&quot;ui-provider cfk cfl jk cfm cfn cfo cfp cfq cfr cfs cft cfu cfv cfw cfx cfy cfz cga cgb cgc cgd cge cgf cgg cgh cgi cgj cgk cgl cgm cgn cgo cgp cgq cgr&quot; style=&quot;font-size: 18px;&quot;&gt;&lt;br&gt;&lt;/span&gt;&lt;/span&gt;&lt;/div&gt;" style="text;whiteSpace=wrap;html=1;fontStyle=1;fontSize=18;" parent="U4OkaSuM4WUT4dq1MzHq-39" vertex="1">
          <mxGeometry x="14" y="9.6" width="264.1" height="38.4" as="geometry" />
        </mxCell>
        <mxCell id="jYIIFlzwB7jrBm0eti1w-13" value="" style="rounded=1;whiteSpace=wrap;html=1;arcSize=3;fillColor=none;fontSize=13;perimeterSpacing=0;" parent="U4OkaSuM4WUT4dq1MzHq-39" vertex="1">
          <mxGeometry width="760" height="720" as="geometry" />
        </mxCell>
        <mxCell id="jYIIFlzwB7jrBm0eti1w-80" value="&lt;div&gt;Same for all Domains&lt;/div&gt;" style="shape=callout;whiteSpace=wrap;html=1;perimeter=calloutPerimeter;position2=0;size=40;position=0.08;align=center;" parent="1" vertex="1">
          <mxGeometry x="2198" y="650" width="140" height="90" as="geometry" />
        </mxCell>
        <mxCell id="8ip56edqfe3CFt1MV2Ge-1" value="" style="group" parent="1" vertex="1" connectable="0">
          <mxGeometry x="2249.9999999999995" y="1220" width="113.20000000000005" height="120" as="geometry" />
        </mxCell>
        <mxCell id="8ip56edqfe3CFt1MV2Ge-2" value="" style="sketch=0;pointerEvents=1;shadow=0;dashed=0;html=1;strokeColor=none;fillColor=#505050;labelPosition=center;verticalLabelPosition=bottom;verticalAlign=top;outlineConnect=0;align=center;shape=mxgraph.office.servers.cluster_server;" parent="8ip56edqfe3CFt1MV2Ge-1" vertex="1">
          <mxGeometry width="113.2" height="90" as="geometry" />
        </mxCell>
        <mxCell id="8ip56edqfe3CFt1MV2Ge-3" value="cluster" style="text;html=1;strokeColor=none;fillColor=none;align=center;verticalAlign=middle;whiteSpace=wrap;rounded=0;" parent="8ip56edqfe3CFt1MV2Ge-1" vertex="1">
          <mxGeometry x="6.600000000000136" y="90" width="100" height="30" as="geometry" />
        </mxCell>
        <mxCell id="jYIIFlzwB7jrBm0eti1w-3" value="A&lt;br style=&quot;font-size: 13px;&quot;&gt;P&lt;br style=&quot;font-size: 13px;&quot;&gt;I" style="rounded=0;whiteSpace=wrap;html=1;fontStyle=1;strokeWidth=2;fontSize=13;fillColor=#dae8fc;strokeColor=#6c8ebf;" parent="1" vertex="1">
          <mxGeometry x="690" y="760" width="25" height="620" as="geometry" />
        </mxCell>
        <mxCell id="jYIIFlzwB7jrBm0eti1w-4" value="1 - Generate a token and a response with ProvisioningStatus=&quot;RUNNING&quot;" style="shape=process;whiteSpace=wrap;html=1;backgroundOutline=1;align=left;fontSize=14;spacingLeft=6;" parent="1" vertex="1">
          <mxGeometry x="730" y="790" width="320" height="45.92" as="geometry" />
        </mxCell>
        <mxCell id="jYIIFlzwB7jrBm0eti1w-5" value="2 - Accept request and generate a map entry containing as key the token and as value the response&amp;nbsp;" style="shape=process;whiteSpace=wrap;html=1;backgroundOutline=1;align=left;fontSize=14;spacingLeft=6;" parent="1" vertex="1">
          <mxGeometry x="730" y="847" width="320" height="56.00000000000001" as="geometry" />
        </mxCell>
        <mxCell id="jYIIFlzwB7jrBm0eti1w-6" value="3 - Report token" style="shape=process;whiteSpace=wrap;html=1;backgroundOutline=1;align=left;fontSize=14;spacingLeft=6;" parent="1" vertex="1">
          <mxGeometry x="730" y="913" width="320" height="45.92" as="geometry" />
        </mxCell>
        <mxCell id="jYIIFlzwB7jrBm0eti1w-7" value="11 - Update response" style="shape=process;whiteSpace=wrap;html=1;backgroundOutline=1;align=left;fontSize=14;spacingLeft=6;" parent="1" vertex="1">
          <mxGeometry x="730" y="1320" width="320" height="40" as="geometry" />
        </mxCell>
        <mxCell id="jYIIFlzwB7jrBm0eti1w-8" value="10 - Create or update workflow" style="shape=process;whiteSpace=wrap;html=1;backgroundOutline=1;align=left;fontSize=14;spacingLeft=6;" parent="1" vertex="1">
          <mxGeometry x="730" y="1270" width="320" height="40" as="geometry" />
        </mxCell>
        <mxCell id="jYIIFlzwB7jrBm0eti1w-9" value="9 - Setup permissions on Git folder" style="shape=process;whiteSpace=wrap;html=1;backgroundOutline=1;align=left;fontSize=14;spacingLeft=6;" parent="1" vertex="1">
          <mxGeometry x="730" y="1220" width="320" height="40" as="geometry" />
        </mxCell>
        <mxCell id="jYIIFlzwB7jrBm0eti1w-10" value="8 - Setup Git integration between&amp;nbsp; component repo and Workspace" style="shape=process;whiteSpace=wrap;html=1;backgroundOutline=1;align=left;fontSize=14;spacingLeft=6;" parent="1" vertex="1">
          <mxGeometry x="730" y="1170" width="320" height="40" as="geometry" />
        </mxCell>
        <mxCell id="jYIIFlzwB7jrBm0eti1w-11" value="7 - Attach workspace to metastore" style="shape=process;whiteSpace=wrap;html=1;backgroundOutline=1;align=left;fontSize=14;spacingLeft=6;" parent="1" vertex="1">
          <mxGeometry x="730" y="1120" width="320" height="40" as="geometry" />
        </mxCell>
        <mxCell id="jYIIFlzwB7jrBm0eti1w-12" value="4 - Validate provisioning request" style="shape=process;whiteSpace=wrap;html=1;backgroundOutline=1;align=left;fontSize=14;spacingLeft=6;" parent="1" vertex="1">
          <mxGeometry x="730" y="970" width="320" height="41" as="geometry" />
        </mxCell>
      </root>
    </mxGraphModel>
  </diagram>
  <diagram id="DlsgwW-SvqJawDEfUNmH" name="Workflow - provisioning validation">
    <mxGraphModel dx="2841" dy="1603" grid="1" gridSize="10" guides="1" tooltips="1" connect="1" arrows="1" fold="1" page="1" pageScale="1" pageWidth="1169" pageHeight="827" background="#ffffff" math="0" shadow="0">
      <root>
        <mxCell id="0" />
        <mxCell id="1" parent="0" />
        <mxCell id="abavste3J3jDp7NCegUD-36" value="Yes" style="edgeStyle=orthogonalEdgeStyle;rounded=0;orthogonalLoop=1;jettySize=auto;html=1;" edge="1" parent="1" source="abavste3J3jDp7NCegUD-4" target="abavste3J3jDp7NCegUD-10">
          <mxGeometry relative="1" as="geometry" />
        </mxCell>
        <mxCell id="abavste3J3jDp7NCegUD-4" value="Does the workflow already exist&amp;nbsp;&lt;div&gt;in the Databricks workspace?&lt;/div&gt;" style="rhombus;whiteSpace=wrap;html=1;shadow=0;fontFamily=Helvetica;fontSize=12;align=center;strokeWidth=1;spacing=6;spacingTop=-4;arcSize=20;rounded=0;" vertex="1" parent="1">
          <mxGeometry x="70" y="285.27" width="220" height="132.31" as="geometry" />
        </mxCell>
        <mxCell id="abavste3J3jDp7NCegUD-5" value="Validation successfully completed" style="rounded=0;whiteSpace=wrap;html=1;fontSize=12;glass=0;strokeWidth=1;shadow=0;" vertex="1" parent="1">
          <mxGeometry x="372.18" y="543.89" width="190" height="60" as="geometry" />
        </mxCell>
        <mxCell id="abavste3J3jDp7NCegUD-37" value="No" style="edgeStyle=orthogonalEdgeStyle;rounded=0;orthogonalLoop=1;jettySize=auto;html=1;" edge="1" parent="1" source="abavste3J3jDp7NCegUD-10" target="abavste3J3jDp7NCegUD-22">
          <mxGeometry relative="1" as="geometry" />
        </mxCell>
        <mxCell id="BuC63i5nBASw3qEQg7f--2" style="edgeStyle=orthogonalEdgeStyle;rounded=0;orthogonalLoop=1;jettySize=auto;html=1;entryX=0.5;entryY=0;entryDx=0;entryDy=0;" edge="1" parent="1" source="abavste3J3jDp7NCegUD-10" target="abavste3J3jDp7NCegUD-5">
          <mxGeometry relative="1" as="geometry" />
        </mxCell>
        <mxCell id="Rm13RRUJhqSk8acWCYE6-3" value="Yes" style="edgeLabel;html=1;align=center;verticalAlign=middle;resizable=0;points=[];" vertex="1" connectable="0" parent="BuC63i5nBASw3qEQg7f--2">
          <mxGeometry x="-0.8632" y="1" relative="1" as="geometry">
            <mxPoint x="-1" y="14" as="offset" />
          </mxGeometry>
        </mxCell>
        <mxCell id="abavste3J3jDp7NCegUD-10" value="Is the request workflow equals to&amp;nbsp;&lt;div&gt;t&lt;span style=&quot;background-color: initial;&quot;&gt;he one in the Databricks workspace&lt;/span&gt;&lt;span style=&quot;background-color: initial;&quot;&gt;?&lt;/span&gt;&lt;/div&gt;" style="rhombus;whiteSpace=wrap;html=1;shadow=0;fontFamily=Helvetica;fontSize=12;align=center;strokeWidth=1;spacing=6;spacingTop=-4;rounded=0;" vertex="1" parent="1">
          <mxGeometry x="349.9981042457306" y="285.2768867622832" width="234.36899608633775" height="132.31032273944203" as="geometry" />
        </mxCell>
        <mxCell id="i8106lKFSt5lmNOwFaDk-1" value="No" style="edgeStyle=orthogonalEdgeStyle;rounded=0;orthogonalLoop=1;jettySize=auto;html=1;" edge="1" parent="1" source="abavste3J3jDp7NCegUD-16" target="abavste3J3jDp7NCegUD-20">
          <mxGeometry relative="1" as="geometry" />
        </mxCell>
        <mxCell id="BuC63i5nBASw3qEQg7f--3" style="edgeStyle=orthogonalEdgeStyle;rounded=0;orthogonalLoop=1;jettySize=auto;html=1;entryX=0.25;entryY=0;entryDx=0;entryDy=0;" edge="1" parent="1" source="abavste3J3jDp7NCegUD-16" target="LStDVtN_jxyFHpMyD1pD-4">
          <mxGeometry relative="1" as="geometry">
            <Array as="points">
              <mxPoint x="1017" y="480" />
              <mxPoint x="1098" y="480" />
              <mxPoint x="1098" y="544" />
            </Array>
          </mxGeometry>
        </mxCell>
        <mxCell id="Rm13RRUJhqSk8acWCYE6-4" value="Yes" style="edgeLabel;html=1;align=center;verticalAlign=middle;resizable=0;points=[];" vertex="1" connectable="0" parent="BuC63i5nBASw3qEQg7f--3">
          <mxGeometry x="-0.7628" y="2" relative="1" as="geometry">
            <mxPoint x="-2" y="10" as="offset" />
          </mxGeometry>
        </mxCell>
        <mxCell id="abavste3J3jDp7NCegUD-16" value="Development environment?" style="rhombus;whiteSpace=wrap;html=1;rounded=0;" vertex="1" parent="1">
          <mxGeometry x="909.9976636622391" y="299.45647989298135" width="214.1298772533207" height="103.96085254852991" as="geometry" />
        </mxCell>
        <mxCell id="LStDVtN_jxyFHpMyD1pD-3" value="No" style="edgeStyle=orthogonalEdgeStyle;rounded=0;orthogonalLoop=1;jettySize=auto;html=1;" edge="1" parent="1" source="abavste3J3jDp7NCegUD-20" target="qHyS03KBClviV5cbzKxV-1">
          <mxGeometry relative="1" as="geometry" />
        </mxCell>
        <mxCell id="LStDVtN_jxyFHpMyD1pD-5" value="" style="edgeStyle=orthogonalEdgeStyle;rounded=0;orthogonalLoop=1;jettySize=auto;html=1;entryX=0.75;entryY=0;entryDx=0;entryDy=0;" edge="1" parent="1" source="abavste3J3jDp7NCegUD-20" target="LStDVtN_jxyFHpMyD1pD-4">
          <mxGeometry relative="1" as="geometry">
            <Array as="points">
              <mxPoint x="1287" y="481" />
              <mxPoint x="1193" y="481" />
              <mxPoint x="1193" y="544" />
            </Array>
          </mxGeometry>
        </mxCell>
        <mxCell id="LStDVtN_jxyFHpMyD1pD-6" value="Yes" style="edgeLabel;html=1;align=center;verticalAlign=middle;resizable=0;points=[];" vertex="1" connectable="0" parent="LStDVtN_jxyFHpMyD1pD-5">
          <mxGeometry x="-0.1792" y="2" relative="1" as="geometry">
            <mxPoint x="27" y="-43" as="offset" />
          </mxGeometry>
        </mxCell>
        <mxCell id="abavste3J3jDp7NCegUD-20" value="Is it trying to overwrite a&amp;nbsp;&lt;div&gt;NON-empty workflow with an empty one?&lt;/div&gt;" style="rhombus;whiteSpace=wrap;html=1;rounded=0;" vertex="1" parent="1">
          <mxGeometry x="1179.9962084914612" y="285.27" width="214.1298772533207" height="132.3138123344926" as="geometry" />
        </mxCell>
        <mxCell id="abavste3J3jDp7NCegUD-40" value="Yes" style="edgeStyle=orthogonalEdgeStyle;rounded=0;orthogonalLoop=1;jettySize=auto;html=1;entryX=0.75;entryY=0;entryDx=0;entryDy=0;" edge="1" parent="1" source="abavste3J3jDp7NCegUD-22" target="abavste3J3jDp7NCegUD-5">
          <mxGeometry x="-0.8038" relative="1" as="geometry">
            <Array as="points">
              <mxPoint x="747" y="480" />
              <mxPoint x="515" y="480" />
            </Array>
            <mxPoint as="offset" />
          </mxGeometry>
        </mxCell>
        <mxCell id="abavste3J3jDp7NCegUD-42" value="" style="edgeStyle=orthogonalEdgeStyle;rounded=0;orthogonalLoop=1;jettySize=auto;html=1;" edge="1" parent="1" source="abavste3J3jDp7NCegUD-22" target="abavste3J3jDp7NCegUD-16">
          <mxGeometry relative="1" as="geometry" />
        </mxCell>
        <mxCell id="abavste3J3jDp7NCegUD-43" value="No" style="edgeLabel;html=1;align=center;verticalAlign=middle;resizable=0;points=[];" vertex="1" connectable="0" parent="abavste3J3jDp7NCegUD-42">
          <mxGeometry x="-0.2936" y="2" relative="1" as="geometry">
            <mxPoint as="offset" />
          </mxGeometry>
        </mxCell>
        <mxCell id="abavste3J3jDp7NCegUD-22" value="Override field == true" style="rhombus;whiteSpace=wrap;html=1;rounded=0;" vertex="1" parent="1">
          <mxGeometry x="640.0043127371915" y="299.45647989298135" width="214.1298772533207" height="103.96085254852991" as="geometry" />
        </mxCell>
        <mxCell id="abavste3J3jDp7NCegUD-26" style="edgeStyle=orthogonalEdgeStyle;rounded=1;orthogonalLoop=1;jettySize=auto;html=1;" edge="1" parent="1" source="abavste3J3jDp7NCegUD-27" target="abavste3J3jDp7NCegUD-4">
          <mxGeometry relative="1" as="geometry">
            <mxPoint x="197.06" y="285" as="targetPoint" />
          </mxGeometry>
        </mxCell>
        <mxCell id="abavste3J3jDp7NCegUD-27" value="Parse descriptor" style="rounded=0;whiteSpace=wrap;html=1;" vertex="1" parent="1">
          <mxGeometry x="120" y="180" width="120" height="60" as="geometry" />
        </mxCell>
        <mxCell id="qHyS03KBClviV5cbzKxV-1" value="Validation successfully completed" style="rounded=0;whiteSpace=wrap;html=1;fontSize=12;glass=0;strokeWidth=1;shadow=0;" vertex="1" parent="1">
          <mxGeometry x="1450.0000000000002" y="322.17999999999995" width="190" height="58.52" as="geometry" />
        </mxCell>
        <mxCell id="LStDVtN_jxyFHpMyD1pD-4" value="&lt;u&gt;FAILURE&lt;/u&gt;&lt;br&gt;&lt;div&gt;&lt;span style=&quot;background-color: initial;&quot;&gt;Reverse provisioning required&lt;/span&gt;&lt;/div&gt;" style="rounded=0;whiteSpace=wrap;html=1;fontSize=12;glass=0;strokeWidth=1;shadow=0;" vertex="1" parent="1">
          <mxGeometry x="1050" y="543.8900000000001" width="190" height="60" as="geometry" />
        </mxCell>
        <mxCell id="BuC63i5nBASw3qEQg7f--1" style="edgeStyle=orthogonalEdgeStyle;rounded=0;orthogonalLoop=1;jettySize=auto;html=1;entryX=0.25;entryY=0;entryDx=0;entryDy=0;" edge="1" parent="1" source="abavste3J3jDp7NCegUD-4" target="abavste3J3jDp7NCegUD-5">
          <mxGeometry relative="1" as="geometry">
            <Array as="points">
              <mxPoint x="180" y="480" />
              <mxPoint x="420" y="480" />
            </Array>
          </mxGeometry>
        </mxCell>
        <mxCell id="Rm13RRUJhqSk8acWCYE6-2" value="No" style="edgeLabel;html=1;align=center;verticalAlign=middle;resizable=0;points=[];" vertex="1" connectable="0" parent="BuC63i5nBASw3qEQg7f--1">
          <mxGeometry x="-0.9202" y="-1" relative="1" as="geometry">
            <mxPoint x="1" y="4" as="offset" />
          </mxGeometry>
        </mxCell>
        <mxCell id="dLnRcvPHTzVGLxgGCy-Y-1" value="" style="group;dashed=1;dashPattern=12 12;" vertex="1" connectable="0" parent="1">
          <mxGeometry x="1090" y="80" width="550" height="130" as="geometry" />
        </mxCell>
        <mxCell id="LStDVtN_jxyFHpMyD1pD-7" value="" style="rounded=1;whiteSpace=wrap;html=1;sketch=1;curveFitting=1;jiggle=2;dashed=1;dashPattern=12 12;" vertex="1" parent="dLnRcvPHTzVGLxgGCy-Y-1">
          <mxGeometry width="550" height="130" as="geometry" />
        </mxCell>
        <mxCell id="abavste3J3jDp7NCegUD-25" value="&lt;h1 style=&quot;margin-top: 0px; padding-right: 0px; margin-bottom: 3px;&quot;&gt;&lt;font style=&quot;font-size: 20px;&quot;&gt;TO DO:&lt;/font&gt;&lt;/h1&gt;&lt;p style=&quot;margin-left: 0px;&quot;&gt;Remote engine to check for workflow changes that do not match what is saved in the descriptor.&amp;nbsp;&lt;span style=&quot;background-color: initial;&quot;&gt;The remote engine should raise a warning before deploying the component.&lt;/span&gt;&lt;/p&gt;" style="text;html=1;whiteSpace=wrap;overflow=hidden;rounded=1;dashed=1;dashPattern=12 12;" vertex="1" parent="dLnRcvPHTzVGLxgGCy-Y-1">
          <mxGeometry x="38.24000000000001" y="20" width="473.52" height="90" as="geometry" />
        </mxCell>
      </root>
    </mxGraphModel>
  </diagram>
  <diagram id="Ghkc8zRyu0JxkLQ_n6oF" name="Workflow - unprovision">
    <mxGraphModel dx="2183" dy="1181" grid="1" gridSize="10" guides="1" tooltips="1" connect="1" arrows="1" fold="1" page="1" pageScale="1" pageWidth="1169" pageHeight="827" background="#ffffff" math="0" shadow="0">
      <root>
        <mxCell id="0" />
        <mxCell id="1" parent="0" />
        <mxCell id="MF3n9y5MDFoNAGw33dYD-1" value="Databricks Specific Provisioner" style="rounded=0;whiteSpace=wrap;html=1;fontStyle=1;strokeWidth=2;fontSize=13;verticalAlign=top;fillColor=#dae8fc;strokeColor=#6c8ebf;" parent="1" vertex="1">
          <mxGeometry x="680" y="400" width="380" height="500" as="geometry" />
        </mxCell>
        <mxCell id="MF3n9y5MDFoNAGw33dYD-2" value="A&lt;br style=&quot;font-size: 13px;&quot;&gt;P&lt;br style=&quot;font-size: 13px;&quot;&gt;I" style="rounded=0;whiteSpace=wrap;html=1;fontStyle=1;strokeWidth=2;fontSize=13;fillColor=#dae8fc;strokeColor=#6c8ebf;" parent="1" vertex="1">
          <mxGeometry x="680" y="400" width="25" height="500" as="geometry" />
        </mxCell>
        <mxCell id="MF3n9y5MDFoNAGw33dYD-3" value="8 - Update response" style="shape=process;whiteSpace=wrap;html=1;backgroundOutline=1;align=left;fontSize=14;spacingLeft=6;" parent="1" vertex="1">
          <mxGeometry x="720" y="840" width="320" height="40" as="geometry" />
        </mxCell>
        <mxCell id="MF3n9y5MDFoNAGw33dYD-4" value="" style="rounded=1;whiteSpace=wrap;html=1;arcSize=3;fillColor=none;fontSize=13;perimeterSpacing=0;" parent="1" vertex="1">
          <mxGeometry x="1640.29" y="402.5" width="599.71" height="557.5" as="geometry" />
        </mxCell>
        <mxCell id="MF3n9y5MDFoNAGw33dYD-5" value="&lt;span style=&quot;background-color: rgb(255, 255, 255); font-size: 13px;&quot;&gt;Workspace:&amp;nbsp;&lt;/span&gt;test-domain_databricks-test-dataproduct_0" style="rounded=0;whiteSpace=wrap;html=1;align=left;spacing=4;verticalAlign=top;fontStyle=1;fontSize=13;spacingLeft=4;" parent="1" vertex="1">
          <mxGeometry x="1679.08" y="457.5" width="519.71" height="447.5" as="geometry" />
        </mxCell>
        <mxCell id="MF3n9y5MDFoNAGw33dYD-6" style="edgeStyle=orthogonalEdgeStyle;rounded=0;orthogonalLoop=1;jettySize=auto;html=1;fontSize=13;" parent="1" edge="1">
          <mxGeometry relative="1" as="geometry">
            <mxPoint x="680" y="704.95" as="targetPoint" />
            <mxPoint x="460" y="704.95" as="sourcePoint" />
            <Array as="points">
              <mxPoint x="630" y="705.25" />
              <mxPoint x="630" y="705.25" />
            </Array>
          </mxGeometry>
        </mxCell>
        <mxCell id="MF3n9y5MDFoNAGw33dYD-7" value="Provisioning request" style="edgeLabel;html=1;align=center;verticalAlign=middle;resizable=0;points=[];fontSize=13;" parent="MF3n9y5MDFoNAGw33dYD-6" vertex="1" connectable="0">
          <mxGeometry x="0.0837" y="2" relative="1" as="geometry">
            <mxPoint x="-11" y="-9" as="offset" />
          </mxGeometry>
        </mxCell>
        <mxCell id="MF3n9y5MDFoNAGw33dYD-8" value="" style="group;fontSize=13;" parent="1" vertex="1" connectable="0">
          <mxGeometry x="560" y="634.25" width="40" height="43" as="geometry" />
        </mxCell>
        <mxCell id="MF3n9y5MDFoNAGw33dYD-9" value="" style="shape=note;whiteSpace=wrap;html=1;backgroundOutline=1;darkOpacity=0.05;size=13;fontSize=13;" parent="MF3n9y5MDFoNAGw33dYD-8" vertex="1">
          <mxGeometry width="40" height="43" as="geometry" />
        </mxCell>
        <mxCell id="MF3n9y5MDFoNAGw33dYD-10" value="" style="endArrow=none;html=1;rounded=0;fontSize=13;" parent="MF3n9y5MDFoNAGw33dYD-8" edge="1">
          <mxGeometry width="50" height="50" relative="1" as="geometry">
            <mxPoint x="3.333333333333334" y="18.305714285714295" as="sourcePoint" />
            <mxPoint x="36.66666666666667" y="18.305714285714295" as="targetPoint" />
          </mxGeometry>
        </mxCell>
        <mxCell id="MF3n9y5MDFoNAGw33dYD-11" value="" style="endArrow=none;html=1;rounded=0;fontSize=13;" parent="MF3n9y5MDFoNAGw33dYD-8" edge="1">
          <mxGeometry width="50" height="50" relative="1" as="geometry">
            <mxPoint x="3.333333333333334" y="24.571428571428573" as="sourcePoint" />
            <mxPoint x="36.66666666666667" y="24.571428571428573" as="targetPoint" />
          </mxGeometry>
        </mxCell>
        <mxCell id="MF3n9y5MDFoNAGw33dYD-12" value="" style="endArrow=none;html=1;rounded=0;fontStyle=0;fontSize=13;" parent="MF3n9y5MDFoNAGw33dYD-8" edge="1">
          <mxGeometry width="50" height="50" relative="1" as="geometry">
            <mxPoint x="3.333333333333334" y="30.71428571428571" as="sourcePoint" />
            <mxPoint x="36.66666666666667" y="30.71428571428571" as="targetPoint" />
          </mxGeometry>
        </mxCell>
        <mxCell id="MF3n9y5MDFoNAGw33dYD-13" value="" style="endArrow=none;html=1;rounded=0;fontSize=13;" parent="MF3n9y5MDFoNAGw33dYD-8" edge="1">
          <mxGeometry width="50" height="50" relative="1" as="geometry">
            <mxPoint x="3.333333333333334" y="36.85714285714286" as="sourcePoint" />
            <mxPoint x="36.66666666666667" y="36.85714285714286" as="targetPoint" />
          </mxGeometry>
        </mxCell>
        <mxCell id="MF3n9y5MDFoNAGw33dYD-14" value="yaml descriptor" style="text;html=1;align=center;verticalAlign=middle;resizable=0;points=[];autosize=1;strokeColor=none;fillColor=none;fontSize=13;" parent="1" vertex="1">
          <mxGeometry x="525" y="604.25" width="110" height="30" as="geometry" />
        </mxCell>
        <mxCell id="MF3n9y5MDFoNAGw33dYD-15" style="edgeStyle=orthogonalEdgeStyle;shape=connector;curved=1;rounded=0;hachureGap=4;orthogonalLoop=1;jettySize=auto;html=1;entryX=0;entryY=0.5;entryDx=0;entryDy=0;labelBackgroundColor=default;strokeColor=default;fontFamily=Helvetica;fontSize=16;fontColor=default;endArrow=classic;" parent="1" source="MF3n9y5MDFoNAGw33dYD-17" target="MF3n9y5MDFoNAGw33dYD-20" edge="1">
          <mxGeometry relative="1" as="geometry" />
        </mxCell>
        <mxCell id="MF3n9y5MDFoNAGw33dYD-16" value="Undeploy DP" style="edgeLabel;html=1;align=center;verticalAlign=middle;resizable=0;points=[];fontSize=16;fontFamily=Helvetica;fontColor=default;" parent="MF3n9y5MDFoNAGw33dYD-15" vertex="1" connectable="0">
          <mxGeometry x="-0.0027" y="-2" relative="1" as="geometry">
            <mxPoint x="2" y="-26" as="offset" />
          </mxGeometry>
        </mxCell>
        <mxCell id="MF3n9y5MDFoNAGw33dYD-17" value="DP team" style="shape=umlActor;verticalLabelPosition=bottom;verticalAlign=top;html=1;outlineConnect=0;hachureGap=4;fontFamily=Helvetica;fontSize=16;fontColor=default;" parent="1" vertex="1">
          <mxGeometry x="70" y="490.25" width="60" height="117.5" as="geometry" />
        </mxCell>
        <mxCell id="MF3n9y5MDFoNAGw33dYD-18" value="" style="edgeStyle=orthogonalEdgeStyle;shape=connector;curved=1;rounded=0;hachureGap=4;orthogonalLoop=1;jettySize=auto;html=1;labelBackgroundColor=default;strokeColor=default;fontFamily=Helvetica;fontSize=16;fontColor=default;endArrow=classic;" parent="1" source="MF3n9y5MDFoNAGw33dYD-20" target="MF3n9y5MDFoNAGw33dYD-21" edge="1">
          <mxGeometry relative="1" as="geometry" />
        </mxCell>
        <mxCell id="MF3n9y5MDFoNAGw33dYD-19" value="Undeploy DP" style="edgeLabel;html=1;align=center;verticalAlign=middle;resizable=0;points=[];fontSize=16;fontFamily=Helvetica;fontColor=default;" parent="MF3n9y5MDFoNAGw33dYD-18" vertex="1" connectable="0">
          <mxGeometry x="0.3239" relative="1" as="geometry">
            <mxPoint y="-24" as="offset" />
          </mxGeometry>
        </mxCell>
        <mxCell id="MF3n9y5MDFoNAGw33dYD-20" value="" style="rounded=0;whiteSpace=wrap;html=1;hachureGap=4;fontFamily=Helvetica;fontSize=20;verticalAlign=middle;fillColor=#fff2cc;strokeColor=#d6b656;glass=0;" parent="1" vertex="1">
          <mxGeometry x="260" y="489" width="200" height="120" as="geometry" />
        </mxCell>
        <mxCell id="MF3n9y5MDFoNAGw33dYD-21" value="Provisioning Coordinator" style="whiteSpace=wrap;html=1;fontSize=20;fontFamily=Helvetica;fillColor=#fff2cc;strokeColor=#d6b656;rounded=0;hachureGap=4;glass=0;" parent="1" vertex="1">
          <mxGeometry x="260" y="691.25" width="200" height="118.75" as="geometry" />
        </mxCell>
        <mxCell id="MF3n9y5MDFoNAGw33dYD-22" value="" style="shape=image;verticalLabelPosition=bottom;labelBackgroundColor=default;verticalAlign=top;aspect=fixed;imageAspect=0;image=data:image/png,iVBORw0KGgoAAAANSUhEUgAABUgAAAD3CAYAAADPJr6lAAAACXBIWXMAAC4jAAAuIwF4pT92AAAgAElEQVR4nO3dDWyd5Z3n/dsvcV6c4KQYesIWbCbMUCpaG3V2mzIRNh0x7fOwTMxoZmiXleyUjlQ98gpn9lkRFkYxGlhAOzsx6pGekaZVbGn7UGZmi720O2VQi82klHbbSVwQlDZpYtomh3AgMYnz4tfV5fxPuOP45bzcL9f/ur4fKYLOtDn3uX18n/v63f///6qam5sLAACISz6bsfmLZqSxO9duwXGkLp/NNAdB0KXw0Icbu3PDFhwHAAAAAKVq+cEBAIAgCExAulvpiSAgBQAAgLfy2UyX5cUO/Y3duX4LjmNJBKQAAAAAAACAXqbYoc3io7e+oKHagmMAAAAAAAAAgFQQkAIAAAAAAADwFgEpAAAAAAAAAG8RkAIAAAAAAADwFgEpAAAAAAAAAG8RkAIAAAAAAADwFgEpAAAAAAAAAG8RkAIAAAAAAADwFgEpAAAAAAAAAG8RkAIAAAAAAADwFgEpAAAAAAAAAG8RkAIAAAAAAADwFgEpAAAAAAAAAG8RkAIAAAAAAADwFgEpAAAAAAAAAG8RkAIAAAAAAADwVi0/egAAAABanXnliaa5yVN3m8OfPT/eFsyc3zT/72eO3zg3dWbNwrc1N31m9cyJQ2vNv1evv2a2eu2V7y/21msamkcL/1697urB+X+pXfvj+lsf3seHBQAAtxCQAgAAALDexEsP9cxNn7l5bvL0DTPjR1rCQWe5Zk8frZ49fXTjYv/z6XdebQv9x4v/fvZfskF1/ebp6nWNp6vXX3Okqm7DkerVDSNVdRueXbd11xifJAAA9CEgBQAAAGAVE4aaatDZU7/aOns231BpEBq12YljtbMTxzYG77zaGgSB+dMRBMGesz/92lxNQ/O4qT41VaeEpgAA6EBACgAAACBV84HomeMdpjJ0+p1XF63o1GBu8lSVOX6pPjV/9pw/9NzZ6g3XHq1Zv3m4et2H/5LAFAAA+xCQAgAAAEjUxL7ee2bP5j8/896b7ZoD0WKY6teZE4e2TAXBliAI7jOBac3GG96s2fCRgfrbHuuz/x0AAOA+AlIAAAAAsTOh6Mz44V3Tx396s2lR9/WMS2A635p/7md/99e1mU/+suaKpr9f3/7kgxYcHgAAXiIgBQAAABALQtHlmZb8qbeGTXXprvM//+YDhKUAAKSDmxQAAAAAkTnzyhNNM6d+3Td9fP9nbdtcyWYLw9JV/+rW0ZpNv/0f6m99eJ/v5wYAgLgRkAIAAAComNloafrkoW4T8nE2K2PC0snDz7cGh5//56lfjZysverm/7H+M3u+pPk9AQBgMwJSAAAAAGUx1aKzZ97+i8mx4U5a6OMhu+Lfd/7gt75Yd137S9VXND1MVSkAANHiJgYAAABASebb6E8eGph8a/g2U+3I2YufOc/nDz7XFgTBP0/nXztU23hzF0EpAADRICAFAAAAUJSJlx/dNnPiF1+Z+s3LLQSj6ZmfVfrW8D/PvPvGr2oamv+6/rbH+nw9FwAARIGAFAAAAMCyTMXo1PED32W+qF0mx757bRAEe6aO/Wj3qn/1e1+u39b7jO/nBACAchCQAgAAAFgUrfQ6yJzSb0y/97PHaL0HAKB0BKQAAAAALnPqhe5nJw8/v51gVI+LrfcnfnGg9sqbOtZt3TXm+zkBAKAYBKQAAAAALpp46aGe84f+139lV3q9Jg8/3zr1m5cPz5z69dCGO7J3+34+AABYCTc9AAAAAOY3YJrO/e+/nzr6wwxnQ7/5Xe/f/IeO6eP7z9Rd2/6f2cgJAIClEZACAAAAnjv1nT8bZs6om2ZOHFp79sShPdMnD3Wvurr192m7BwDgcgSkAAAAgKcm9vXeMzn2wl4TovEZcJuZTzqd+8nh2XMnnlzf/uSDvp8PAADCCEgBAAAAD5mq0fMHn2vjZ+8PUyF87rWBXTPv/axr1TWf3ko1KQAAFxCQAgAAAB6hahRmzux0/nWqSQEAEASkAAAAgCdOvdD97OTh57czaxSFatLZidznaq+8qcOHatJ8NrMxCILWBf/n9iX+6yeDIDiw4P92oLE7dzKmwwPKls9mCp/jxT7jxRou/Pcau3PD/DTgGwJSAOrks5nmIAi6FB76MDcbAIA0nHnliaapoz94hR3qsdDk4edbZ04efGNu+tyO+m29z2g+QaEAtFWCokJoFNkoiXx2/ldoXMLTQoh6xPzhPg9xymczhc92s3y2zWe8JcKX3F34F/mcG2OFz7f8MZ/xk43duYUPDwD1CEgBaNQc/gJXhhtnAECiTEv9+V8M/ffZiWPc+2NRZtzCuYnjT89Njt+x/jN7vqThLEkY2i6BUeGfDQm9fEModN0eOqZAAqUD8meYqlOUI/T5Lny205oX3SR/Cq8/vwaTz/pI+LPe2J07wg8bmtVKKfZSbQU2M180g3z6PiAX0R5bjqcUjd25Xj1Hm4x8NtMjTwW16efL0Q75bKZLwmQsrTmfzdh8/aHqWIEFLZuVtLgVqjOCUGXSEa6pqMTp7+386vmD3/oiLfVYyXzL/etP3zd79r1PXnHnwC22nbAFgVF7xJVzUSoESttDYdKohKXDrGGxFKkQ7bL88x3WFg5u89nMWOFzTmAKjWrl5ltjJZb55ePL5VIdWqvq8tkMoVqI3ADuseaAijdO2G2VrhSfNmvRpOC6SUBqEXmwHG5xi/J3bNG/S6o0RiU8LVRqHOB7EysZ/5+fPzj11vAWThRKYVruT3z9986s3nLXTWnPJZWxSh1yT6MhMFpKi/y5X67pQ/L9Psi13G9yX9Eln/OkKqDjYu6rO+VP4cHAoHzOacmH9WrNB1WS/iZlP64m84XJF8olOiw6llKZY+/Tdcix0vqz5KEFAGfIwjzcvpnm4rywuA63co6FWjiHWXygwMwbnRz77oHpd17V2IkCC8y33L/xzMG56XP/Pum5pHLt7ZH7YW1r1GJtlz97JETqJyz1R2g/hS6HP+NB6N5lt9yz9Ln6Oc9nM3MWHIbtzOfA5sKU2wtziEyocX/KB1MOQjUhFYfbi/ov26mLn+UltAakVLoBUE0qOTqUtLeF2zjNsY/LPV2hKomZdx4y80Ynx17YawIu388FKmNm1p57/etPz02fbV3f/uSDcZ5OWct0SDCquVK0HC3SOWbC0pFQWMo13DFyj9GjfN1erqbQ53xIxrJRXAOrFALSYaUBKaHaBzRXjxotVARfoDzs5ksOgDr5bKZDvke1t7c1hFrb9lKV5B8Tjs4HWswbRUTm55K+NrArmJ28Ko7Nm2TmYk+hJRcXZzr25bMZc1/dy/VbP9kXoNfxatFSzFdQh6pK+3kgABtUBxc2yDEX33GFP5EWKU+Hzo22FtIe8kZF63kY4osNgBamisPMv85nM+a69awszrXP/lqoUJV0OJ/NDJsFmjyEg4NODz/wOOEo4mI2bzr1nT+LrFNIrkfm79tPOLqowgOvwvXbhbWed+RzbgLuvYSjiypUlR4xm6Zyj4K0VYdeX2vlF6HaBS6cB774L9B6HqgeBWA1c+Odz2Z6ZLHyoqOh6FLaZIF2RILhUnfYh8XMTvWmyo9wFHE6f/C5NrPxVyUvsSAwYiPJ4pjz9KI5b1KJCMvJQ9gDBKNFa5BNUwlKkSoXAlLvQzVpDXRhgbedi+E8NmgCgAiZbhMTCgZBcEIqFXxerBSqkvYXqkotOCZUYD4cff3p+ziHSMLUW8NbyglJqaSLRJOMTyEotZTcbwzKQ1jfZulGoRCUHuAzjjRcDEgVD8glVHOritbrimDFYfcI7fUAbCMVHKaF8zAtnItqCy+2uZ/Sh3AUaSglJCUYjUU4KPW+WMgWpvLRBHuebsAUtcJnfJiRikhS9YLXGlJ69n1vsycgdQfVowBQoVAw+iItnEVpCrXf09qmBOEo0rRSSEqLcSKapPV+mLEp6THnXj7ruz0a25OUNpnD2+vH20XaFgakzCFVRp4aunQh9v2JGwEpAJSJYLRi4RlgtLZZjHAUNlgsJKXFOBVtMjalnwdcyTJzzYMgGOazHrvdJoSmmhRxcyUg9TlUcy4cljZz7ygOu0cbu3NHLDgOAJ4KzRglGI1GQ6h90/fODusQjsIm4ZCUFuPUdfKAKxmy6WO/zDWnajQZLcwmRdwuCUhlhqDKNnuPb+BdfN/8LHXpV3rcANzQwYzR2Jj2zWeZAWYPwlHYyISk7+39xE9pMbZCA7Mb4yXndZj7jlQUPt99Hr53JGBhBWlAm70eMmvGxZk+BKS6DCs9bgBuoK0tfhdngNG+mZ7Tww88TjgK21TXb55e+4n7ds5OHL/NdBXxA7JGm1Tb9fh+IqIk6+8D3Huk7n55CMA9CSK1WECqNezwMVRztby8wbeKYMVh91hjd+6ABccBAIjfbllws2tywib29d5z/ufffMCrNw3r1V3/2QNrbrrnhvrbHuuTTkSzNhnnJ2cNU223hyApGtLavZ8qaWuYhwBUSiNSlwWkMktQ49M/70K1IAhcXqD49rPUGnazORMA+KWwa3IfC+5kTLz86LZzr3/96bnJU1U+vF/Yr6puw9yamzufuOLOgVvWbd01VjhgeWjeTkhqnTaZTcrDrTJJOLpX5cG7rTCXtNX3E4FoLFZBGiieKehNqCZPSlwu7fftC1zr+2X+KAD46X4WJfE788oTTZOH//GfCEdhi5pNW86uubnztvXtTz642CFJSEpbt30a5OFWr+8nolSEo9ZrkEpS7kdQsaUCUq1VYT6Faq6HwU2+XOQUh9201wOA30w16X4W3PGZOvqDV2ZOHFrr6vuDLquuaz+06d7vr6u/9eF9yx14Y3fOPEB/hB+vlXbTcl88wlE1CEkRiUUDUsVt9t6Eag7PHw3z4T0GbM4EAFCOBXcM3v925/6poz/MOPfGoNKaj33haw1/+I0bij32xu6ceXAywE/bSm10AKyMcFQdQlJUbKkK0kBx+OF8qOZBe32BLyMTmD8KANCOBXeETn9v51cnDz/PuUTqzLzRta1f/vz6z+z5UhnH0sPO9tZqkjDJx42OVyTfZX2WHyYuZ0LSfh7YolzLBaTMIbWXL6MEnK8IVhx2jzd25whIAQBhhZZ7XzpAYjG/Y/3Bb33RwbcGZebnjX7s3i/Ub+t9ppwjl53tO9i0yVomTHqWa/alZH02zG71arVI+E9IipItGZDKbMExhafUhzZ7n570uR4Ga31/hKMAgKXsNbvcc3ZKN78p09gLe9mUCWkz4ejqLXfdVG44WiCj2wjg7MY1W0ioNkg4ql4LFcAox3IVpAGbNdlHLtrbXX1/i3D9hkpr2E1ACgBYzv35bIY2txJNHT/wXTZlQtpWXfOpnAlH123dFUmxjHQdPcUP1mrz12zfT4KEaj6MsvNBZz6b6fH9JKA0rgakLodqvs2JaZE2B+doDrtprwcAFKGTNrfinR5+4PGpt4a3aDleuMnsVN/wR0ObowpHCxq7c8wjtV+nzyGpzGPttOBQEJ09zEZHKZYNSBu7c8NKZ8Y4G6p5GJAGDr9nre9ryIJjAADowCywIky8/Oi28z//5gPWHyicNh+OlrBTfRm6mEdqPS9DUskOqKB1E90sKNpKFaSB4ipSV0M1n9rrCwhI7UL1KACgFISkK5j61chzzB1FmhIIRwt7XPTyg7aejyFpP3NHndXCdQfFIiBVRMr+fdTm6KJKa9hNQAoAKBUh6RJOvdD97PQ7r3JekJokwtGCxu6cmfE4wk/bet6EpLLGbrPgUBAfM2PX9c2fEYEVA1KZNaixFcLFUM3XgDRw7b0rDruHGrtzJy04DgCAPoSkC5jW+snDz/vYHQRLmN3qkwpHQ2i118H5kFS+j2it9wO72mNFxVSQBlSRWoOA1B1a38+wBccAANCLkDSE1nqkyYSjZrf6pA+hsTt3hJZXNUxI6vIGyD201nvD7FPDdQfLKjYg1RqKOBOqScWhzxfv7Y4tppg/CgDwFSGp2bX+ezu/Sms90lJdv3nahKNR71ZfLFrtVdnrYkgqGzP1WHAoSE6P7/ceWJ7rFaQuhWrMzHAk8FYcdo/KE38AACrldUh65pUnms4f/NYXLTgUeKiqbsPc6t/e/u/TCkdDCKf06MtnM62Ovadeqke900D1OpZTVEAqMweHlJ5JV6pIfW6vL3AlJNb6PpjPAwCIUouvM8Gmjh/4Lq31SMvq3/mjJ+u39T6T9g9AdrV/JO3jQFEaXHqoJdWjnRYcCpJ3v/z8gcsUW0EaKK4iVR+qydO6JgsOJW2E3emivR4AEDUz386rkHTipYd6pt4a3mLBocBDq2/848H17U8+aNE7N7//aVeyojgNDu1H4PJcVayMKlIsyoeA1IVQjQv4BQ2Kd3+fpzjspr0eABCX+x3fBOQSU8d+tNuiw4FHVl3zqdyGO7J32/SOpVORsEKPFu0720sVLOMd/NZJFSkWU3RAKl9eowrPovpQjfb6S2g/F1oXgOxeDwCI014H59tdho2ZkBazKdOqaz691cYfQGN3rp8Nm1TRvrO975sf4wKK0HCZ2hJPifny2qPwNHZorYCVJxu013+AsDsdzB8FAMRt0ISk8lDeSZNjw8y8Qyos2ZRpOaaK9MUEXmc8CAIz+/Sk/LNgYTGAeZARfmhTGNvWlsAxamA2bTogc2S18b161FwHjsjn2+eg2Oxo3+fyPQdKV2pAOqg4INWK6tFLNcjiSd2XseKwe0zpzQ8AQJcmudd0ZVPGS5x6ofvZ2Yljpd57AxUzc0dt2JRpOY3dObMB0EjEAeS4BJ8HCv8sMQxZtMBGWrRb5VpV+KdvQVODFFCoqvyX9ViLBYcSt7HQZ//ASp996eBolp9nhyfnqEHeK4VAuKikmzQzgzCfzYwq/IVRG6pR+r2oLqVP/ticCQCA5bXls5nexu6cUzMJz7zyRNPk4ee3W3Ao8EztVR8/advc0WWYe/zDFf4dI3LvOhzX2k+CpuFw1akETO3yHnwIlwKZR6rteu1y8dGYhH39pe4dIb8rB+R3p1ceAnTI59nlqukeAlKElbJJU4HWsERd0OjRE65Saf1i0xp2E5ACAJK027V5pDMnDw3MTZ6qsuBQ4JGqug1zq65tu0vLO5ZQZ6CM/6kp4NkRBMGmxu5ce2N3ri/pwhjzevK65tp1fRAEO5Xu31EqbddrF4uPTDC6o7E712zC6ig21jUPAcxsYPP7JJ/ncn4vNWhhsyaE+RSQagzVaK9fXJO2hZPisHvctDxZcBwAAL8MSgWLevPVo28N38bnF0mru/6zQ/W3PrxP2YkvthrRtM8/ZcIbE0pKmGPFLEETUIXC0lskXBq34NDioqICz8HiI/OZ2inBaGw/A/k8dzkclPo+kxYhJQek8jTO5gHfS1EXqhGQLkvbuaG9HgCA4jWVEJRYjepRpEFZa/1FRVSRmnXoI2ZeYmN3rieKark4SWVpl8x3fMTRoHS+1d6C41iJS/OtTXWyeTDQl9QLhoLS25XmQUshc8FF5VSQBlSRxk+qJtglcWkEpMkgIAUApOX+fDajfkFL9SiSpq21fhGLhW0mWHwk1EasaudpaVnudTgo3a2gVdmVgNSEo+1pPRyQ7sJWh6pJNRbSISbl7qRpSrjvV/hD6VBUjcCTjOXNzwux/alxoDvsNu31BKS69Yc3EEjAboVna8zy1jBGXMB3/bLRpqowpOD093Z+lepRJK3uuvaXFLbWXyQbA4d3tDeBYp/W60CYvAezCU6frEs1rqmX0m95COlCQFoIR1P9XZDX78pnM+Y+dW+axxKRDtmkCp4rKyA1rQL5bGZM2p80UROqEZAWxZyjxNoKKjxOjQhmlItzHtFi8tmMxoD0iGu7ZcMq46Eb7pOL3HybioXCnM1mhfdVSWiS+WAqf08nx4Y7LTgMeKS6fvP0hs/9rfogqPqKa/+/2dO5NcHs1OeVrN1KIgFTTz6b6Zf1jAudg235bKbDxgILKVjR/h07ZkM4GmbWGvls5qSE4w22HFcZoiikG0nweDcqnadrPsM2X89PlltBGkh4ovGmz/pQTS7g2y04FNt1EZDGiupRACjeiASg83/K3UFZ2ryaJTxtl39qXnREwbRuDia9K3WlTg8/8PjsxLFK7rWBktVd/wd/pf2szVdenzv5xbqmz4xeceeAc+FomFzX2vPZTOFBkPbrfZ+lawgXWqg7bKyiNoG4jMMZVvz5NYV0Gys5v7LjfyLkfL+Y1OtFqN/2wpRKbtoGlQakGkI1lwZIx8n6imDlYTcBKQAsbUyuk8NRVsvIYvlA+BosoWmH/HFpB95S9Gm7P5p++1++bMFhwCNmY6b17U8+qPUdn3nliaapoz94ZeroDzPmP0/95uUW839bt3WXSxvCLMpstiPtyv3Kr/NmnmOvhSGI9vX1UzY/JJQO4x7l7fbtrH9R7iZNgSwGNA6XblEwQJr2+uLZ/mWn9ct4yIU5TwAQsXHZlOB22SikJ4lWQtkF2Sw4TVB6vVkoObaDbDHmWzftP8wLJl5+dNv0O69uLOa/C0Rl1eZ/84jWkzmxr/eec288c7AQjhpmfu/smbf/It0jS45c61vlGq9ZjxSJ2MT29f9KrB8zI6O9dlpwKOWiSA3lB6RCa8Ju+4efgLR4tp8r2usBQL8xuek3oWiX7OCaCtM1IcGsWeztSHjmVdo0jNWZN3PiF1+x4DDgkVXXfCpXf9tjan5HwkxL/bnXv/70YiMppo796N+lenApMNd4ub5r3em+QWZH20RzQDqgpXDFVEKbQhsLDqUcBKTwNiC1NrSS6gjfZ42VYruFTyjDCEgBQC8TjO6QalHrdlA21Roy8+p2T4LS+dZNC45jRaY12PJDhGNqM//6TzS+o/e/3bn/3OtP32eqRRf7/8+cOLTWVJcmf2Tpkmq8dsUhqW1VpJor+rWty7q0dhpbcAxIWaUBqdZdrm0O1ageLZ2V50xx2D1Kez0Az5kbe9Oq2iqLVKuZilYJSnd40HpvY+vmJeY3mFki7AHisOq69kP1tz68T9vJHf+fnz84efj5FTfPmX7vZ48lc0R2KWzgZO7NFR6+bVWkWsOv8SRG+URJ1pEqHmYuJJsfwWMVBaTy4ddaQm1rEElAWjp+ltGyPgwAgBiNSDDaq+1hkYS5LsyvW46NrZuXmDn5yzstOhx4oPZDH31I27s04ejUW8NbivnvTud+8lvxH5GdlIek1j/QUsDajZmWI632Gh/YrvjABm6rtII0oM0+OrJLLe31pbP1SY/WJ1C01wPwkaka3WkqMc2cT63v34S6Mr/udoerSa1ddF/YhfuDTWaAuJmd6+u39T6j6USXEo4GslnT6eEHHo/3qOwlD+s0hqTWP9BSQGvHbqC0ilT7Zl6okM8BqY3hVZcFx6BRg20720rY3WTBoZRqVHMwAABlMovOdql4cIJsJNWquNNnOdYuumdOHPQ2xEE6tO1cX2o4WjDz3s+8XicpDklZ3/pLY05EBannKg5I5WKtcWMA60I12usrYtu503ozQPUoAN+MSDiqso1tOVJN2iHzVF1jZUA6/d4b3MshMdX1m6c17VxfbjhqmMpsU6Ed/VHpEQpJNW2AYzbXIyT1kNJxjFSQeq42ordvQpU2haeyw5ZASHHFoS0Iu6NBQArAJwON3TnnF25mnmo+mzHdAXstOJyomAfdXTZtojXx8qPbzI7bFhwKPFHX1D6g5Z2eeqH72XLD0YLZM2//RRAEX4r0wJQxoZNsJDOsaDRbD3sc+Eke0gJqRNFiHzCHNBJcPCrTYMuuc4rD7jEXK6gAYAlehKMFEiTusONoImPVfLPZidx/tOAw4Imqug1z1es+/Jca3q2ZH3r+zX+oeK3DBmgXyP26pu+vFlkfoXRscgUkKJKAVGYWatxZz5pQjYA0EracQ6pHAcBuXoWjBQ6GpE0W3ccFs6d+tdWCw4AnajOf/OW6rbus34htYl/vPed//s0Hovi7pvOvfziKv8cFjd25QWXjU9isqTxaN/0FVIqqgjRQXDafepiVz2bMrIuWtI/DAQSklaH1BYAPvAxHCxwMSa1YdLN7PZJW+6GPPqThpE+OvbDX7EIfxd/l+272C5nxKYr2AqEYqDwtkhUASECUASlt9rqPwQVNabdvKA67x2mvB+CBIZ/D0QIJSXfacTQV227D4nH23Ikvp30M8Mf85kzbep+x/Q2//+3O/VHP5Z2dyH0uyr/PAR1KNm1qYLOmsqnZiA3QLrKAVNrsrW/zWETqoZriHc9tlPa5pL0eAOw0yvftBxq7c2bBpWaDlxWk/t078/7Yn6R9DPDHqo/83rdsf7MTLz3UM3n4+cjXWNPHf3pz1H+nZrJTuJbvtjSv1RrHARZsJ1wGkhFlBWmgOGRJ7YKTz2Y20l4fqbQXSVq/vAhIAbjMVNd0yUISQqppNS8aC1Jvs595902NmzNCqer6zH+z+cjNyInzh/7Xf43j756dOFY78fKj2+L4u7WSeaRDCg5/u6x906D9+7+Pja6A+EUdkDKHVNdru6gprVY7xWH3uNxYAYCrehgjsiQt7ZnLSbUbyIQ1JrRJ6/Xhl5pNW87W3/rwPpvf9MzJQwNx/k7MnXuXarrLdSm5lqe19tUekDYEQTCcz2bIDoAYRRqQyuJDa5t9WvOruMhFL61zSns9ANhnSGZuYhEyIqnXgXOTWmBCWIMk1V59y/M2n3DzwOD8wefa4nyNmdPH2Nl7AemQ0HAtT2u95MJDUhOSPpvPZlz4zgasFHUFacBmTcWTisPtSb+uB9JaqBCQAoBdxpk7ujKZR6plJ+SlpPYdTFiDJFWvbfyGzSd8Ove//z7u12CkxeLkWm57sVJa10uXukh257OZA/lshu8eIGJxBKTDSn9IaSygqB6NR0vSFcHKw26tv7MAsJJe5o4WTXuQnFqbPWENkmL77vVmY6apoz/MxP06zCFdVuozmVfQkFKwdySF14yTGev2Yj6b6U+xExZwTuQBqcwy1DjLKvv3PE0AACAASURBVPFQjYA0VkmfW60/yyHCAwCOGpVqGhRBWu0fUX6uEg95zWY0zB9FUmquvNHq6sCpYz/andRrzU2eujOp19JE1uK2dwQkvm5yeA55ZxAEhyUopaIUqFAcFaQBbfZF4yIWn6TPrdafJe31AFxlexWNjfqUb9iU+Hfx3OSpu5N+Tfir5oqm2NvXy2WqR6ffeTWxHcpnJ3KfS+q1FLL94WBa6ybto2SW0ykVpab1vku6GwGUiID0UoldrGUHuoakXs9D2xP+YmD+KADYY6SxO8f4kBJJR4HmqtvEu4FmzxynGwiJqV6z6W9sPdvT+dceSPL1Zk8fpa14CVJFanO1cUtKAZ4P9wWm9X6vGSkgVaV8RwEliCUgVdxmn2SoxsUqfomcY8Vh9wjt9QAcxQ6v5aOKtASzZ47fmOTrwV81m7acXbd1l5Whl5kHmsTs0bAkq1WVsv17MI0qUp8KQxqkqtTsen+SsBQoTlwVpIHiJzRJXTi4QMWPn+XyqB4F4KJRqkfL50AVaaKL7pnxtxqTfD34q2bjDW/a+uZnTvziK2m8Lhs1Lcv2gqXEN9WTOaSaHwCWKxyWzuWzmUFpw6cKG1ggzoCUOaRLkAHKtNfHL6mKYAJSALAHGzNVrl/xsSdbQcoGTUhI9doP/cTWcz31m5db0nhdNmpamjzssvleP605pKx/gmC7tOEflpmlfWzwBFxAQHq57Qm8BtWjyYn1Yq847B6VHYsBwCXjjd05zeGeFeT7YUjp4TclVRVjNqVJ4nUAo6qu4QUbT8Tp4Qcen5s8VZXGa8+de+/TabyuIjY/MGxL6XW5R7iUebhxv2zwdJLqUvgutoBUnlqpvLlOYD4HAWly+FkujpsDAC7i2hYdqkhXMDd95uYkXgcw6rf1PmPjiZh5f+xP0nptZgAvT1rKrd2sKZ/NpNFmP2z5BlZpalhQXXpEqks72BUfvoizgjSgzf5y8kXQFNffHyOtXyQEpItjPh8AFxGQRkTxhptBUrPt5iZP35DE6wC1V33c2k01p3M/+a20Xntu6syatF5bEZvX42lVKTKKpzhNUl36bBAEJ/LZzHA+m+lJI9gGkhJ3QMpGTZfrivHvjpP5ch1VeNwNcVUEaw675YkyALiEa1v0tD7oTmTxRvUaklK9/horxyKl2V4fsJN9sWx+cJhW0Nbv6WZNlTJjEfYEQbA/tDN+F9WlcEmsAanMsCJUu5TWAcj9iitz4vpZag67AcA1XNuip/WcJjLbjuo1JKWqboOVAensRO5zFhwGlmH5zu2pBKQyCpCOk8oUdsbfu6C6lNmlUC3uCtKAUO0DcsFIZZfHChWqcrQulOIKpTWH3QDgGkaHREza7FVKogVwZvyIxk0aoVD16oYRG4965uTB1Kuo2SytKLZ+P6YZpvVSRRqpQnVpeHYprfhQJ4mAlFDtA1rnVc7/DBVXBDdFfYF2IOwGAKdoDvMsZ2UwU4TYF95pthbDM7Vrf2zbGz7zyhNNMycOrbXgULAyWwPS1NZSUkXKLNJ4FGaX7icshTaxB6SEapfQ2pI9vMS/axL1uVcddgOAY7SGeBpo/d6PdTE28fKj2+L8+4Gw+lsf3mfbCZmbPHW3BYcRzJ4fT2SkhnLWXsdTnl/ZRxVp7BYLS2nDh7WSqCANFN9cRxaqKa44HF9QlcPIhAtcCLsBwBVc2+Kj9dzGuwCbPvu7sf79gKiu3zxt47mYPXPcjmKBmfObLDgKq1nePZZaZaFUkWpd02lUCEtNG/4BNniCjZIKSAnVHKk4lC/YsfQOp2yRVQQ7FHYDgCsYHRKTxu4cASmQoup1jadtPP+zZ46nPn8UJaHTYhGyNhqy7sDc1yIbPB2R3fBpwYcVEglICdXmad3QZ7FAzfe5srTXA4BdCEjjpfEeLtaAlLZe+G72bN6KTcpmxo9oLFpIwxFLj8uGNXIXrfapKeyGv79QVerpeYAlkqogDXwO1aR0fHs0h5OsJSoOtVYER3XBdSnsBgD1ZN454qMxgG6K9W+nrRcJqWlotnIvBzZoUofvySVIq73WAhiXzFeVyqzSXtrvkYYkA1KfQzWtF9xF2w2kIljjU7aWSodCOxh2A4B2tA3GT2WFLosrIB5mB3tOrToEpMuQcTKPWHuAfjHXl93Sfk9QikQlFpD6HKo52pKtNWyr9GfhVNgNAA44yQ8xdloX1sw0A2Jgyw72KImt13FrrtON3bneIAgGLDgUXNBAUIqkJVlBGngcqqmsOHQ0IK20Ipj5owBgF+aPxo/KIwBWmhk/YsUsVJTNqtCrsTtn1opWjrXwWDgoZUYpYkVAWpyyQ7F8NqO24lDmsSxK2rW1VgRX8kXsYtgNAABKwMYwSEr1uqutu4ebm53+sAWHMW9u8lSVBYdhPWkhR3HaCUmt1CAzSs1mTlr3BIHlEg1IFYdqbRWEaloD0mK+RL0KvF0NuwEAWI7ihTUt9kAM5s6992nOK1wl6yZCUnuZB5Qv5rOZPtruEbWkK0gDD6tIXW7J1rpg8u1nyRNjAICPWDgBAEoWCknZCNJe90vbvdY1OiyURkDqTagmv6wa5+KMNnbnipk3pjXs3l7m0ybmjwIAAACA40xI2tida2fjJquZrOVZqkkRFSpIi1dOqKZ1NkZ/Mf8lebKmdXf0ksJOD8JuAAAAAECIbNy0k3NiNVNNOpzPZhitg4okHpD6FKp5UnGoNfAuNbx2OuwGAAAAAFyusTvXFwTB7Ur3U/FFi4SktNyjbGlUkAY+hGry9KIp3sOJRakVh77MlKW9HgAAAAA8JBsWNjOX1GqFlvte308EykNAWppSQrIuGw64DCXNiJWKYI07/DUU+3TJo7AbAAAUoWrVunOcJ/iqas2HfsAPHz4KzSXdSTWp1Xbnsxk6KVGyVAJSH0I1xRWH5VxItF58iv0ZeRF2AwCA4lSvu/pNThWSMHvmuHVriqrq2rctOIx5VXUb5iw4DOvlsxmt48KsJC33rVSTWq2TkBSlSquCNHA5VFNccTjW2J07UMb/zvWKYJ/CbgAAAECFmoZmqvh0U9vtZjr1pJr0brOOtuCQcDlCUpQkzYDU5VBN6xO6sn4m0sattSJ42Z3uPAy7AQAAgCVV1W14lrOjTrOlB6x+HFhjd25Qqkkfoe3eSoSkKFpqAanLoZriluxKQmutF52VflZehd0AADjkJD9MaDc3M9lg21tYt3UX1XL62BqQOkFmk/bKeR7w/XxYiJAURUmzgjRwMVTLZzPmotiS7OFEYlx25iuX1nmXK1UE+xh2AwBwUREPhm0VWydFVd36g3xCkITZ00etDLZqr/o4DyB0sfU67tTnSIJSs368nqDUOiYk1bq2R0LSDkhdDNW0zqusKFCTdm6NT5Obllr4eRx2AwAQtpGzcamq2nWv2XQ8QNKqVq07Z8NJr2lo1tiRmAZbK0idHAkm80lNGLeJ1nur7GXDMiwn1YDUxVDN14A0wr8jDUs9SfL5ZwkAWmitbtSE1kwgJTPjR6xrsTeq1139pgWHgeJpLPpQb0Hr/Q42c7LCYD6b4cEvFpV2BWmgOMy5LFSTX7S2dA6nIuMyXLpSWkcmLPUUiYAUAOzHTW78tAak8VUm1a79cWx/NxAyN3mqysbzUb3uajvuN2tWn7DgKKxmecWcF5vKSlDa39idM9+nt9N+n6oGxbkFYmZDQOpSqOZ1oKa4IrhF2ukvIuwGADU0Xqu1UVmlaxakcf3d9bc+vC+uvxtYaGJf7z22nZT62x7rs+AwgurVDSMWHIbtrL2Gx3mdtpUZhRZqv9+hdONq7bYzjxSLST0gdSlUUxyQRjmv0pW5svwsAUCJRb6PES2N5zf2e8uqug1zcb8GMG92arONJ6Jm05azFhwGVmZrBanX4XaoqrRVNnXaSQt+ovpotcdCNlSQBi6EavLLtT3dwylblBWHroxMoL0eAPRgDmm8NM6uOxL3C9Q0NLPpBhIxe+a4lfelNRtvSH0OqS2VrJazNSD1rnp0KbKpU5+04N8SBMFTVJbGzrTac/3AJWwJSF0I1bTuhjYUZWuDtHdrXDBcrAgm7AYAdQhIY6J4t9fYA1JbdvGG+2YnT33ExjdZs+Ejqc5RpIp7ZXINt3KjL1/mj5bKdNg2dud6FlSWEpbGo5MuJIRZEZC6EKpRcRj735mEwiKQsBsAdNF63daAgHQJ7OKNpMydffdKG0+2qd5MM6SkirsoNq9RCUhXEKosbQ3NLB1Qmp3Yig2bcJEtFaSB4sq3wsKBgDTevzMJhZ8hP0sA0IWNmuKjNSCNfeFdVbf+YNyvARjT77xq7Zy82swnf5nWa1etvfLdtF5bEQJSR4RmlnY1duc2Siv+I1SXVqwtn83QiYR5BKSV68hnMx0Wty4sZzSmikOtM2W3S3s9ASkAKKO4Fdx2WsPn+Fvsa9e9FvdrAAU27mRv1G7ckk3rtavrNvw6rdfWQL4Xmyw91HFTHWnBcaglrfi9oerSu6W6lI2eStej7YARD5sCUrWh2iIb/GgRSzm5hK5Dis8JYTcA6KP14Za15AGwSmbhGPdxszkMkjQ3OX6HjSfc/B5U12+eTuO1q9ddTXHA8mxeo1I9GiGpLh2U6tJmmV26Q9bktOOvjFmkmGdNQKo8VGNDn2T/7jhp/VkyOwWA7whIo6f1nI4k9UJpBUPwz8zpY9ZWya/a/LvfT+WFa9f+OJXXVUBBV5zW4igVZHapacfvCLXj70zy+1EhrUVviJBNFaQBLcKJGo25rYGfZbI43wB818QMqchpDUgTq0yqabgun9RrwW8z775pa6t0UH1F08NJv6bZHKr+1of3Jf26inRZ3hVHQJogacc3mz21N3bnqqQd/yna8S9BQAoCUo/Feq6VVwRrE3fYDQBacHMbEcXz1YMkA1J2skdSZieO1U68/Og2G0+4CSpXXdd+KMnXZAf7Fdk+U5EW+xRJO35PqB1/J2t3HrTDsoCUUC1RSYTRPBlMBg8WAOACAtLoaB5ZkNj9BzMQkaS5c+9ae42rbbw50WOraWhm5+4l5LOZLos3ZwrYO8Eu0o5vqks7Fmz25ONDCO4jPWdbBWlAqJaIsSQ2LyC4SwznGQAuaJCFISogGxV0Kj2Hie6MXFW34dmkXguweQ5p0lWkVWs+9IOkXkuhXssPmbWLpRZs9rQxFJb6gnn2nrMxIOWCGb9EzrEsUHi6G6+kwm4A0IKAtHKaz2GiD9rXbd01VrNpy9kkXxP+snkOaZBwFensRO7ppF5LEwXVowEFUXoUwlKpLN3hwdq+id3s/WZdQEqologkdzxnd/V48UABAC7Vls9mrK2ysp3sfGz77LrlJP69WL3uw8wBRyLm55Du673H1rOdVBVpdf3m6SvuHPhp3K+jjVy/ba8eNVX+BKTKSGWp2RXfzOi83fHd8LmH9JiNFaQBoVqskq44JMCLF78rAHA52xeINutRvDlTkEZlUk1D08tJvyb8NTN+eJfNb95UkZod5uN8jZorb2Tn7cX1KKgeZW2onAm4zW74QRDc4mhQSkDqMVsDUi6c8Ul04SAVwdzExGOc9noAWBRVpGVwoHp0LMn5owVVa67kYSUSM3Py4I02n21TRVp3XftLcb5GzfrNVCAuIG3BGq7frPMdYdahEpTe7th6n53sPWZlQEqoFqs0vpT4IowH5xWoHHOG3EUVaem0V4+m8r1oAiHmkCIpMycOrZ14+dFtNp/wDZ/72/Y4fyd4KLGofgXXb1PcwfrFMTIyodWhzZxaLDgGpMTWCtKA8CcWaX0pcRMTD35HgMrZ3oqG8rWxo33xpPpot5bjXUJq9xs1G294M63Xhn9mTvziK7a/6bqmO3bE8fea4NU8lIjj79Yqn82Yh1ttCg6ftYujZEZpl2zkpB5dSP6yOSAlVIteKl9K0gZORXC0eAILACvrk7ZxrEz7fVfSM9YvUV2f+U5arw3/TB//6c22v+n6bb3PrL7hrsjnE/Iw4lLycEtLxwRrF8eZjZwcCUm5d4yH9cGztQEpoVos0vxS4gsxWpxPICL5bIZZQ+5q4IHryhRVHy0n1e/F9e1PPpjm68Mv87vZv/SQ9fMmTat97VUfPxnl31mz4SOutPFGZVDJaBSKOzwhIelTyt8tawNP2VxBGhACRS7NgeYMU48WvxtAdJhD6rbt+Wymw/eTsBRl1UfLST0IX3XNp3JpHwP8MX3yULeGN1vX9PutUe1qb/6e+tse64vi73JBPpvpVzQvkYeVHmnszvVQ7IZFWF+Za3tASqgWnSEzGyStF5cnhuNpvb6D+N0AosNTYvf1SxCIy2mpPlpOqu31BTUbf+vbaR8D/DH11vCWM688Yf0c7XVbd42t+di9X4ji76rNfPKXUfw9LpAZ252K3grBtn80P3xlBmk8rH+gY3VASqgWKRsqDql6jEaqYTewDK3Xa26C3GcCwEHmkV5KWfXRcqyoTKpe9+G/tOAw4JGZU79WETqZeaRrPvaFr1X699Rc0fT30RyRbjIaaK+iNzHS2J07YsFxIFms/XEZ20eb1VpwDCsZVPZ0zFa2BKT8LCvHlw1sdUDpHEPtsxdRnBapYGFne53VR8uxIiA1lXJTR3+Qmzr6w4wFhwMPTP36+/9Wy7tc/5k9X5qbPH3D+YPPlfWda9rrmfV7MVzQ1kmWaJAvHSOHk3zNCOxs7M45VWVrCnry2cwI99lYoFXWjFayvcU+IAyKxIgNFYdUBEeG3wkgYsyo9EanVE16TcJRTdVHyxmyqTKJNnskyWzWdHr4gce1nHSzadOq69oPlfO/pb3+knBU01iUsaQ3Z1JarerquCetlcO2j2WyNmAsgtWde9YHpIRqkbApUGN2ZmWsCLuBJWj+bBKQ+sPrkDSfzbQ7FI4Gtm38QZs9kjb99r98WdNJb/jDb9xQTkjqe3u90nA0SHEOpbb8wNVxT1oDUqvnOyvPA6xec2moIA0I1SpmU0BK9WNlOH+wmeanmZ3Mp/SKlyGpVI669D2SeGXSSkybfbkVckA5pt95dePESw/1aDp5pYak1fWbp31ur1ccjo6n+J2j7Z60ydHNJNkIFQs12Ny5pyUgJRQq36hlbQb8LCvD+QPio2qBiYp5FZKG2uq171gfZuUOub5XuiF5U8d+tFvbaTchad31ny0qxKq9+hOvxX9EdlIcjhp9KVa6aaxcdLGbieKD+IwqPnYC0goRCpXPqsWffEkOWXAoGtkWdgMLaa/276GK1DsmJHV+d/t8NtPrWFt9kHJl0rJMpZupeLPx2OAmjVWkxhV3DtxSzO72NZt++z8kc0R2kSorreHoeNKbMy2gcc3k4iaSbNAUH81t9p22VkyrCEgJ1Spi4+KBwLs83m8sAutpn4/bkPLNPNKx3SxApUrHKSb4NQFwEATqqsuKkGZl0opWbf7d79t6bHCTxirSQHa3X/uJ+3aaXeoX+//XXvXxk/W3Prwv+SNLlzzYelZx1X/a12iNY59aXLoXUf5eNMyw1TzaLLC1C0hLBWlAqFaWMUsrDpkpWx5+B2C1xu6c9i/qQJ5oujooH0trkZDUmTEL8jk+IAGwa9KuTFpR9RVNDzt31mE1rVWkRv1tj/WtubnztppNW84u/P/VXnXz/0jnqNLhyIMtG67RWu9JXRr3pLkiVsPnR3thSqeNIbqmgJRQrXRWBmoS2mqemZEGW8NuYCEXfredb7nGokyVzp58NjOseaMEWVybhemLtu/CWgGrq0cNU/HGZk1I2uSvhv+L1pNufmc23fv9deG5pPObM31mz5fSPbLkOPRgqyfta7Ssm7TtZB/Y3HpcBhdHBtjEhXzMuofdagJSQrWy2NySTbt4aagehRYuBPkNUk1ISOonMy/rgLQ3qiLz6szi+n6Hf3LWV48W1G7ckrXjSOCLmROH1p7+3s6van67Zi6pabk34agvoyoce7BlijpsWedprSJVv06WjSFd2hTSRtorSI022+63NVWQBoRqJRmzvN2VwK80fPahhQtt9oG0XDOP1F/mpn53Pps5Ijf5VjNVR6byVebVuVo1WmB99WiBaRterGUYiNP5g9/64plXnlB9HTC/O0Ew9/+c/+U/Xu362JtQ1agrD7Zs+s7UWmHXJg88VZICA3UPmRew/rPjyGizQO63rfm8awtICdWKZ/W5oiK4JLaH3UCYS+NQTJvTASpJvWZChr2FoNS2z4K5oZRg9EVPdoo134eqFl2rNv+b/9+Cw4BH5iZPVU2/+4b6NdPsRO7eYHb6JnN9y2cz/Q61Hc8z70dmjbo0DmWosTtn032g5vWT5s98rwOfaS3VmSMWHEMU+m2ZR6oqICVUK4mGkIK5ssXhwQDUsOzGOAotru5wjpLMB6VmhIQs1FP7PMiiuteEtlIx6kMwWqCuIsXMTzStwhYcCjwyefj51ol9vfdofcdSVRm+tnUGQXBYrn2qH1rKNdx0hh12bBO9cQs3GNJ8T9qgcSa+VAK6UA2tJVx3pYiqwZb1lrYK0oBQrSjjjd05DaEabePF4TMPbVx7kGVC0v0aZ1Iicg2yUN8vVaV9SbR/mhtGs8O+qWiWRfVuD1rpFxqxaK5dSeqa2gcUHS4cMTn2wl7F72Sp79vdoQdVqqrrFgSjnRYcUtR6bdtQVsaxaL4nVTXuScItV9b3WvZUcKnLtEHur1Md01E1NzeX5uuXTH7x9qs66OQNNHbnVOwaJxUwvi3ySmHCbtp7F5BA4kWrDqo4j2hrDy2HbDTg6iYxY7IIcO4Bj+LfK1uMyAMtc7N6pNzRKLLoN3/Mz6NV/slGB0Fwi+ZxM+/tvWVqduJYrQWHAo+svvGPBzfckb1b0zsu8btoSOYSW1tMIBV1XY5Viy5kHmBZOStWHm7vtuBQKmH92l4ymmFH7lfUrL/lnvGwBYcSNXNt70pj5ry6GzVzc5zPZsYI1ZalqSV70PHdditFez00cvn3ujCTslee6g9GXTEhN5kbHRxX4Lq2cEtoPpsJJFAvfD4OLDHTqrCo3CjVIrjcU9pncZsq0nOvP32fBYcCj0wefn67abWv39b7jKJ3XcqDZBM6bpe1obn36LfhWiHf4ybQ6vBkzWpba33YoAMBaae02qcSGK3EsXA00NS9adYgjmZj26VbwBSlJFpFra6CNHC/Oqlijd25Ki3HSkXwiu5WMi4hUVSQ2i+fzZz0qOptVG7A56sHy7l5lc90qywymtL4rFBBCkuZG/9WLTvXL4cqUqShZtOWs5vu/f46DSc/ou+hQlg6nNQ9tIRX7fLHl1C0YGfSAUapHOpYHJWQ1JoHhtIO3efYPb/1n+kwGd3h4tiOgjEZ3dAXx71gYc5v4e/WepPWT0C6pCFLj2tRUhE8Tvvg4ghHodiw4+1kYS3yZ75CQZ7kHpFqwaVuYgtVg810RADLsrJiphxUkSINMycOrT31nT8b3vC5v7WyBXqBKB4MNsk68X6p5B+R7+LC+JOKq8MkyG0OjUHxtfp/REmQNOxIgFTYODTxqrqFJFTqd/ReX1sH16DjAWmTrLF257OZodADsIo6+OQ6Xqj07yj83FUGpIRqy9IYqLn+S10uVWE3sMCgRwHpQk2h0NPXcwBE4SmXRk2YHe0nx4Y7qSJF0s4ffK6t+qWHeupve8zaMEtmdbYV8V8t1UrjT1a6xmyUIDSQf7L+vGBcQgUNXKqwM5+/PfL70pvGd6SjVaMF4wpH+vg0kmt7YW0VKkgpvP/lzkNhvn/her7ktVzzDRqh2uIISN1B9Sg0M59fzTvoAkjXWETVZFZZveX//k9nf/q1PXy2kLRzP/u7v66q2/Dsuq27xiw9+UmGt+EHmXGEsj7o0FLdb0JEB+c0ms/ti/lsZiSJoFQqRjvke9nlzid162/zeyiVlb4VZRSu44VreCSzhquj+EtSQnh0uSGNbWjSRj5uwaHYhs841JJrEVXQAMrlTGt9mKngq73q4869L9hvbvJU1eTYd62sjMpnMz2Mm1HlEYXV/f0WHEMcCkHp/IY2sr9HZEylqsy4PCKFD67/nmpdf5MbRERtBakJ1Wizv4zmXwyqSC+lMuwGFnB1NhGAeGlcfBdt1bVtd02/8+o/KzlcOGT6nVc3vv/tzv1X3Dlwiy3vSirTvNjA0hEjSjcc7XdgN/vlhOc0jhU2Di38KWZdmc9mCm3I7aH5uj5lLeOK9/+gcy8i2mcgEapdSvNiwpXh2VHhKRDUkwdZrrU0AYiX1sV30epvfXjf7PtjI2YupJJDhkMmDz/fevp7O79qZuJa8q5cnWXoolFFc0cvYTZ08agNuUnW1RfX1ovM3g1jtu4FatffHrfZR05zi33g2UDalYxWupNXyggEL8VnG65wtaUJQPQ0bfpRkZqNWzqr6zdPK34LUOzc60/fN7Gv956034HsIkyBhA7jDow+0bDjfpyaQpuWhf8Qjl6g/fPBmisC2gNSQrUPqP6FYF7hJbSH3UAYX9YAitXuy3gZs1FO3fV/8FcWHAo8de71rz9tQUjqe2ClSYfC3b0vIaNbRi06JNhjxIHP96BUCaMCqgNSQrVLuBAWE3hfQKAEZ0jYP8BPFMAKdmhfnJRqffuTD6665lM5XUcNV5hNm87/Yui/n3nliVTG4JgNZYIgaOEDpcIOh+ZCE8pjMa58LsgRKqS9gjQgVJvnSsUhP8sLOA9wDZsvAFjOQGN3zsub+lXXfHprVd2GOQsOBR6anThWe/7Qc28kHZLKTtsub5jjkh0uXZ/lvVBlh7AxxZszLdQn4zBQJgJSNzjxRE8qgkcsOJQ00V4P51BFCmAZQ43duS5fT5BptV/9O3/0pAWHAk/NnDi0NoWQlConHZ5y9OGVt985WJQzhRySp5CPVUB9QCofAt9nibj0xeX7LzSbM8FVVJECWGiUhSqt9khfkiEprfVqmMr+HhffmIwL8L0oBxeMOvgQgDVXBVyoIA08fwo55tjMLt8DUp6ow0lUkQJYYNSnTK25wAAADqJJREFUTZlWQqs90pZESEprvRoDHlT2Oxn+omTOfQ5Yc1XGlYDU51DNqfcuv9C+VgS7FnYDC/UyFweAzH8jHA0xrfZrPvqnf27NAcFLcYak+WxmI4UQKvgQjgay5nrKgkNBeoYc2nxsoR7WXOVxIiD1PFRz8UbD1ypKbhrhNLlWs3so4Ddzw95BOHq5+tse66u7/rM8KEWqYgxJzfd/Kjvmo2g7PZsJ3cuGTd4ad7mKWO6xWHOVwZUK0sDTUG3c0acevs7hJCCF8xq7c73MjQa8NS6Vo4SAS7jizoFbajZtOWvlwcEbhZB04uVHt0XxnvPZjAndOvkEWc3sVu9VoCIhEq32fur1YGPkPh4AlM6lgNTHUM3JQE0WTr79MrsadgOL4WYU8M8Y4Whx6q7/v/6AeaRImwlJz7028NLEvt57KjkUmTtKJZO9xiUc9bKDr7E7N0irvXdGfHgYwAOA8jgTkHoaqrlccehbNSXVo/CGPAzgZhTwh6kabyUcLU79rQ/vYx4pbDA3earq3Otff/r093Z+tZzDCc0dbeAHaqVCVb/vm8TS3eQP85n3ZoyEPAAYsuBQ1HCpgjTwLGQalw+8q3z7oiYghVcau3M93IwCXmC3+jKYeaSrb/xj7g2Qugsh6dP3nfrOn5XT6TTI3FFrmWtzMw+uLlbadbGpjRe6PGitX4jPdglcC0h9CtWcvmn2rCLY9bAbWApf2IDbhghHy7fhjuzdq65rP6T1+OGW8wefaxv/5vZjxW7elM9mzLqsjY+BlQa4Nl9K1p60I7vtER/X3KEHACiCUwGpZ6GaD/MqfZnJSTgKL3EzCjhtoLE7x271FWr4w2/cwKZNsMXU0R9mzr3xzMGV5pKyKZPVzLzRLq7Nl5NRA4/YdlyIxJBsFOslCYYH+CitzLUK0oBQzSm+BIdszgRvyc0o80gBt8wvwPmZRmP1lrtuIiSFLWYnjtWePfA33zj1Qvezix1SPpvpCIJgLz8w65iW+luYN7o8CdEIktwySgXlPMabFcHFgNSHUG3Ih6d+8qTDh/ZbKkjhNZlHys0ooN84C/Dordu6a6yu6Y4d7GwPm5x/8x86Tj5zx4lwy73sWM/vv32ekpZ67+eNFkMe8HFf6gbmoAs5Bx2MN1uecwGpJ6GaT4Ga6+/Vi7AbKAJPNQHdRtjwIz7123qfWfOxe79ASAqbTL/z6sazP/3a4dPDDzwu4egwO9ZbxayJ7zYPollvlIz7Uv0IRxeQDararTooy7hYQRp4EKoRkLqD6lHgg6ea7dyMAiqZjQ9YhMRsPiT96J/+udNvEurM73L/2sCu6vrM3xGOWmVAHlqx1ihD6L50SN3BIyAcXZo8yN5h6/GljYBUn1GfftE9+FLnpgUQhKSAOmZjzNt93vggafW3Pda35mNf+Jpf7xq2W3Vd+6EP7TjwO6ZakfbN1BWuy2zEVCFz/sxmg7Tbq0M4ugIZhURIuggnA1LHQzUf5/q4+uTOq7AbKAYhKaCG+W5ubezOsdFgwtZ/Zs+XCElhCxOONvzhN24IPliDNbP5YirGpZq/metytJhJqgrhaJEISRfnagVp4HCo5mPFoavvmSH2wCIISQGrjclMuw4WIOkhJIUNwuFogVTdmfmN18tsYsRvQB5YUc0fEwlJCZPsNtDYnWvl3qR4hKSXczkgdTFUG5XBur5xNSClvR5YgiywWnliD1jlKVmE8/1lAUJSpGmxcDTMrFnMbGLT7k1QGhtzXm+Rdnof14iJkjDpFsZIWGmnhNgoESHppQhIdfFyQSJPgVyrCPY17AZKIjc7OzlrWAaVxvErLMLZCdkyhKRIw0rhaJhp9w4FpVyvozEic0bbZcMVJETOdzOhvzXG5Xehz/cTUYlQSOp9+O9sQOpoqOZzxYZrs3SovgGKJDc9t/OljSUM0soZG9NOv4NFuN1MSLr2E/ftrKrbMOf7uUD8Vt/4x4PFhqNhEpS2UlFakXAwypzRlEiXU7s8wOfeND0m62HmbkQkJG33/TPtcgVp4FioNub54sS1QJGAFCiB3PzwxB6LopUzcuHNPpiXrcCF3e3v/QIhKeJkqpU33JG9u5KXWFBRyhid4pjzdD3BqF3kAX4r9x2JG5eWemahR4wKafcDUpdCKK8DNWlHd6Utx/ewGygLT+yxkgULbxYspZsPRqUig80+lKnf1vuMCUlrNm056/u5QLRM8L7m5s4nTLVyVH+xXK+7pAPgEalYxwfG5H5nEzNG7RV6QEt7cjKGZBY6LfUxCa23HnHyDa7A6YDUsVCNCg53zgHVo0AFQk/sXRujgogQlJZsLByMUpGhlwlJV2+56yZCUkRlPhz92L1fWN/+5INxnFQJmMx1x1Qt3e35d/u4VIveLhX8fVyPdZBui2ZfQ6UEjMnvRQcPC5IhD8pv8e3hlesVpIEjoRoVhxe4EiwSdgMVkgVVhwRgVJ1gUaGg9BZaORc1KjNGCUYdsm7rrrFN935/ndlIx/dzgcqYoH3tJ+673gTvSZzKxu7coHy3b5KKPF/C0iF5v81SLUobvUJSedcrVdHcc0Sj0E7PrNEUSAbV6lPw70NA6kKoxsXgg4pg7UEIYTcQIQnAmmVhQVCKRZnrLq2clyhUKLUyY9RdZiMds6GO7+cB5TEBu6lGNoF70qdQgqb+BWHpgEMtzGPyfu5u7M5VSVVcPw+p3CAP8bsISisSHvlDO32KFgT/zndl1VpwDLEyF6h8NmO+hJoUvw1ubj9gzsX9thxMGQi7gRhIyNOfz2bMDWmv8ms+YiIP2sznozefzZiFd+FPgwfn3FSLmkXGIItwf5gNdapXN/Sc+9nf/fXc5Kkq388HimOC9Uo3Y4qKXK/6Cx1Y+WymVa7b7VLZpOH6PS5rgPk/FEv4Qe45uvLZTE8QBOZPF/enKxqT33XGS1hGPs/t+WymXe4nW1x8n84HpEJzqDZu2k0sOA5b9CsPSPlZAjEKBaXtcjO6nfONxch362A+m9kYCkpd+7yMyvfmIDO7/GV2uA9q1/548vA//tPMiUNrfT8fWNr8vNGP/umfz39mLCXh4sWAUQLT8J82C458RI5x/g+BqN8k6Cs8nO1y9H6jUuZ3pp+uFvvJqINW+Sz3uBaUVs3NzVlwGPGSL879Sg9/QEr0IfLZzBGlT99M2L3RguNQT8KvFxW+j0fYGTpZ+WymWW5EexRdN8zT88RnkPF7dUGosrRd4XdNoUppUKqUCEVxife/3bl/8vDzrZwVLFR71cdP1jX9fmsaLfVRk+/+ZrmOB6F/RlVxOh4Kac0196T85yNcd1GM0P1pl6uVeEUYL1SH8xBBL0eKUm4vrLu8qCA1v3CK2+ypOLyc1opgfpZAwmShYiph+kJteR0W3oyOyTWCm8SUFSpLgw8WMO2hP7bdRxQW6YW2Tca4YFlX3Dlwy+nhBx4///NvPkDLPQpW33DXyIbP/W27KydEvvuPLDfaSu4JSilcIPxEZBbcnzaHHsy6Xlk6LvdYg3TJukHuPYflc9yldJTExXEOXlSQBh9UhGh8Ys78jQVCv3zaDBJ8REPxZ4AAwxKhtupWuSFNOjAdXRBspb7oooJ0ZfK5aQ3NvmtO8LMzFlrwF9o2WayjLGdeeaJp6ugPXpk6+sMMZ9BfZpf6uqY7diS1Sz2AlUlu0Z7S/WkcRgvdLayD/CAPoArjJGwNS0dDFcz+BaQAACxHAsJC6FWoLInixnREgq2L4RYPvtwSaucs/AlCn6Gwhe2di+0GWlg8FFo2T/JwDXE59UL3s5OHn99ONal/6q7/7IHaK2/qcKGlHnCZ3J+m8WC2XCMLigC45/WYhKXhbqy0NtYrqjiFgBQAgBXIzWlYOAgLQgFoAaEWABUmXn5029SvRp6bfudV5qR7YL5q9Nr2/2zzRkwAlif3pc0LHupHNWO3WKPyMHdY7oHZkAwrWmRjvTg+t+ERVAdKCeoJSAEAAADPMZvUfa7NGgVwudA4oCAUnIYtfMi/mJOhjciCBYUAdEIhcqFilHAH1mKf34KFn9H5DqxKxzgQkAIAAACYn006/e4bg+x07xazQ/2qa9vuqr/14X2+nwsAAJZCQAoAAADgool9vfdM/eb7f0PbvW7V9Zun667/g79a3/7kg76fCwAAVkJACgAAAOAypu1+8vA//b+zE8dqOTt6VNVtmKu7rv0l2ukBACgeASkAAACAJZ3+3s6vTo4NdxKU2s/MGa3ZuKWT3ekBACgNASkAAACAZZn5pDMnDw1MvjV8Gxs52WfVde2Hahtv7mLOKAAA5SEgBQAAAFCUQlA6dezHv0dFabpMK31t5pO/JBgFAKByBKQAAAAASkbrfToKM0ZppQcAIDoEpAAAAADKZjZzmn77X77Mrvfxmt+Vvql9oHrdh/+SYBQAgGgRkAIAAACo2MTLj26bOfGLr0z95uUW5pRGZ36+6MYt2frbHutz5T0BAGAbAlIAAAAAkTLt9zMnf3nn1NEfZjizpavZtOVs7dW3PF+z4SM9VIsCABA/AlIAAAAAsZjf1OnUr/umj+//7MyJQ2s5y0szLfS1V3/itZqG65+o39b7jK3HCQCAiwhIAQAAAMTOtODPTuT+48x7b7Yzr/QCUylas/GGNwlFAQBIFwEpAAAAgESZytLZM2//xczpY+0z777Z5MtO+GYH+trGj71dveHaV6rrM/+t/taH91lwWAAAeI+AFAAAAECqJvb13jN7Nv/52VO/2joz/lajK4GpCURrGprHaxqaR6vXXT3IRksAANiJgBQAAACAVUw7/tzkqTvnzr336ZnxIy0z40caNOyMX3vVx09Wr7/mSPXaD/2kqq7hBdrmAQDQgYAUAAAAgPVMW/7c5Km7Z8+Pt81NnmqePX20eW76zOqkN38ymylVr2s8XbX2yner6zb82lSGBrVrf0y7PAAAehGQAgAAAFCtEJ6a9zA3febmucnTNxTez+yZ4zfOTZ1ZU+z7M+3wH/yH1SeqVzeMzP87ISgAAG4KguD/AHF5VCE9kdVYAAAAAElFTkSuQmCC;fontFamily=Helvetica;" parent="1" vertex="1">
          <mxGeometry x="281.99" y="534.75" width="156.02" height="28.5" as="geometry" />
        </mxCell>
        <mxCell id="MF3n9y5MDFoNAGw33dYD-23" value="Asynchronous operations" style="text;html=1;align=center;verticalAlign=middle;resizable=0;points=[];autosize=1;strokeColor=none;fillColor=none;fontStyle=1;labelBackgroundColor=default;fontSize=13;" parent="1" vertex="1">
          <mxGeometry x="495" y="704.25" width="170" height="30" as="geometry" />
        </mxCell>
        <mxCell id="MF3n9y5MDFoNAGw33dYD-24" value="4 - Validate provisioning request" style="shape=process;whiteSpace=wrap;html=1;backgroundOutline=1;align=left;fontSize=14;spacingLeft=6;" parent="1" vertex="1">
          <mxGeometry x="720" y="609" width="320" height="41" as="geometry" />
        </mxCell>
        <mxCell id="MF3n9y5MDFoNAGw33dYD-25" value="5 - Extract descriptor metadata" style="shape=process;whiteSpace=wrap;html=1;backgroundOutline=1;align=left;fontSize=14;spacingLeft=6;" parent="1" vertex="1">
          <mxGeometry x="720" y="660" width="320" height="40" as="geometry" />
        </mxCell>
        <mxCell id="MF3n9y5MDFoNAGw33dYD-26" value="7 - Remove workflow" style="shape=process;whiteSpace=wrap;html=1;backgroundOutline=1;align=left;fontSize=14;spacingLeft=6;" parent="1" vertex="1">
          <mxGeometry x="720" y="790" width="320" height="40" as="geometry" />
        </mxCell>
        <mxCell id="MF3n9y5MDFoNAGw33dYD-27" style="edgeStyle=orthogonalEdgeStyle;rounded=0;orthogonalLoop=1;jettySize=auto;html=1;exitX=1;exitY=0.5;exitDx=0;exitDy=0;curved=1;entryX=0;entryY=0.5;entryDx=0;entryDy=0;" parent="1" source="MF3n9y5MDFoNAGw33dYD-26" target="MF3n9y5MDFoNAGw33dYD-40" edge="1">
          <mxGeometry relative="1" as="geometry">
            <mxPoint x="1220" y="1010" as="sourcePoint" />
            <mxPoint x="1980" y="1000" as="targetPoint" />
          </mxGeometry>
        </mxCell>
        <mxCell id="MF3n9y5MDFoNAGw33dYD-28" value="&lt;font style=&quot;font-size: 16px;&quot;&gt;Remove&lt;/font&gt;" style="edgeLabel;html=1;align=center;verticalAlign=middle;resizable=0;points=[];" parent="MF3n9y5MDFoNAGw33dYD-27" vertex="1" connectable="0">
          <mxGeometry x="0.0029" y="1" relative="1" as="geometry">
            <mxPoint as="offset" />
          </mxGeometry>
        </mxCell>
        <mxCell id="MF3n9y5MDFoNAGw33dYD-29" style="edgeStyle=orthogonalEdgeStyle;rounded=0;orthogonalLoop=1;jettySize=auto;html=1;entryX=0;entryY=0.5;entryDx=0;entryDy=0;curved=1;exitX=1;exitY=0.5;exitDx=0;exitDy=0;" parent="1" source="MF3n9y5MDFoNAGw33dYD-31" target="MF3n9y5MDFoNAGw33dYD-37" edge="1">
          <mxGeometry relative="1" as="geometry">
            <mxPoint x="1420.29" y="650" as="targetPoint" />
            <mxPoint x="1070" y="743.4999999999998" as="sourcePoint" />
          </mxGeometry>
        </mxCell>
        <mxCell id="MF3n9y5MDFoNAGw33dYD-30" value="&lt;font style=&quot;font-size: 16px;&quot;&gt;Remove&lt;/font&gt;" style="edgeLabel;html=1;align=center;verticalAlign=middle;resizable=0;points=[];" parent="MF3n9y5MDFoNAGw33dYD-29" vertex="1" connectable="0">
          <mxGeometry x="0.1762" y="1" relative="1" as="geometry">
            <mxPoint x="16" y="15" as="offset" />
          </mxGeometry>
        </mxCell>
        <mxCell id="MF3n9y5MDFoNAGw33dYD-31" value="6 - If removeData is true&lt;div&gt;Remove Git integration between&amp;nbsp; component repo and Workspace&lt;/div&gt;" style="shape=process;whiteSpace=wrap;html=1;backgroundOutline=1;align=left;fontSize=14;spacingLeft=6;" parent="1" vertex="1">
          <mxGeometry x="720" y="710" width="320" height="70" as="geometry" />
        </mxCell>
        <mxCell id="MF3n9y5MDFoNAGw33dYD-32" value="&lt;span style=&quot;font-size: 18px;&quot;&gt;&lt;span dir=&quot;ltr&quot; class=&quot;ui-provider cfk cfl jk cfm cfn cfo cfp cfq cfr cfs cft cfu cfv cfw cfx cfy cfz cga cgb cgc cgd cge cgf cgg cgh cgi cgj cgk cgl cgm cgn cgo cgp cgq cgr&quot; style=&quot;font-size: 18px;&quot;&gt;Databricks Cloud&lt;/span&gt;&lt;/span&gt;" style="text;whiteSpace=wrap;html=1;fontStyle=1;fontSize=18;" parent="1" vertex="1">
          <mxGeometry x="1698.29" y="412.5" width="190" height="40" as="geometry" />
        </mxCell>
        <mxCell id="MF3n9y5MDFoNAGw33dYD-33" value="" style="group" parent="1" vertex="1" connectable="0">
          <mxGeometry x="2049.9999999999995" y="780" width="113.20000000000005" height="120" as="geometry" />
        </mxCell>
        <mxCell id="MF3n9y5MDFoNAGw33dYD-34" value="" style="sketch=0;pointerEvents=1;shadow=0;dashed=0;html=1;strokeColor=none;fillColor=#505050;labelPosition=center;verticalLabelPosition=bottom;verticalAlign=top;outlineConnect=0;align=center;shape=mxgraph.office.servers.cluster_server;" parent="MF3n9y5MDFoNAGw33dYD-33" vertex="1">
          <mxGeometry width="113.2" height="90" as="geometry" />
        </mxCell>
        <mxCell id="MF3n9y5MDFoNAGw33dYD-35" value="&lt;div&gt;&lt;span style=&quot;background-color: initial;&quot;&gt;cluster&lt;/span&gt;&lt;br&gt;&lt;/div&gt;" style="text;html=1;strokeColor=none;fillColor=none;align=center;verticalAlign=middle;whiteSpace=wrap;rounded=0;" parent="MF3n9y5MDFoNAGw33dYD-33" vertex="1">
          <mxGeometry x="6.600000000000136" y="90" width="100" height="30" as="geometry" />
        </mxCell>
        <mxCell id="MF3n9y5MDFoNAGw33dYD-36" value="Idempotent, i.e. does not fail if something it unprovisions does not exist" style="shape=callout;whiteSpace=wrap;html=1;perimeter=calloutPerimeter;align=left;size=40;position=0.06;position2=0.02;base=19;" parent="1" vertex="1">
          <mxGeometry x="1010" y="307.5" width="220" height="105" as="geometry" />
        </mxCell>
        <mxCell id="MF3n9y5MDFoNAGw33dYD-37" value="Databricks&lt;br&gt;Workspace-Repo&lt;br&gt;Sync" style="rhombus;whiteSpace=wrap;html=1;fontSize=13;align=center;verticalAlign=middle;rounded=0;spacing=4;fontStyle=1;spacingLeft=4;" parent="1" vertex="1">
          <mxGeometry x="1390.29" y="555" width="210" height="165" as="geometry" />
        </mxCell>
        <mxCell id="MF3n9y5MDFoNAGw33dYD-38" value="" style="edgeStyle=orthogonalEdgeStyle;rounded=0;orthogonalLoop=1;jettySize=auto;html=1;entryX=1;entryY=0.5;entryDx=0;entryDy=0;shape=flexArrow;dashed=1;startArrow=block;exitX=0;exitY=0.5;exitDx=0;exitDy=0;" parent="1" source="MF3n9y5MDFoNAGw33dYD-60" target="MF3n9y5MDFoNAGw33dYD-37" edge="1">
          <mxGeometry relative="1" as="geometry">
            <mxPoint x="1777.6399999999999" y="637.5" as="sourcePoint" />
          </mxGeometry>
        </mxCell>
        <mxCell id="MF3n9y5MDFoNAGw33dYD-39" style="edgeStyle=orthogonalEdgeStyle;rounded=0;orthogonalLoop=1;jettySize=auto;html=1;" parent="1" source="MF3n9y5MDFoNAGw33dYD-40" target="MF3n9y5MDFoNAGw33dYD-34" edge="1">
          <mxGeometry relative="1" as="geometry">
            <mxPoint x="2100.29" y="812.5" as="targetPoint" />
          </mxGeometry>
        </mxCell>
        <mxCell id="MF3n9y5MDFoNAGw33dYD-40" value="Workflow:&amp;nbsp;&lt;span style=&quot;font-size: 13px; font-weight: 700; text-align: left;&quot;&gt;test-domain_databricks-test-dataproduct_0_databricks-test-workflow_environment&lt;/span&gt;" style="shape=process;whiteSpace=wrap;html=1;backgroundOutline=1;" parent="1" vertex="1">
          <mxGeometry x="1720" y="770" width="240" height="110" as="geometry" />
        </mxCell>
        <mxCell id="MF3n9y5MDFoNAGw33dYD-41" style="edgeStyle=orthogonalEdgeStyle;rounded=0;orthogonalLoop=1;jettySize=auto;html=1;exitX=0.5;exitY=1;exitDx=0;exitDy=0;shape=flexArrow;dashed=1;startArrow=block;entryX=0.5;entryY=0;entryDx=0;entryDy=0;" parent="1" source="MF3n9y5MDFoNAGw33dYD-43" target="MF3n9y5MDFoNAGw33dYD-37" edge="1">
          <mxGeometry relative="1" as="geometry">
            <mxPoint x="1585" y="698" as="targetPoint" />
          </mxGeometry>
        </mxCell>
        <mxCell id="MF3n9y5MDFoNAGw33dYD-42" value="" style="group" parent="1" vertex="1" connectable="0">
          <mxGeometry x="1311.51" y="90" width="367.5675675675677" height="220" as="geometry" />
        </mxCell>
        <mxCell id="MF3n9y5MDFoNAGw33dYD-43" value="&lt;span style=&quot;background-color: rgb(255, 255, 255);&quot;&gt;Component repo: test-databricks-workload-notebook&amp;nbsp;&lt;/span&gt;" style="rounded=0;whiteSpace=wrap;html=1;align=left;spacing=4;verticalAlign=top;fontStyle=1;fontSize=13;spacingLeft=4;container=0;" parent="MF3n9y5MDFoNAGw33dYD-42" vertex="1">
          <mxGeometry width="367.5675675675676" height="220" as="geometry" />
        </mxCell>
        <mxCell id="MF3n9y5MDFoNAGw33dYD-44" value="" style="shape=image;verticalLabelPosition=bottom;labelBackgroundColor=default;verticalAlign=top;aspect=fixed;imageAspect=0;image=https://upload.wikimedia.org/wikipedia/commons/thumb/e/e0/Git-logo.svg/1200px-Git-logo.svg.png;container=0;" parent="MF3n9y5MDFoNAGw33dYD-42" vertex="1">
          <mxGeometry x="8.49027027027023" y="43.683170731707264" width="63.07202743902438" height="26.321138211382113" as="geometry" />
        </mxCell>
        <mxCell id="MF3n9y5MDFoNAGw33dYD-45" value="Notebooks" style="shape=card;whiteSpace=wrap;html=1;verticalAlign=top;container=0;" parent="MF3n9y5MDFoNAGw33dYD-42" vertex="1">
          <mxGeometry x="18.49000000000001" y="82.83000000000001" width="140" height="120" as="geometry" />
        </mxCell>
        <mxCell id="MF3n9y5MDFoNAGw33dYD-46" value="" style="group" parent="MF3n9y5MDFoNAGw33dYD-42" vertex="1" connectable="0">
          <mxGeometry x="243.878188188188" y="122.83000000000001" width="68.611811811812" height="65.65" as="geometry" />
        </mxCell>
        <mxCell id="MF3n9y5MDFoNAGw33dYD-47" value="" style="shape=note;whiteSpace=wrap;html=1;backgroundOutline=1;darkOpacity=0.05;size=13;fontSize=13;container=0;" parent="MF3n9y5MDFoNAGw33dYD-46" vertex="1">
          <mxGeometry width="37.217217217217225" height="40.01784651992861" as="geometry" />
        </mxCell>
        <mxCell id="MF3n9y5MDFoNAGw33dYD-48" value="" style="endArrow=none;html=1;rounded=0;fontSize=13;" parent="MF3n9y5MDFoNAGw33dYD-46" edge="1">
          <mxGeometry width="50" height="50" relative="1" as="geometry">
            <mxPoint x="3.1014347681013987" y="17.03616894705533" as="sourcePoint" />
            <mxPoint x="34.11578244911584" y="17.03616894705533" as="targetPoint" />
          </mxGeometry>
        </mxCell>
        <mxCell id="MF3n9y5MDFoNAGw33dYD-49" value="" style="endArrow=none;html=1;rounded=0;fontSize=13;" parent="MF3n9y5MDFoNAGw33dYD-46" edge="1">
          <mxGeometry width="50" height="50" relative="1" as="geometry">
            <mxPoint x="3.1014347681013987" y="22.867340868530647" as="sourcePoint" />
            <mxPoint x="34.11578244911584" y="22.867340868530647" as="targetPoint" />
          </mxGeometry>
        </mxCell>
        <mxCell id="MF3n9y5MDFoNAGw33dYD-50" value="" style="endArrow=none;html=1;rounded=0;fontStyle=0;fontSize=13;" parent="MF3n9y5MDFoNAGw33dYD-46" edge="1">
          <mxGeometry width="50" height="50" relative="1" as="geometry">
            <mxPoint x="3.1014347681013987" y="28.584176085663273" as="sourcePoint" />
            <mxPoint x="34.11578244911584" y="28.584176085663273" as="targetPoint" />
          </mxGeometry>
        </mxCell>
        <mxCell id="MF3n9y5MDFoNAGw33dYD-51" value="" style="endArrow=none;html=1;rounded=0;fontSize=13;" parent="MF3n9y5MDFoNAGw33dYD-46" edge="1">
          <mxGeometry width="50" height="50" relative="1" as="geometry">
            <mxPoint x="3.1014347681013987" y="34.301011302795956" as="sourcePoint" />
            <mxPoint x="34.11578244911584" y="34.301011302795956" as="targetPoint" />
          </mxGeometry>
        </mxCell>
        <mxCell id="MF3n9y5MDFoNAGw33dYD-52" value="catalog-info.yaml" style="text;html=1;strokeColor=none;fillColor=none;align=center;verticalAlign=middle;whiteSpace=wrap;rounded=0;container=0;" parent="MF3n9y5MDFoNAGw33dYD-46" vertex="1">
          <mxGeometry x="-31.388188188187996" y="40.02000000000001" width="100" height="25.63" as="geometry" />
        </mxCell>
        <mxCell id="MF3n9y5MDFoNAGw33dYD-60" value="&lt;pre style=&quot;line-height: 120%;&quot;&gt;  Workspace/&lt;br&gt;    └── databricks-test-dataproduct_0/&lt;br&gt;      ├── databricks-test-workflow/&lt;br&gt;      │  ├── notebooks/&lt;br&gt;      │  └── ...&lt;br&gt;      └── &amp;lt;workload component name&amp;gt;/&lt;br&gt;        ├── notebooks/&lt;br&gt;        └── ...&lt;br&gt;&lt;/pre&gt;&lt;div&gt;&lt;br&gt;&lt;/div&gt;" style="text;html=1;strokeColor=default;fillColor=none;spacing=0;spacingTop=0;whiteSpace=wrap;overflow=hidden;rounded=0;spacingRight=0;" parent="1" vertex="1">
          <mxGeometry x="1770.14" y="547.63" width="340" height="179.75" as="geometry" />
        </mxCell>
        <mxCell id="MF3n9y5MDFoNAGw33dYD-61" value="1 - Generate a token and a response with ProvisioningStatus=&quot;RUNNING&quot;" style="shape=process;whiteSpace=wrap;html=1;backgroundOutline=1;align=left;fontSize=14;spacingLeft=6;" parent="1" vertex="1">
          <mxGeometry x="720" y="441" width="320" height="41" as="geometry" />
        </mxCell>
        <mxCell id="MF3n9y5MDFoNAGw33dYD-62" value="2 - Accept request and generate a map entry containing as key the token and as value the response&amp;nbsp;" style="shape=process;whiteSpace=wrap;html=1;backgroundOutline=1;align=left;fontSize=14;spacingLeft=6;" parent="1" vertex="1">
          <mxGeometry x="720" y="494" width="320" height="50" as="geometry" />
        </mxCell>
        <mxCell id="MF3n9y5MDFoNAGw33dYD-63" value="3 - Report token" style="shape=process;whiteSpace=wrap;html=1;backgroundOutline=1;align=left;fontSize=14;spacingLeft=6;" parent="1" vertex="1">
          <mxGeometry x="720" y="556" width="320" height="41" as="geometry" />
        </mxCell>
        <mxCell id="MF3n9y5MDFoNAGw33dYD-64" value="" style="curved=1;endArrow=classic;html=1;rounded=0;entryX=-0.037;entryY=0.77;entryDx=0;entryDy=0;entryPerimeter=0;fontSize=13;" parent="1" edge="1">
          <mxGeometry width="50" height="50" relative="1" as="geometry">
            <mxPoint x="460.65998935500977" y="759.9957142857144" as="sourcePoint" />
            <mxPoint x="680" y="759.4928571428572" as="targetPoint" />
            <Array as="points">
              <mxPoint x="567.10988532443" y="741.71" />
            </Array>
          </mxGeometry>
        </mxCell>
        <mxCell id="MF3n9y5MDFoNAGw33dYD-65" value="&lt;font style=&quot;font-size: 13px;&quot;&gt;Status request&lt;/font&gt;" style="edgeLabel;html=1;align=center;verticalAlign=middle;resizable=0;points=[];" parent="MF3n9y5MDFoNAGw33dYD-64" connectable="0" vertex="1">
          <mxGeometry x="0.0507" y="-16" relative="1" as="geometry">
            <mxPoint x="-3" y="-8" as="offset" />
          </mxGeometry>
        </mxCell>
        <mxCell id="MF3n9y5MDFoNAGw33dYD-66" value="" style="curved=1;endArrow=classic;html=1;rounded=0;entryX=-0.037;entryY=0.77;entryDx=0;entryDy=0;entryPerimeter=0;fontSize=13;" parent="1" edge="1">
          <mxGeometry width="50" height="50" relative="1" as="geometry">
            <mxPoint x="679.3400106449903" y="791.7142857142857" as="sourcePoint" />
            <mxPoint x="460" y="792.2171428571428" as="targetPoint" />
            <Array as="points">
              <mxPoint x="572.8901146755701" y="810" />
            </Array>
          </mxGeometry>
        </mxCell>
        <mxCell id="MF3n9y5MDFoNAGw33dYD-67" value="&lt;font style=&quot;font-size: 13px;&quot;&gt;Provisioning status&lt;/font&gt;" style="edgeLabel;html=1;align=center;verticalAlign=middle;resizable=0;points=[];" parent="MF3n9y5MDFoNAGw33dYD-66" connectable="0" vertex="1">
          <mxGeometry x="0.1688" y="-12" relative="1" as="geometry">
            <mxPoint x="24" y="5" as="offset" />
          </mxGeometry>
        </mxCell>
      </root>
    </mxGraphModel>
  </diagram>
  <diagram id="Y-cBEIzAMAYApNrM3s3s" name="Workflow - reverse provisioning">
    <mxGraphModel dx="2074" dy="1122" grid="1" gridSize="10" guides="1" tooltips="1" connect="1" arrows="1" fold="1" page="1" pageScale="1" pageWidth="1169" pageHeight="827" background="#ffffff" math="0" shadow="0">
      <root>
        <mxCell id="0" />
        <mxCell id="1" parent="0" />
        <mxCell id="84gBqDUAVP-YG94VW5wj-14" value="" style="group" parent="1" vertex="1" connectable="0">
          <mxGeometry x="1270" y="90" width="370" height="210" as="geometry" />
        </mxCell>
        <mxCell id="84gBqDUAVP-YG94VW5wj-15" value="&lt;span style=&quot;background-color: rgb(255, 255, 255);&quot;&gt;Component repo: test-databricks-workflow&lt;/span&gt;" style="rounded=0;whiteSpace=wrap;html=1;align=left;spacing=4;verticalAlign=top;fontStyle=1;fontSize=13;spacingLeft=4;container=0;" parent="84gBqDUAVP-YG94VW5wj-14" vertex="1">
          <mxGeometry width="370" height="210.00000000000003" as="geometry" />
        </mxCell>
        <mxCell id="84gBqDUAVP-YG94VW5wj-16" value="" style="shape=image;verticalLabelPosition=bottom;labelBackgroundColor=default;verticalAlign=top;aspect=fixed;imageAspect=0;image=https://upload.wikimedia.org/wikipedia/commons/thumb/e/e0/Git-logo.svg/1200px-Git-logo.svg.png;container=0;" parent="84gBqDUAVP-YG94VW5wj-14" vertex="1">
          <mxGeometry x="7.343484470588199" y="41.697572062084205" width="39.674538605464654" height="16.55692795220226" as="geometry" />
        </mxCell>
        <mxCell id="84gBqDUAVP-YG94VW5wj-35" value="&lt;font style=&quot;font-size: 20px;&quot;&gt;...&lt;/font&gt;" style="text;html=1;align=center;verticalAlign=middle;whiteSpace=wrap;rounded=0;" parent="84gBqDUAVP-YG94VW5wj-14" vertex="1">
          <mxGeometry x="249.9975931022183" y="109.9953110047847" width="51.895764705882335" height="28.63636363636364" as="geometry" />
        </mxCell>
        <mxCell id="dUxdY9-ZrJmHRpGlW5pJ-1" value="" style="group" parent="1" vertex="1" connectable="0">
          <mxGeometry x="680" y="440" width="510" height="520" as="geometry" />
        </mxCell>
        <mxCell id="dUxdY9-ZrJmHRpGlW5pJ-55" value="" style="group" parent="dUxdY9-ZrJmHRpGlW5pJ-1" vertex="1" connectable="0">
          <mxGeometry x="10" y="150" width="380" height="260" as="geometry" />
        </mxCell>
        <mxCell id="dUxdY9-ZrJmHRpGlW5pJ-2" value="Databricks Specific Provisioner" style="rounded=0;whiteSpace=wrap;html=1;fontStyle=1;strokeWidth=2;fontSize=13;verticalAlign=top;fillColor=#dae8fc;strokeColor=#6c8ebf;" parent="dUxdY9-ZrJmHRpGlW5pJ-55" vertex="1">
          <mxGeometry width="380" height="260" as="geometry" />
        </mxCell>
        <mxCell id="dUxdY9-ZrJmHRpGlW5pJ-3" value="A&lt;br style=&quot;font-size: 13px;&quot;&gt;P&lt;br style=&quot;font-size: 13px;&quot;&gt;I" style="rounded=0;whiteSpace=wrap;html=1;fontStyle=1;strokeWidth=2;fontSize=13;fillColor=#dae8fc;strokeColor=#6c8ebf;" parent="dUxdY9-ZrJmHRpGlW5pJ-55" vertex="1">
          <mxGeometry width="25" height="260" as="geometry" />
        </mxCell>
        <mxCell id="dUxdY9-ZrJmHRpGlW5pJ-5" value="2 - Verify the existence of the workflow" style="shape=process;whiteSpace=wrap;html=1;backgroundOutline=1;align=left;fontSize=14;spacingLeft=6;" parent="dUxdY9-ZrJmHRpGlW5pJ-55" vertex="1">
          <mxGeometry x="40" y="100.0016129032258" width="320" height="34.38709677419355" as="geometry" />
        </mxCell>
        <mxCell id="dUxdY9-ZrJmHRpGlW5pJ-6" value="3 - Retrieve workflow information" style="shape=process;whiteSpace=wrap;html=1;backgroundOutline=1;align=left;fontSize=14;spacingLeft=6;" parent="dUxdY9-ZrJmHRpGlW5pJ-55" vertex="1">
          <mxGeometry x="40" y="149.99645161290323" width="320" height="34.38709677419355" as="geometry" />
        </mxCell>
        <mxCell id="dUxdY9-ZrJmHRpGlW5pJ-7" value="4 - Compose and return response" style="shape=process;whiteSpace=wrap;html=1;backgroundOutline=1;align=left;fontSize=14;spacingLeft=6;" parent="dUxdY9-ZrJmHRpGlW5pJ-55" vertex="1">
          <mxGeometry x="40" y="202.99903225806452" width="320" height="34.38709677419355" as="geometry" />
        </mxCell>
        <mxCell id="dUxdY9-ZrJmHRpGlW5pJ-4" value="1 - Validate input request" style="shape=process;whiteSpace=wrap;html=1;backgroundOutline=1;align=left;fontSize=14;spacingLeft=6;" parent="dUxdY9-ZrJmHRpGlW5pJ-55" vertex="1">
          <mxGeometry x="40" y="50.00397713352389" width="320" height="34.38709677419355" as="geometry" />
        </mxCell>
        <mxCell id="dUxdY9-ZrJmHRpGlW5pJ-8" value="Idempotent, i.e. does not fail if something it provisions already exists" style="shape=callout;whiteSpace=wrap;html=1;perimeter=calloutPerimeter;align=left;size=40;position=0.06;position2=0.02;base=19;" parent="dUxdY9-ZrJmHRpGlW5pJ-1" vertex="1">
          <mxGeometry x="330" y="60" width="220" height="105" as="geometry" />
        </mxCell>
        <mxCell id="84gBqDUAVP-YG94VW5wj-46" style="edgeStyle=orthogonalEdgeStyle;rounded=0;orthogonalLoop=1;jettySize=auto;html=1;entryX=0.5;entryY=1;entryDx=0;entryDy=0;curved=1;" parent="dUxdY9-ZrJmHRpGlW5pJ-1" edge="1">
          <mxGeometry relative="1" as="geometry">
            <mxPoint x="698.9849999999997" y="-167.7" as="targetPoint" />
            <mxPoint x="370" y="372.5" as="sourcePoint" />
          </mxGeometry>
        </mxCell>
        <mxCell id="84gBqDUAVP-YG94VW5wj-49" value="&lt;font style=&quot;font-size: 13px;&quot;&gt;&amp;nbsp;Update&amp;nbsp;&lt;/font&gt;" style="edgeLabel;html=1;align=center;verticalAlign=middle;resizable=0;points=[];" parent="84gBqDUAVP-YG94VW5wj-46" vertex="1" connectable="0">
          <mxGeometry x="-0.5777" relative="1" as="geometry">
            <mxPoint x="-103" y="-10" as="offset" />
          </mxGeometry>
        </mxCell>
        <mxCell id="dUxdY9-ZrJmHRpGlW5pJ-11" style="edgeStyle=orthogonalEdgeStyle;rounded=0;orthogonalLoop=1;jettySize=auto;html=1;fontSize=13;" parent="1" edge="1">
          <mxGeometry relative="1" as="geometry">
            <mxPoint x="680" y="700.7" as="targetPoint" />
            <mxPoint x="460" y="700.7" as="sourcePoint" />
            <Array as="points">
              <mxPoint x="630" y="701" />
              <mxPoint x="630" y="701" />
            </Array>
          </mxGeometry>
        </mxCell>
        <mxCell id="dUxdY9-ZrJmHRpGlW5pJ-12" value="Reverse Provisioning request" style="edgeLabel;html=1;align=center;verticalAlign=middle;resizable=0;points=[];fontSize=13;" parent="dUxdY9-ZrJmHRpGlW5pJ-11" vertex="1" connectable="0">
          <mxGeometry x="0.0837" y="2" relative="1" as="geometry">
            <mxPoint x="-11" y="-9" as="offset" />
          </mxGeometry>
        </mxCell>
        <mxCell id="dUxdY9-ZrJmHRpGlW5pJ-13" value="" style="group;fontSize=13;" parent="1" vertex="1" connectable="0">
          <mxGeometry x="560" y="630" width="40" height="43" as="geometry" />
        </mxCell>
        <mxCell id="dUxdY9-ZrJmHRpGlW5pJ-14" value="" style="shape=note;whiteSpace=wrap;html=1;backgroundOutline=1;darkOpacity=0.05;size=13;fontSize=13;" parent="dUxdY9-ZrJmHRpGlW5pJ-13" vertex="1">
          <mxGeometry width="40" height="43" as="geometry" />
        </mxCell>
        <mxCell id="dUxdY9-ZrJmHRpGlW5pJ-15" value="" style="endArrow=none;html=1;rounded=0;fontSize=13;" parent="dUxdY9-ZrJmHRpGlW5pJ-13" edge="1">
          <mxGeometry width="50" height="50" relative="1" as="geometry">
            <mxPoint x="3.333333333333334" y="18.305714285714295" as="sourcePoint" />
            <mxPoint x="36.66666666666667" y="18.305714285714295" as="targetPoint" />
          </mxGeometry>
        </mxCell>
        <mxCell id="dUxdY9-ZrJmHRpGlW5pJ-16" value="" style="endArrow=none;html=1;rounded=0;fontSize=13;" parent="dUxdY9-ZrJmHRpGlW5pJ-13" edge="1">
          <mxGeometry width="50" height="50" relative="1" as="geometry">
            <mxPoint x="3.333333333333334" y="24.571428571428573" as="sourcePoint" />
            <mxPoint x="36.66666666666667" y="24.571428571428573" as="targetPoint" />
          </mxGeometry>
        </mxCell>
        <mxCell id="dUxdY9-ZrJmHRpGlW5pJ-17" value="" style="endArrow=none;html=1;rounded=0;fontStyle=0;fontSize=13;" parent="dUxdY9-ZrJmHRpGlW5pJ-13" edge="1">
          <mxGeometry width="50" height="50" relative="1" as="geometry">
            <mxPoint x="3.333333333333334" y="30.71428571428571" as="sourcePoint" />
            <mxPoint x="36.66666666666667" y="30.71428571428571" as="targetPoint" />
          </mxGeometry>
        </mxCell>
        <mxCell id="dUxdY9-ZrJmHRpGlW5pJ-18" value="" style="endArrow=none;html=1;rounded=0;fontSize=13;" parent="dUxdY9-ZrJmHRpGlW5pJ-13" edge="1">
          <mxGeometry width="50" height="50" relative="1" as="geometry">
            <mxPoint x="3.333333333333334" y="36.85714285714286" as="sourcePoint" />
            <mxPoint x="36.66666666666667" y="36.85714285714286" as="targetPoint" />
          </mxGeometry>
        </mxCell>
        <mxCell id="dUxdY9-ZrJmHRpGlW5pJ-19" value="&lt;ul style=&quot;&quot;&gt;&lt;li style=&quot;text-align: left;&quot;&gt;&lt;span style=&quot;color: rgb(28, 30, 33); font-family: Poppins; text-wrap: wrap;&quot;&gt;useCaseTemplateId&lt;/span&gt;&lt;br&gt;&lt;/li&gt;&lt;li style=&quot;text-align: left;&quot;&gt;&lt;span style=&quot;color: rgb(28, 30, 33); font-family: Poppins; text-wrap: wrap;&quot;&gt;&lt;span style=&quot;&quot;&gt;environment&lt;/span&gt;&lt;/span&gt;&lt;/li&gt;&lt;li style=&quot;text-align: left;&quot;&gt;&lt;span style=&quot;color: rgb(28, 30, 33); font-family: Poppins; text-wrap: wrap;&quot;&gt;&lt;span style=&quot;&quot;&gt;&lt;span style=&quot;&quot;&gt;&lt;span style=&quot;&quot;&gt;catalogInfo&lt;/span&gt;&lt;br&gt;&lt;/span&gt;&lt;/span&gt;&lt;/span&gt;&lt;/li&gt;&lt;/ul&gt;&lt;div&gt;&lt;div&gt;&lt;/div&gt;&lt;/div&gt;" style="text;html=1;align=center;verticalAlign=middle;resizable=0;points=[];autosize=1;fontSize=13;labelBackgroundColor=none;" parent="1" vertex="1">
          <mxGeometry x="495" y="544" width="170" height="90" as="geometry" />
        </mxCell>
        <mxCell id="dUxdY9-ZrJmHRpGlW5pJ-20" style="shape=connector;rounded=0;hachureGap=4;orthogonalLoop=1;jettySize=auto;html=1;entryX=0;entryY=0.5;entryDx=0;entryDy=0;labelBackgroundColor=default;strokeColor=default;fontFamily=Helvetica;fontSize=16;fontColor=default;endArrow=classic;" parent="1" target="dUxdY9-ZrJmHRpGlW5pJ-25" edge="1">
          <mxGeometry relative="1" as="geometry">
            <mxPoint x="120" y="530" as="sourcePoint" />
          </mxGeometry>
        </mxCell>
        <mxCell id="dUxdY9-ZrJmHRpGlW5pJ-21" value="&lt;span style=&quot;font-size: 13px;&quot;&gt;Reverse&lt;/span&gt;&lt;div&gt;&lt;span style=&quot;font-size: 13px;&quot;&gt;Provisioning&lt;/span&gt;&lt;div&gt;&lt;span style=&quot;font-size: 13px;&quot;&gt;Component&lt;/span&gt;&lt;br&gt;&lt;/div&gt;&lt;/div&gt;" style="edgeLabel;html=1;align=left;verticalAlign=middle;resizable=0;points=[];fontSize=16;fontFamily=Helvetica;fontColor=default;" parent="dUxdY9-ZrJmHRpGlW5pJ-20" vertex="1" connectable="0">
          <mxGeometry x="-0.0027" y="-2" relative="1" as="geometry">
            <mxPoint x="-35" y="-2" as="offset" />
          </mxGeometry>
        </mxCell>
        <mxCell id="dUxdY9-ZrJmHRpGlW5pJ-22" value="User" style="shape=umlActor;verticalLabelPosition=bottom;verticalAlign=top;html=1;outlineConnect=0;hachureGap=4;fontFamily=Helvetica;fontSize=16;fontColor=default;" parent="1" vertex="1">
          <mxGeometry x="60" y="472.5" width="60" height="117.5" as="geometry" />
        </mxCell>
        <mxCell id="dUxdY9-ZrJmHRpGlW5pJ-23" value="" style="edgeStyle=orthogonalEdgeStyle;shape=connector;curved=1;rounded=0;hachureGap=4;orthogonalLoop=1;jettySize=auto;html=1;labelBackgroundColor=default;strokeColor=default;fontFamily=Helvetica;fontSize=16;fontColor=default;endArrow=classic;" parent="1" source="dUxdY9-ZrJmHRpGlW5pJ-25" target="dUxdY9-ZrJmHRpGlW5pJ-26" edge="1">
          <mxGeometry relative="1" as="geometry" />
        </mxCell>
        <mxCell id="dUxdY9-ZrJmHRpGlW5pJ-24" value="&lt;span style=&quot;font-size: 13px;&quot;&gt;Reverse&lt;/span&gt;&lt;div&gt;&lt;span style=&quot;font-size: 13px;&quot;&gt;Provisioning&lt;/span&gt;&lt;div&gt;&lt;span style=&quot;font-size: 13px;&quot;&gt;Component&lt;/span&gt;&lt;/div&gt;&lt;/div&gt;" style="edgeLabel;html=1;align=center;verticalAlign=middle;resizable=0;points=[];fontSize=16;fontFamily=Helvetica;fontColor=default;" parent="dUxdY9-ZrJmHRpGlW5pJ-23" vertex="1" connectable="0">
          <mxGeometry x="0.3239" relative="1" as="geometry">
            <mxPoint y="-24" as="offset" />
          </mxGeometry>
        </mxCell>
        <mxCell id="dUxdY9-ZrJmHRpGlW5pJ-25" value="" style="rounded=0;whiteSpace=wrap;html=1;hachureGap=4;fontFamily=Helvetica;fontSize=20;verticalAlign=middle;fillColor=#fff2cc;strokeColor=#d6b656;glass=0;" parent="1" vertex="1">
          <mxGeometry x="260" y="470" width="200" height="120" as="geometry" />
        </mxCell>
        <mxCell id="dUxdY9-ZrJmHRpGlW5pJ-26" value="Provisioning Coordinator" style="whiteSpace=wrap;html=1;fontSize=20;fontFamily=Helvetica;fillColor=#fff2cc;strokeColor=#d6b656;rounded=0;hachureGap=4;glass=0;" parent="1" vertex="1">
          <mxGeometry x="260" y="691.25" width="200" height="118.75" as="geometry" />
        </mxCell>
        <mxCell id="dUxdY9-ZrJmHRpGlW5pJ-27" value="" style="shape=image;verticalLabelPosition=bottom;labelBackgroundColor=default;verticalAlign=top;aspect=fixed;imageAspect=0;image=data:image/png,iVBORw0KGgoAAAANSUhEUgAABUgAAAD3CAYAAADPJr6lAAAACXBIWXMAAC4jAAAuIwF4pT92AAAgAElEQVR4nO3dDWyd5Z3n/dsvcV6c4KQYesIWbCbMUCpaG3V2mzIRNh0x7fOwTMxoZmiXleyUjlQ98gpn9lkRFkYxGlhAOzsx6pGekaZVbGn7UGZmi720O2VQi82klHbbSVwQlDZpYtomh3AgMYnz4tfV5fxPuOP45bzcL9f/ur4fKYLOtDn3uX18n/v63f///6qam5sLAACISz6bsfmLZqSxO9duwXGkLp/NNAdB0KXw0Icbu3PDFhwHAAAAAKVq+cEBAIAgCExAulvpiSAgBQAAgLfy2UyX5cUO/Y3duX4LjmNJBKQAAAAAAACAXqbYoc3io7e+oKHagmMAAAAAAAAAgFQQkAIAAAAAAADwFgEpAAAAAAAAAG8RkAIAAAAAAADwFgEpAAAAAAAAAG8RkAIAAAAAAADwFgEpAAAAAAAAAG8RkAIAAAAAAADwFgEpAAAAAAAAAG8RkAIAAAAAAADwFgEpAAAAAAAAAG8RkAIAAAAAAADwFgEpAAAAAAAAAG8RkAIAAAAAAADwFgEpAAAAAAAAAG8RkAIAAAAAAADwVi0/egAAAABanXnliaa5yVN3m8OfPT/eFsyc3zT/72eO3zg3dWbNwrc1N31m9cyJQ2vNv1evv2a2eu2V7y/21msamkcL/1697urB+X+pXfvj+lsf3seHBQAAtxCQAgAAALDexEsP9cxNn7l5bvL0DTPjR1rCQWe5Zk8frZ49fXTjYv/z6XdebQv9x4v/fvZfskF1/ebp6nWNp6vXX3Okqm7DkerVDSNVdRueXbd11xifJAAA9CEgBQAAAGAVE4aaatDZU7/aOns231BpEBq12YljtbMTxzYG77zaGgSB+dMRBMGesz/92lxNQ/O4qT41VaeEpgAA6EBACgAAACBV84HomeMdpjJ0+p1XF63o1GBu8lSVOX6pPjV/9pw/9NzZ6g3XHq1Zv3m4et2H/5LAFAAA+xCQAgAAAEjUxL7ee2bP5j8/896b7ZoD0WKY6teZE4e2TAXBliAI7jOBac3GG96s2fCRgfrbHuuz/x0AAOA+AlIAAAAAsTOh6Mz44V3Tx396s2lR9/WMS2A635p/7md/99e1mU/+suaKpr9f3/7kgxYcHgAAXiIgBQAAABALQtHlmZb8qbeGTXXprvM//+YDhKUAAKSDmxQAAAAAkTnzyhNNM6d+3Td9fP9nbdtcyWYLw9JV/+rW0ZpNv/0f6m99eJ/v5wYAgLgRkAIAAAComNloafrkoW4T8nE2K2PC0snDz7cGh5//56lfjZysverm/7H+M3u+pPk9AQBgMwJSAAAAAGUx1aKzZ97+i8mx4U5a6OMhu+Lfd/7gt75Yd137S9VXND1MVSkAANHiJgYAAABASebb6E8eGph8a/g2U+3I2YufOc/nDz7XFgTBP0/nXztU23hzF0EpAADRICAFAAAAUJSJlx/dNnPiF1+Z+s3LLQSj6ZmfVfrW8D/PvPvGr2oamv+6/rbH+nw9FwAARIGAFAAAAMCyTMXo1PED32W+qF0mx757bRAEe6aO/Wj3qn/1e1+u39b7jO/nBACAchCQAgAAAFgUrfQ6yJzSb0y/97PHaL0HAKB0BKQAAAAALnPqhe5nJw8/v51gVI+LrfcnfnGg9sqbOtZt3TXm+zkBAKAYBKQAAAAALpp46aGe84f+139lV3q9Jg8/3zr1m5cPz5z69dCGO7J3+34+AABYCTc9AAAAAOY3YJrO/e+/nzr6wwxnQ7/5Xe/f/IeO6eP7z9Rd2/6f2cgJAIClEZACAAAAnjv1nT8bZs6om2ZOHFp79sShPdMnD3Wvurr192m7BwDgcgSkAAAAgKcm9vXeMzn2wl4TovEZcJuZTzqd+8nh2XMnnlzf/uSDvp8PAADCCEgBAAAAD5mq0fMHn2vjZ+8PUyF87rWBXTPv/axr1TWf3ko1KQAAFxCQAgAAAB6hahRmzux0/nWqSQEAEASkAAAAgCdOvdD97OTh57czaxSFatLZidznaq+8qcOHatJ8NrMxCILWBf/n9iX+6yeDIDiw4P92oLE7dzKmwwPKls9mCp/jxT7jxRou/Pcau3PD/DTgGwJSAOrks5nmIAi6FB76MDcbAIA0nHnliaapoz94hR3qsdDk4edbZ04efGNu+tyO+m29z2g+QaEAtFWCokJoFNkoiXx2/ldoXMLTQoh6xPzhPg9xymczhc92s3y2zWe8JcKX3F34F/mcG2OFz7f8MZ/xk43duYUPDwD1CEgBaNQc/gJXhhtnAECiTEv9+V8M/ffZiWPc+2NRZtzCuYnjT89Njt+x/jN7vqThLEkY2i6BUeGfDQm9fEModN0eOqZAAqUD8meYqlOUI/T5Lny205oX3SR/Cq8/vwaTz/pI+LPe2J07wg8bmtVKKfZSbQU2M180g3z6PiAX0R5bjqcUjd25Xj1Hm4x8NtMjTwW16efL0Q75bKZLwmQsrTmfzdh8/aHqWIEFLZuVtLgVqjOCUGXSEa6pqMTp7+386vmD3/oiLfVYyXzL/etP3zd79r1PXnHnwC22nbAFgVF7xJVzUSoESttDYdKohKXDrGGxFKkQ7bL88x3WFg5u89nMWOFzTmAKjWrl5ltjJZb55ePL5VIdWqvq8tkMoVqI3ADuseaAijdO2G2VrhSfNmvRpOC6SUBqEXmwHG5xi/J3bNG/S6o0RiU8LVRqHOB7EysZ/5+fPzj11vAWThRKYVruT3z9986s3nLXTWnPJZWxSh1yT6MhMFpKi/y5X67pQ/L9Psi13G9yX9Eln/OkKqDjYu6rO+VP4cHAoHzOacmH9WrNB1WS/iZlP64m84XJF8olOiw6llKZY+/Tdcix0vqz5KEFAGfIwjzcvpnm4rywuA63co6FWjiHWXygwMwbnRz77oHpd17V2IkCC8y33L/xzMG56XP/Pum5pHLt7ZH7YW1r1GJtlz97JETqJyz1R2g/hS6HP+NB6N5lt9yz9Ln6Oc9nM3MWHIbtzOfA5sKU2wtziEyocX/KB1MOQjUhFYfbi/ov26mLn+UltAakVLoBUE0qOTqUtLeF2zjNsY/LPV2hKomZdx4y80Ynx17YawIu388FKmNm1p57/etPz02fbV3f/uSDcZ5OWct0SDCquVK0HC3SOWbC0pFQWMo13DFyj9GjfN1erqbQ53xIxrJRXAOrFALSYaUBKaHaBzRXjxotVARfoDzs5ksOgDr5bKZDvke1t7c1hFrb9lKV5B8Tjs4HWswbRUTm55K+NrArmJ28Ko7Nm2TmYk+hJRcXZzr25bMZc1/dy/VbP9kXoNfxatFSzFdQh6pK+3kgABtUBxc2yDEX33GFP5EWKU+Hzo22FtIe8kZF63kY4osNgBamisPMv85nM+a69awszrXP/lqoUJV0OJ/NDJsFmjyEg4NODz/wOOEo4mI2bzr1nT+LrFNIrkfm79tPOLqowgOvwvXbhbWed+RzbgLuvYSjiypUlR4xm6Zyj4K0VYdeX2vlF6HaBS6cB774L9B6HqgeBWA1c+Odz2Z6ZLHyoqOh6FLaZIF2RILhUnfYh8XMTvWmyo9wFHE6f/C5NrPxVyUvsSAwYiPJ4pjz9KI5b1KJCMvJQ9gDBKNFa5BNUwlKkSoXAlLvQzVpDXRhgbedi+E8NmgCgAiZbhMTCgZBcEIqFXxerBSqkvYXqkotOCZUYD4cff3p+ziHSMLUW8NbyglJqaSLRJOMTyEotZTcbwzKQ1jfZulGoRCUHuAzjjRcDEgVD8glVHOritbrimDFYfcI7fUAbCMVHKaF8zAtnItqCy+2uZ/Sh3AUaSglJCUYjUU4KPW+WMgWpvLRBHuebsAUtcJnfJiRikhS9YLXGlJ69n1vsycgdQfVowBQoVAw+iItnEVpCrXf09qmBOEo0rRSSEqLcSKapPV+mLEp6THnXj7ruz0a25OUNpnD2+vH20XaFgakzCFVRp4aunQh9v2JGwEpAJSJYLRi4RlgtLZZjHAUNlgsJKXFOBVtMjalnwdcyTJzzYMgGOazHrvdJoSmmhRxcyUg9TlUcy4cljZz7ygOu0cbu3NHLDgOAJ4KzRglGI1GQ6h90/fODusQjsIm4ZCUFuPUdfKAKxmy6WO/zDWnajQZLcwmRdwuCUhlhqDKNnuPb+BdfN/8LHXpV3rcANzQwYzR2Jj2zWeZAWYPwlHYyISk7+39xE9pMbZCA7Mb4yXndZj7jlQUPt99Hr53JGBhBWlAm70eMmvGxZk+BKS6DCs9bgBuoK0tfhdngNG+mZ7Tww88TjgK21TXb55e+4n7ds5OHL/NdBXxA7JGm1Tb9fh+IqIk6+8D3Huk7n55CMA9CSK1WECqNezwMVRztby8wbeKYMVh91hjd+6ABccBAIjfbllws2tywib29d5z/ufffMCrNw3r1V3/2QNrbrrnhvrbHuuTTkSzNhnnJ2cNU223hyApGtLavZ8qaWuYhwBUSiNSlwWkMktQ49M/70K1IAhcXqD49rPUGnazORMA+KWwa3IfC+5kTLz86LZzr3/96bnJU1U+vF/Yr6puw9yamzufuOLOgVvWbd01VjhgeWjeTkhqnTaZTcrDrTJJOLpX5cG7rTCXtNX3E4FoLFZBGiieKehNqCZPSlwu7fftC1zr+2X+KAD46X4WJfE788oTTZOH//GfCEdhi5pNW86uubnztvXtTz642CFJSEpbt30a5OFWr+8nolSEo9ZrkEpS7kdQsaUCUq1VYT6Faq6HwU2+XOQUh9201wOA30w16X4W3PGZOvqDV2ZOHFrr6vuDLquuaz+06d7vr6u/9eF9yx14Y3fOPEB/hB+vlXbTcl88wlE1CEkRiUUDUsVt9t6Eag7PHw3z4T0GbM4EAFCOBXcM3v925/6poz/MOPfGoNKaj33haw1/+I0bij32xu6ceXAywE/bSm10AKyMcFQdQlJUbKkK0kBx+OF8qOZBe32BLyMTmD8KANCOBXeETn9v51cnDz/PuUTqzLzRta1f/vz6z+z5UhnH0sPO9tZqkjDJx42OVyTfZX2WHyYuZ0LSfh7YolzLBaTMIbWXL6MEnK8IVhx2jzd25whIAQBhhZZ7XzpAYjG/Y/3Bb33RwbcGZebnjX7s3i/Ub+t9ppwjl53tO9i0yVomTHqWa/alZH02zG71arVI+E9IipItGZDKbMExhafUhzZ7n570uR4Ga31/hKMAgKXsNbvcc3ZKN78p09gLe9mUCWkz4ejqLXfdVG44WiCj2wjg7MY1W0ioNkg4ql4LFcAox3IVpAGbNdlHLtrbXX1/i3D9hkpr2E1ACgBYzv35bIY2txJNHT/wXTZlQtpWXfOpnAlH123dFUmxjHQdPcUP1mrz12zfT4KEaj6MsvNBZz6b6fH9JKA0rgakLodqvs2JaZE2B+doDrtprwcAFKGTNrfinR5+4PGpt4a3aDleuMnsVN/wR0ObowpHCxq7c8wjtV+nzyGpzGPttOBQEJ09zEZHKZYNSBu7c8NKZ8Y4G6p5GJAGDr9nre9ryIJjAADowCywIky8/Oi28z//5gPWHyicNh+OlrBTfRm6mEdqPS9DUskOqKB1E90sKNpKFaSB4ipSV0M1n9rrCwhI7UL1KACgFISkK5j61chzzB1FmhIIRwt7XPTyg7aejyFpP3NHndXCdQfFIiBVRMr+fdTm6KJKa9hNQAoAKBUh6RJOvdD97PQ7r3JekJokwtGCxu6cmfE4wk/bet6EpLLGbrPgUBAfM2PX9c2fEYEVA1KZNaixFcLFUM3XgDRw7b0rDruHGrtzJy04DgCAPoSkC5jW+snDz/vYHQRLmN3qkwpHQ2i118H5kFS+j2it9wO72mNFxVSQBlSRWoOA1B1a38+wBccAANCLkDSE1nqkyYSjZrf6pA+hsTt3hJZXNUxI6vIGyD201nvD7FPDdQfLKjYg1RqKOBOqScWhzxfv7Y4tppg/CgDwFSGp2bX+ezu/Sms90lJdv3nahKNR71ZfLFrtVdnrYkgqGzP1WHAoSE6P7/ceWJ7rFaQuhWrMzHAk8FYcdo/KE38AACrldUh65pUnms4f/NYXLTgUeKiqbsPc6t/e/u/TCkdDCKf06MtnM62Ovadeqke900D1OpZTVEAqMweHlJ5JV6pIfW6vL3AlJNb6PpjPAwCIUouvM8Gmjh/4Lq31SMvq3/mjJ+u39T6T9g9AdrV/JO3jQFEaXHqoJdWjnRYcCpJ3v/z8gcsUW0EaKK4iVR+qydO6JgsOJW2E3emivR4AEDUz386rkHTipYd6pt4a3mLBocBDq2/848H17U8+aNE7N7//aVeyojgNDu1H4PJcVayMKlIsyoeA1IVQjQv4BQ2Kd3+fpzjspr0eABCX+x3fBOQSU8d+tNuiw4FHVl3zqdyGO7J32/SOpVORsEKPFu0720sVLOMd/NZJFSkWU3RAKl9eowrPovpQjfb6S2g/F1oXgOxeDwCI014H59tdho2ZkBazKdOqaz691cYfQGN3rp8Nm1TRvrO975sf4wKK0HCZ2hJPifny2qPwNHZorYCVJxu013+AsDsdzB8FAMRt0ISk8lDeSZNjw8y8Qyos2ZRpOaaK9MUEXmc8CAIz+/Sk/LNgYTGAeZARfmhTGNvWlsAxamA2bTogc2S18b161FwHjsjn2+eg2Oxo3+fyPQdKV2pAOqg4INWK6tFLNcjiSd2XseKwe0zpzQ8AQJcmudd0ZVPGS5x6ofvZ2Yljpd57AxUzc0dt2JRpOY3dObMB0EjEAeS4BJ8HCv8sMQxZtMBGWrRb5VpV+KdvQVODFFCoqvyX9ViLBYcSt7HQZ//ASp996eBolp9nhyfnqEHeK4VAuKikmzQzgzCfzYwq/IVRG6pR+r2oLqVP/ticCQCA5bXls5nexu6cUzMJz7zyRNPk4ee3W3Ao8EztVR8/advc0WWYe/zDFf4dI3LvOhzX2k+CpuFw1akETO3yHnwIlwKZR6rteu1y8dGYhH39pe4dIb8rB+R3p1ceAnTI59nlqukeAlKElbJJU4HWsERd0OjRE65Saf1i0xp2E5ACAJK027V5pDMnDw3MTZ6qsuBQ4JGqug1zq65tu0vLO5ZQZ6CM/6kp4NkRBMGmxu5ce2N3ri/pwhjzevK65tp1fRAEO5Xu31EqbddrF4uPTDC6o7E712zC6ig21jUPAcxsYPP7JJ/ncn4vNWhhsyaE+RSQagzVaK9fXJO2hZPisHvctDxZcBwAAL8MSgWLevPVo28N38bnF0mru/6zQ/W3PrxP2YkvthrRtM8/ZcIbE0pKmGPFLEETUIXC0lskXBq34NDioqICz8HiI/OZ2inBaGw/A/k8dzkclPo+kxYhJQek8jTO5gHfS1EXqhGQLkvbuaG9HgCA4jWVEJRYjepRpEFZa/1FRVSRmnXoI2ZeYmN3rieKark4SWVpl8x3fMTRoHS+1d6C41iJS/OtTXWyeTDQl9QLhoLS25XmQUshc8FF5VSQBlSRxk+qJtglcWkEpMkgIAUApOX+fDajfkFL9SiSpq21fhGLhW0mWHwk1EasaudpaVnudTgo3a2gVdmVgNSEo+1pPRyQ7sJWh6pJNRbSISbl7qRpSrjvV/hD6VBUjcCTjOXNzwux/alxoDvsNu31BKS69Yc3EEjAboVna8zy1jBGXMB3/bLRpqowpOD093Z+lepRJK3uuvaXFLbWXyQbA4d3tDeBYp/W60CYvAezCU6frEs1rqmX0m95COlCQFoIR1P9XZDX78pnM+Y+dW+axxKRDtmkCp4rKyA1rQL5bGZM2p80UROqEZAWxZyjxNoKKjxOjQhmlItzHtFi8tmMxoD0iGu7ZcMq46Eb7pOL3HybioXCnM1mhfdVSWiS+WAqf08nx4Y7LTgMeKS6fvP0hs/9rfogqPqKa/+/2dO5NcHs1OeVrN1KIgFTTz6b6Zf1jAudg235bKbDxgILKVjR/h07ZkM4GmbWGvls5qSE4w22HFcZoiikG0nweDcqnadrPsM2X89PlltBGkh4ovGmz/pQTS7g2y04FNt1EZDGiupRACjeiASg83/K3UFZ2ryaJTxtl39qXnREwbRuDia9K3WlTg8/8PjsxLFK7rWBktVd/wd/pf2szVdenzv5xbqmz4xeceeAc+FomFzX2vPZTOFBkPbrfZ+lawgXWqg7bKyiNoG4jMMZVvz5NYV0Gys5v7LjfyLkfL+Y1OtFqN/2wpRKbtoGlQakGkI1lwZIx8n6imDlYTcBKQAsbUyuk8NRVsvIYvlA+BosoWmH/HFpB95S9Gm7P5p++1++bMFhwCNmY6b17U8+qPUdn3nliaapoz94ZeroDzPmP0/95uUW839bt3WXSxvCLMpstiPtyv3Kr/NmnmOvhSGI9vX1UzY/JJQO4x7l7fbtrH9R7iZNgSwGNA6XblEwQJr2+uLZ/mWn9ct4yIU5TwAQsXHZlOB22SikJ4lWQtkF2Sw4TVB6vVkoObaDbDHmWzftP8wLJl5+dNv0O69uLOa/C0Rl1eZ/84jWkzmxr/eec288c7AQjhpmfu/smbf/It0jS45c61vlGq9ZjxSJ2MT29f9KrB8zI6O9dlpwKOWiSA3lB6RCa8Ju+4efgLR4tp8r2usBQL8xuek3oWiX7OCaCtM1IcGsWeztSHjmVdo0jNWZN3PiF1+x4DDgkVXXfCpXf9tjan5HwkxL/bnXv/70YiMppo796N+lenApMNd4ub5r3em+QWZH20RzQDqgpXDFVEKbQhsLDqUcBKTwNiC1NrSS6gjfZ42VYruFTyjDCEgBQC8TjO6QalHrdlA21Roy8+p2T4LS+dZNC45jRaY12PJDhGNqM//6TzS+o/e/3bn/3OtP32eqRRf7/8+cOLTWVJcmf2Tpkmq8dsUhqW1VpJor+rWty7q0dhpbcAxIWaUBqdZdrm0O1ageLZ2V50xx2D1Kez0Az5kbe9Oq2iqLVKuZilYJSnd40HpvY+vmJeY3mFki7AHisOq69kP1tz68T9vJHf+fnz84efj5FTfPmX7vZ48lc0R2KWzgZO7NFR6+bVWkWsOv8SRG+URJ1pEqHmYuJJsfwWMVBaTy4ddaQm1rEElAWjp+ltGyPgwAgBiNSDDaq+1hkYS5LsyvW46NrZuXmDn5yzstOhx4oPZDH31I27s04ejUW8NbivnvTud+8lvxH5GdlIek1j/QUsDajZmWI632Gh/YrvjABm6rtII0oM0+OrJLLe31pbP1SY/WJ1C01wPwkaka3WkqMc2cT63v34S6Mr/udoerSa1ddF/YhfuDTWaAuJmd6+u39T6j6USXEo4GslnT6eEHHo/3qOwlD+s0hqTWP9BSQGvHbqC0ilT7Zl6okM8BqY3hVZcFx6BRg20720rY3WTBoZRqVHMwAABlMovOdql4cIJsJNWquNNnOdYuumdOHPQ2xEE6tO1cX2o4WjDz3s+8XicpDklZ3/pLY05EBannKg5I5WKtcWMA60I12usrYtu503ozQPUoAN+MSDiqso1tOVJN2iHzVF1jZUA6/d4b3MshMdX1m6c17VxfbjhqmMpsU6Ed/VHpEQpJNW2AYzbXIyT1kNJxjFSQeq42ordvQpU2haeyw5ZASHHFoS0Iu6NBQArAJwON3TnnF25mnmo+mzHdAXstOJyomAfdXTZtojXx8qPbzI7bFhwKPFHX1D6g5Z2eeqH72XLD0YLZM2//RRAEX4r0wJQxoZNsJDOsaDRbD3sc+Eke0gJqRNFiHzCHNBJcPCrTYMuuc4rD7jEXK6gAYAlehKMFEiTusONoImPVfLPZidx/tOAw4Imqug1z1es+/Jca3q2ZH3r+zX+oeK3DBmgXyP26pu+vFlkfoXRscgUkKJKAVGYWatxZz5pQjYA0EracQ6pHAcBuXoWjBQ6GpE0W3ccFs6d+tdWCw4AnajOf/OW6rbus34htYl/vPed//s0Hovi7pvOvfziKv8cFjd25QWXjU9isqTxaN/0FVIqqgjRQXDafepiVz2bMrIuWtI/DAQSklaH1BYAPvAxHCxwMSa1YdLN7PZJW+6GPPqThpE+OvbDX7EIfxd/l+272C5nxKYr2AqEYqDwtkhUASECUASlt9rqPwQVNabdvKA67x2mvB+CBIZ/D0QIJSXfacTQV227D4nH23Ikvp30M8Mf85kzbep+x/Q2//+3O/VHP5Z2dyH0uyr/PAR1KNm1qYLOmsqnZiA3QLrKAVNrsrW/zWETqoZriHc9tlPa5pL0eAOw0yvftBxq7c2bBpWaDlxWk/t078/7Yn6R9DPDHqo/83rdsf7MTLz3UM3n4+cjXWNPHf3pz1H+nZrJTuJbvtjSv1RrHARZsJ1wGkhFlBWmgOGRJ7YKTz2Y20l4fqbQXSVq/vAhIAbjMVNd0yUISQqppNS8aC1Jvs595902NmzNCqer6zH+z+cjNyInzh/7Xf43j756dOFY78fKj2+L4u7WSeaRDCg5/u6x906D9+7+Pja6A+EUdkDKHVNdru6gprVY7xWH3uNxYAYCrehgjsiQt7ZnLSbUbyIQ1JrRJ6/Xhl5pNW87W3/rwPpvf9MzJQwNx/k7MnXuXarrLdSm5lqe19tUekDYEQTCcz2bIDoAYRRqQyuJDa5t9WvOruMhFL61zSns9ANhnSGZuYhEyIqnXgXOTWmBCWIMk1V59y/M2n3DzwOD8wefa4nyNmdPH2Nl7AemQ0HAtT2u95MJDUhOSPpvPZlz4zgasFHUFacBmTcWTisPtSb+uB9JaqBCQAoBdxpk7ujKZR6plJ+SlpPYdTFiDJFWvbfyGzSd8Ove//z7u12CkxeLkWm57sVJa10uXukh257OZA/lshu8eIGJxBKTDSn9IaSygqB6NR0vSFcHKw26tv7MAsJJe5o4WTXuQnFqbPWENkmL77vVmY6apoz/MxP06zCFdVuozmVfQkFKwdySF14yTGev2Yj6b6U+xExZwTuQBqcwy1DjLKvv3PE0AACAASURBVPFQjYA0VkmfW60/yyHCAwCOGpVqGhRBWu0fUX6uEg95zWY0zB9FUmquvNHq6sCpYz/andRrzU2eujOp19JE1uK2dwQkvm5yeA55ZxAEhyUopaIUqFAcFaQBbfZF4yIWn6TPrdafJe31AFxlexWNjfqUb9iU+Hfx3OSpu5N+Tfir5oqm2NvXy2WqR6ffeTWxHcpnJ3KfS+q1FLL94WBa6ybto2SW0ykVpab1vku6GwGUiID0UoldrGUHuoakXs9D2xP+YmD+KADYY6SxO8f4kBJJR4HmqtvEu4FmzxynGwiJqV6z6W9sPdvT+dceSPL1Zk8fpa14CVJFanO1cUtKAZ4P9wWm9X6vGSkgVaV8RwEliCUgVdxmn2SoxsUqfomcY8Vh9wjt9QAcxQ6v5aOKtASzZ47fmOTrwV81m7acXbd1l5Whl5kHmsTs0bAkq1WVsv17MI0qUp8KQxqkqtTsen+SsBQoTlwVpIHiJzRJXTi4QMWPn+XyqB4F4KJRqkfL50AVaaKL7pnxtxqTfD34q2bjDW/a+uZnTvziK2m8Lhs1Lcv2gqXEN9WTOaSaHwCWKxyWzuWzmUFpw6cKG1ggzoCUOaRLkAHKtNfHL6mKYAJSALAHGzNVrl/xsSdbQcoGTUhI9doP/cTWcz31m5db0nhdNmpamjzssvleP605pKx/gmC7tOEflpmlfWzwBFxAQHq57Qm8BtWjyYn1Yq847B6VHYsBwCXjjd05zeGeFeT7YUjp4TclVRVjNqVJ4nUAo6qu4QUbT8Tp4Qcen5s8VZXGa8+de+/TabyuIjY/MGxL6XW5R7iUebhxv2zwdJLqUvgutoBUnlqpvLlOYD4HAWly+FkujpsDAC7i2hYdqkhXMDd95uYkXgcw6rf1PmPjiZh5f+xP0nptZgAvT1rKrd2sKZ/NpNFmP2z5BlZpalhQXXpEqks72BUfvoizgjSgzf5y8kXQFNffHyOtXyQEpItjPh8AFxGQRkTxhptBUrPt5iZP35DE6wC1V33c2k01p3M/+a20Xntu6syatF5bEZvX42lVKTKKpzhNUl36bBAEJ/LZzHA+m+lJI9gGkhJ3QMpGTZfrivHvjpP5ch1VeNwNcVUEaw675YkyALiEa1v0tD7oTmTxRvUaklK9/horxyKl2V4fsJN9sWx+cJhW0Nbv6WZNlTJjEfYEQbA/tDN+F9WlcEmsAanMsCJUu5TWAcj9iitz4vpZag67AcA1XNuip/WcJjLbjuo1JKWqboOVAensRO5zFhwGlmH5zu2pBKQyCpCOk8oUdsbfu6C6lNmlUC3uCtKAUO0DcsFIZZfHChWqcrQulOIKpTWH3QDgGkaHREza7FVKogVwZvyIxk0aoVD16oYRG4965uTB1Kuo2SytKLZ+P6YZpvVSRRqpQnVpeHYprfhQJ4mAlFDtA1rnVc7/DBVXBDdFfYF2IOwGAKdoDvMsZ2UwU4TYF95pthbDM7Vrf2zbGz7zyhNNMycOrbXgULAyWwPS1NZSUkXKLNJ4FGaX7icshTaxB6SEapfQ2pI9vMS/axL1uVcddgOAY7SGeBpo/d6PdTE28fKj2+L8+4Gw+lsf3mfbCZmbPHW3BYcRzJ4fT2SkhnLWXsdTnl/ZRxVp7BYLS2nDh7WSqCANFN9cRxaqKa44HF9QlcPIhAtcCLsBwBVc2+Kj9dzGuwCbPvu7sf79gKiu3zxt47mYPXPcjmKBmfObLDgKq1nePZZaZaFUkWpd02lUCEtNG/4BNniCjZIKSAnVHKk4lC/YsfQOp2yRVQQ7FHYDgCsYHRKTxu4cASmQoup1jadtPP+zZ46nPn8UJaHTYhGyNhqy7sDc1yIbPB2R3fBpwYcVEglICdXmad3QZ7FAzfe5srTXA4BdCEjjpfEeLtaAlLZe+G72bN6KTcpmxo9oLFpIwxFLj8uGNXIXrfapKeyGv79QVerpeYAlkqogDXwO1aR0fHs0h5OsJSoOtVYER3XBdSnsBgD1ZN454qMxgG6K9W+nrRcJqWlotnIvBzZoUofvySVIq73WAhiXzFeVyqzSXtrvkYYkA1KfQzWtF9xF2w2kIljjU7aWSodCOxh2A4B2tA3GT2WFLosrIB5mB3tOrToEpMuQcTKPWHuAfjHXl93Sfk9QikQlFpD6HKo52pKtNWyr9GfhVNgNAA44yQ8xdloX1sw0A2Jgyw72KImt13FrrtON3bneIAgGLDgUXNBAUIqkJVlBGngcqqmsOHQ0IK20Ipj5owBgF+aPxo/KIwBWmhk/YsUsVJTNqtCrsTtn1opWjrXwWDgoZUYpYkVAWpyyQ7F8NqO24lDmsSxK2rW1VgRX8kXsYtgNAABKwMYwSEr1uqutu4ebm53+sAWHMW9u8lSVBYdhPWkhR3HaCUmt1CAzSs1mTlr3BIHlEg1IFYdqbRWEaloD0mK+RL0KvF0NuwEAWI7ihTUt9kAM5s6992nOK1wl6yZCUnuZB5Qv5rOZPtruEbWkK0gDD6tIXW7J1rpg8u1nyRNjAICPWDgBAEoWCknZCNJe90vbvdY1OiyURkDqTagmv6wa5+KMNnbnipk3pjXs3l7m0ybmjwIAAACA40xI2tida2fjJquZrOVZqkkRFSpIi1dOqKZ1NkZ/Mf8lebKmdXf0ksJOD8JuAAAAAECIbNy0k3NiNVNNOpzPZhitg4okHpD6FKp5UnGoNfAuNbx2OuwGAAAAAFyusTvXFwTB7Ur3U/FFi4SktNyjbGlUkAY+hGry9KIp3sOJRakVh77MlKW9HgAAAAA8JBsWNjOX1GqFlvte308EykNAWppSQrIuGw64DCXNiJWKYI07/DUU+3TJo7AbAAAUoWrVunOcJ/iqas2HfsAPHz4KzSXdSTWp1Xbnsxk6KVGyVAJSH0I1xRWH5VxItF58iv0ZeRF2AwCA4lSvu/pNThWSMHvmuHVriqrq2rctOIx5VXUb5iw4DOvlsxmt48KsJC33rVSTWq2TkBSlSquCNHA5VFNccTjW2J07UMb/zvWKYJ/CbgAAAECFmoZmqvh0U9vtZjr1pJr0brOOtuCQcDlCUpQkzYDU5VBN6xO6sn4m0sattSJ42Z3uPAy7AQAAgCVV1W14lrOjTrOlB6x+HFhjd25Qqkkfoe3eSoSkKFpqAanLoZriluxKQmutF52VflZehd0AADjkJD9MaDc3M9lg21tYt3UX1XL62BqQOkFmk/bKeR7w/XxYiJAURUmzgjRwMVTLZzPmotiS7OFEYlx25iuX1nmXK1UE+xh2AwBwUREPhm0VWydFVd36g3xCkITZ00etDLZqr/o4DyB0sfU67tTnSIJSs368nqDUOiYk1bq2R0LSDkhdDNW0zqusKFCTdm6NT5Obllr4eRx2AwAQtpGzcamq2nWv2XQ8QNKqVq07Z8NJr2lo1tiRmAZbK0idHAkm80lNGLeJ1nur7GXDMiwn1YDUxVDN14A0wr8jDUs9SfL5ZwkAWmitbtSE1kwgJTPjR6xrsTeq1139pgWHgeJpLPpQb0Hr/Q42c7LCYD6b4cEvFpV2BWmgOMy5LFSTX7S2dA6nIuMyXLpSWkcmLPUUiYAUAOzHTW78tAak8VUm1a79cWx/NxAyN3mqysbzUb3uajvuN2tWn7DgKKxmecWcF5vKSlDa39idM9+nt9N+n6oGxbkFYmZDQOpSqOZ1oKa4IrhF2ukvIuwGADU0Xqu1UVmlaxakcf3d9bc+vC+uvxtYaGJf7z22nZT62x7rs+AwgurVDSMWHIbtrL2Gx3mdtpUZhRZqv9+hdONq7bYzjxSLST0gdSlUUxyQRjmv0pW5svwsAUCJRb6PES2N5zf2e8uqug1zcb8GMG92arONJ6Jm05azFhwGVmZrBanX4XaoqrRVNnXaSQt+ovpotcdCNlSQBi6EavLLtT3dwylblBWHroxMoL0eAPRgDmm8NM6uOxL3C9Q0NLPpBhIxe+a4lfelNRtvSH0OqS2VrJazNSD1rnp0KbKpU5+04N8SBMFTVJbGzrTac/3AJWwJSF0I1bTuhjYUZWuDtHdrXDBcrAgm7AYAdQhIY6J4t9fYA1JbdvGG+2YnT33ExjdZs+Ejqc5RpIp7ZXINt3KjL1/mj5bKdNg2dud6FlSWEpbGo5MuJIRZEZC6EKpRcRj735mEwiKQsBsAdNF63daAgHQJ7OKNpMydffdKG0+2qd5MM6SkirsoNq9RCUhXEKosbQ3NLB1Qmp3Yig2bcJEtFaSB4sq3wsKBgDTevzMJhZ8hP0sA0IWNmuKjNSCNfeFdVbf+YNyvARjT77xq7Zy82swnf5nWa1etvfLdtF5bEQJSR4RmlnY1duc2Siv+I1SXVqwtn83QiYR5BKSV68hnMx0Wty4sZzSmikOtM2W3S3s9ASkAKKO4Fdx2WsPn+Fvsa9e9FvdrAAU27mRv1G7ckk3rtavrNvw6rdfWQL4Xmyw91HFTHWnBcaglrfi9oerSu6W6lI2eStej7YARD5sCUrWh2iIb/GgRSzm5hK5Dis8JYTcA6KP14Za15AGwSmbhGPdxszkMkjQ3OX6HjSfc/B5U12+eTuO1q9ddTXHA8mxeo1I9GiGpLh2U6tJmmV26Q9bktOOvjFmkmGdNQKo8VGNDn2T/7jhp/VkyOwWA7whIo6f1nI4k9UJpBUPwz8zpY9ZWya/a/LvfT+WFa9f+OJXXVUBBV5zW4igVZHapacfvCLXj70zy+1EhrUVviJBNFaQBLcKJGo25rYGfZbI43wB818QMqchpDUgTq0yqabgun9RrwW8z775pa6t0UH1F08NJv6bZHKr+1of3Jf26inRZ3hVHQJogacc3mz21N3bnqqQd/yna8S9BQAoCUo/Feq6VVwRrE3fYDQBacHMbEcXz1YMkA1J2skdSZieO1U68/Og2G0+4CSpXXdd+KMnXZAf7Fdk+U5EW+xRJO35PqB1/J2t3HrTDsoCUUC1RSYTRPBlMBg8WAOACAtLoaB5ZkNj9BzMQkaS5c+9ae42rbbw50WOraWhm5+4l5LOZLos3ZwrYO8Eu0o5vqks7Fmz25ONDCO4jPWdbBWlAqJaIsSQ2LyC4SwznGQAuaJCFISogGxV0Kj2Hie6MXFW34dmkXguweQ5p0lWkVWs+9IOkXkuhXssPmbWLpRZs9rQxFJb6gnn2nrMxIOWCGb9EzrEsUHi6G6+kwm4A0IKAtHKaz2GiD9rXbd01VrNpy9kkXxP+snkOaZBwFensRO7ppF5LEwXVowEFUXoUwlKpLN3hwdq+id3s/WZdQEqologkdzxnd/V48UABAC7Vls9mrK2ysp3sfGz77LrlJP69WL3uw8wBRyLm55Du673H1rOdVBVpdf3m6SvuHPhp3K+jjVy/ba8eNVX+BKTKSGWp2RXfzOi83fHd8LmH9JiNFaQBoVqskq44JMCLF78rAHA52xeINutRvDlTkEZlUk1D08tJvyb8NTN+eJfNb95UkZod5uN8jZorb2Tn7cX1KKgeZW2onAm4zW74QRDc4mhQSkDqMVsDUi6c8Ul04SAVwdzExGOc9noAWBRVpGVwoHp0LMn5owVVa67kYSUSM3Py4I02n21TRVp3XftLcb5GzfrNVCAuIG3BGq7frPMdYdahEpTe7th6n53sPWZlQEqoFqs0vpT4IowH5xWoHHOG3EUVaem0V4+m8r1oAiHmkCIpMycOrZ14+dFtNp/wDZ/72/Y4fyd4KLGofgXXb1PcwfrFMTIyodWhzZxaLDgGpMTWCtKA8CcWaX0pcRMTD35HgMrZ3oqG8rWxo33xpPpot5bjXUJq9xs1G294M63Xhn9mTvziK7a/6bqmO3bE8fea4NU8lIjj79Yqn82Yh1ttCg6ftYujZEZpl2zkpB5dSP6yOSAlVIteKl9K0gZORXC0eAILACvrk7ZxrEz7fVfSM9YvUV2f+U5arw3/TB//6c22v+n6bb3PrL7hrsjnE/Iw4lLycEtLxwRrF8eZjZwcCUm5d4yH9cGztQEpoVos0vxS4gsxWpxPICL5bIZZQ+5q4IHryhRVHy0n1e/F9e1PPpjm68Mv87vZv/SQ9fMmTat97VUfPxnl31mz4SOutPFGZVDJaBSKOzwhIelTyt8tawNP2VxBGhACRS7NgeYMU48WvxtAdJhD6rbt+Wymw/eTsBRl1UfLST0IX3XNp3JpHwP8MX3yULeGN1vX9PutUe1qb/6e+tse64vi73JBPpvpVzQvkYeVHmnszvVQ7IZFWF+Za3tASqgWnSEzGyStF5cnhuNpvb6D+N0AosNTYvf1SxCIy2mpPlpOqu31BTUbf+vbaR8D/DH11vCWM688Yf0c7XVbd42t+di9X4ji76rNfPKXUfw9LpAZ252K3grBtn80P3xlBmk8rH+gY3VASqgWKRsqDql6jEaqYTewDK3Xa26C3GcCwEHmkV5KWfXRcqyoTKpe9+G/tOAw4JGZU79WETqZeaRrPvaFr1X699Rc0fT30RyRbjIaaK+iNzHS2J07YsFxIFms/XEZ20eb1VpwDCsZVPZ0zFa2BKT8LCvHlw1sdUDpHEPtsxdRnBapYGFne53VR8uxIiA1lXJTR3+Qmzr6w4wFhwMPTP36+/9Wy7tc/5k9X5qbPH3D+YPPlfWda9rrmfV7MVzQ1kmWaJAvHSOHk3zNCOxs7M45VWVrCnry2cwI99lYoFXWjFayvcU+IAyKxIgNFYdUBEeG3wkgYsyo9EanVE16TcJRTdVHyxmyqTKJNnskyWzWdHr4gce1nHSzadOq69oPlfO/pb3+knBU01iUsaQ3Z1JarerquCetlcO2j2WyNmAsgtWde9YHpIRqkbApUGN2ZmWsCLuBJWj+bBKQ+sPrkDSfzbQ7FI4Gtm38QZs9kjb99r98WdNJb/jDb9xQTkjqe3u90nA0SHEOpbb8wNVxT1oDUqvnOyvPA6xec2moIA0I1SpmU0BK9WNlOH+wmeanmZ3Mp/SKlyGpVI669D2SeGXSSkybfbkVckA5pt95dePESw/1aDp5pYak1fWbp31ur1ccjo6n+J2j7Z60ydHNJNkIFQs12Ny5pyUgJRQq36hlbQb8LCvD+QPio2qBiYp5FZKG2uq171gfZuUOub5XuiF5U8d+tFvbaTchad31ny0qxKq9+hOvxX9EdlIcjhp9KVa6aaxcdLGbieKD+IwqPnYC0goRCpXPqsWffEkOWXAoGtkWdgMLaa/276GK1DsmJHV+d/t8NtPrWFt9kHJl0rJMpZupeLPx2OAmjVWkxhV3DtxSzO72NZt++z8kc0R2kSorreHoeNKbMy2gcc3k4iaSbNAUH81t9p22VkyrCEgJ1Spi4+KBwLs83m8sAutpn4/bkPLNPNKx3SxApUrHKSb4NQFwEATqqsuKkGZl0opWbf7d79t6bHCTxirSQHa3X/uJ+3aaXeoX+//XXvXxk/W3Prwv+SNLlzzYelZx1X/a12iNY59aXLoXUf5eNMyw1TzaLLC1C0hLBWlAqFaWMUsrDpkpWx5+B2C1xu6c9i/qQJ5oujooH0trkZDUmTEL8jk+IAGwa9KuTFpR9RVNDzt31mE1rVWkRv1tj/WtubnztppNW84u/P/VXnXz/0jnqNLhyIMtG67RWu9JXRr3pLkiVsPnR3thSqeNIbqmgJRQrXRWBmoS2mqemZEGW8NuYCEXfredb7nGokyVzp58NjOseaMEWVybhemLtu/CWgGrq0cNU/HGZk1I2uSvhv+L1pNufmc23fv9deG5pPObM31mz5fSPbLkOPRgqyfta7Ssm7TtZB/Y3HpcBhdHBtjEhXzMuofdagJSQrWy2NySTbt4aagehRYuBPkNUk1ISOonMy/rgLQ3qiLz6szi+n6Hf3LWV48W1G7ckrXjSOCLmROH1p7+3s6van67Zi6pabk34agvoyoce7BlijpsWedprSJVv06WjSFd2hTSRtorSI022+63NVWQBoRqJRmzvN2VwK80fPahhQtt9oG0XDOP1F/mpn53Pps5Ijf5VjNVR6byVebVuVo1WmB99WiBaRterGUYiNP5g9/64plXnlB9HTC/O0Ew9/+c/+U/Xu362JtQ1agrD7Zs+s7UWmHXJg88VZICA3UPmRew/rPjyGizQO63rfm8awtICdWKZ/W5oiK4JLaH3UCYS+NQTJvTASpJvWZChr2FoNS2z4K5oZRg9EVPdoo134eqFl2rNv+b/9+Cw4BH5iZPVU2/+4b6NdPsRO7eYHb6JnN9y2cz/Q61Hc8z70dmjbo0DmWosTtn032g5vWT5s98rwOfaS3VmSMWHEMU+m2ZR6oqICVUK4mGkIK5ssXhwQDUsOzGOAotru5wjpLMB6VmhIQs1FP7PMiiuteEtlIx6kMwWqCuIsXMTzStwhYcCjwyefj51ol9vfdofcdSVRm+tnUGQXBYrn2qH1rKNdx0hh12bBO9cQs3GNJ8T9qgcSa+VAK6UA2tJVx3pYiqwZb1lrYK0oBQrSjjjd05DaEabePF4TMPbVx7kGVC0v0aZ1Iicg2yUN8vVaV9SbR/mhtGs8O+qWiWRfVuD1rpFxqxaK5dSeqa2gcUHS4cMTn2wl7F72Sp79vdoQdVqqrrFgSjnRYcUtR6bdtQVsaxaL4nVTXuScItV9b3WvZUcKnLtEHur1Md01E1NzeX5uuXTH7x9qs66OQNNHbnVOwaJxUwvi3ySmHCbtp7F5BA4kWrDqo4j2hrDy2HbDTg6iYxY7IIcO4Bj+LfK1uMyAMtc7N6pNzRKLLoN3/Mz6NV/slGB0Fwi+ZxM+/tvWVqduJYrQWHAo+svvGPBzfckb1b0zsu8btoSOYSW1tMIBV1XY5Viy5kHmBZOStWHm7vtuBQKmH92l4ymmFH7lfUrL/lnvGwBYcSNXNt70pj5ry6GzVzc5zPZsYI1ZalqSV70PHdditFez00cvn3ujCTslee6g9GXTEhN5kbHRxX4Lq2cEtoPpsJJFAvfD4OLDHTqrCo3CjVIrjcU9pncZsq0nOvP32fBYcCj0wefn67abWv39b7jKJ3XcqDZBM6bpe1obn36LfhWiHf4ybQ6vBkzWpba33YoAMBaae02qcSGK3EsXA00NS9adYgjmZj26VbwBSlJFpFra6CNHC/Oqlijd25Ki3HSkXwiu5WMi4hUVSQ2i+fzZz0qOptVG7A56sHy7l5lc90qywymtL4rFBBCkuZG/9WLTvXL4cqUqShZtOWs5vu/f46DSc/ou+hQlg6nNQ9tIRX7fLHl1C0YGfSAUapHOpYHJWQ1JoHhtIO3efYPb/1n+kwGd3h4tiOgjEZ3dAXx71gYc5v4e/WepPWT0C6pCFLj2tRUhE8Tvvg4ghHodiw4+1kYS3yZ75CQZ7kHpFqwaVuYgtVg810RADLsrJiphxUkSINMycOrT31nT8b3vC5v7WyBXqBKB4MNsk68X6p5B+R7+LC+JOKq8MkyG0OjUHxtfp/REmQNOxIgFTYODTxqrqFJFTqd/ReX1sH16DjAWmTrLF257OZodADsIo6+OQ6Xqj07yj83FUGpIRqy9IYqLn+S10uVWE3sMCgRwHpQk2h0NPXcwBE4SmXRk2YHe0nx4Y7qSJF0s4ffK6t+qWHeupve8zaMEtmdbYV8V8t1UrjT1a6xmyUIDSQf7L+vGBcQgUNXKqwM5+/PfL70pvGd6SjVaMF4wpH+vg0kmt7YW0VKkgpvP/lzkNhvn/her7ktVzzDRqh2uIISN1B9Sg0M59fzTvoAkjXWETVZFZZveX//k9nf/q1PXy2kLRzP/u7v66q2/Dsuq27xiw9+UmGt+EHmXGEsj7o0FLdb0JEB+c0ms/ti/lsZiSJoFQqRjvke9nlzid162/zeyiVlb4VZRSu44VreCSzhquj+EtSQnh0uSGNbWjSRj5uwaHYhs841JJrEVXQAMrlTGt9mKngq73q4869L9hvbvJU1eTYd62sjMpnMz2Mm1HlEYXV/f0WHEMcCkHp/IY2sr9HZEylqsy4PCKFD67/nmpdf5MbRERtBakJ1Wizv4zmXwyqSC+lMuwGFnB1NhGAeGlcfBdt1bVtd02/8+o/KzlcOGT6nVc3vv/tzv1X3Dlwiy3vSirTvNjA0hEjSjcc7XdgN/vlhOc0jhU2Di38KWZdmc9mCm3I7aH5uj5lLeOK9/+gcy8i2mcgEapdSvNiwpXh2VHhKRDUkwdZrrU0AYiX1sV30epvfXjf7PtjI2YupJJDhkMmDz/fevp7O79qZuJa8q5cnWXoolFFc0cvYTZ08agNuUnW1RfX1ovM3g1jtu4FatffHrfZR05zi33g2UDalYxWupNXyggEL8VnG65wtaUJQPQ0bfpRkZqNWzqr6zdPK34LUOzc60/fN7Gv956034HsIkyBhA7jDow+0bDjfpyaQpuWhf8Qjl6g/fPBmisC2gNSQrUPqP6FYF7hJbSH3UAYX9YAitXuy3gZs1FO3fV/8FcWHAo8de71rz9tQUjqe2ClSYfC3b0vIaNbRi06JNhjxIHP96BUCaMCqgNSQrVLuBAWE3hfQKAEZ0jYP8BPFMAKdmhfnJRqffuTD6665lM5XUcNV5hNm87/Yui/n3nliVTG4JgNZYIgaOEDpcIOh+ZCE8pjMa58LsgRKqS9gjQgVJvnSsUhP8sLOA9wDZsvAFjOQGN3zsub+lXXfHprVd2GOQsOBR6anThWe/7Qc28kHZLKTtsub5jjkh0uXZ/lvVBlh7AxxZszLdQn4zBQJgJSNzjxRE8qgkcsOJQ00V4P51BFCmAZQ43duS5fT5BptV/9O3/0pAWHAk/NnDi0NoWQlConHZ5y9OGVt985WJQzhRySp5CPVUB9QCofAt9nibj0xeX7LzSbM8FVVJECWGiUhSqt9khfkiEprfVqmMr+HhffmIwL8L0oBxeMOvgQgDVXBVyoIA08fwo55tjMLt8DUp6ow0lUkQJYYNSnTK25wAAADqJJREFUTZlWQqs90pZESEprvRoDHlT2Oxn+omTOfQ5Yc1XGlYDU51DNqfcuv9C+VgS7FnYDC/UyFweAzH8jHA0xrfZrPvqnf27NAcFLcYak+WxmI4UQKvgQjgay5nrKgkNBeoYc2nxsoR7WXOVxIiD1PFRz8UbD1ypKbhrhNLlWs3so4Ddzw95BOHq5+tse66u7/rM8KEWqYgxJzfd/Kjvmo2g7PZsJ3cuGTd4ad7mKWO6xWHOVwZUK0sDTUG3c0acevs7hJCCF8xq7c73MjQa8NS6Vo4SAS7jizoFbajZtOWvlwcEbhZB04uVHt0XxnvPZjAndOvkEWc3sVu9VoCIhEq32fur1YGPkPh4AlM6lgNTHUM3JQE0WTr79MrsadgOL4WYU8M8Y4Whx6q7/v/6AeaRImwlJz7028NLEvt57KjkUmTtKJZO9xiUc9bKDr7E7N0irvXdGfHgYwAOA8jgTkHoaqrlccehbNSXVo/CGPAzgZhTwh6kabyUcLU79rQ/vYx4pbDA3earq3Otff/r093Z+tZzDCc0dbeAHaqVCVb/vm8TS3eQP85n3ZoyEPAAYsuBQ1HCpgjTwLGQalw+8q3z7oiYghVcau3M93IwCXmC3+jKYeaSrb/xj7g2Qugsh6dP3nfrOn5XT6TTI3FFrmWtzMw+uLlbadbGpjRe6PGitX4jPdglcC0h9CtWcvmn2rCLY9bAbWApf2IDbhghHy7fhjuzdq65rP6T1+OGW8wefaxv/5vZjxW7elM9mzLqsjY+BlQa4Nl9K1p60I7vtER/X3KEHACiCUwGpZ6GaD/MqfZnJSTgKL3EzCjhtoLE7x271FWr4w2/cwKZNsMXU0R9mzr3xzMGV5pKyKZPVzLzRLq7Nl5NRA4/YdlyIxJBsFOslCYYH+CitzLUK0oBQzSm+BIdszgRvyc0o80gBt8wvwPmZRmP1lrtuIiSFLWYnjtWePfA33zj1Qvezix1SPpvpCIJgLz8w65iW+luYN7o8CdEIktwySgXlPMabFcHFgNSHUG3Ih6d+8qTDh/ZbKkjhNZlHys0ooN84C/Dordu6a6yu6Y4d7GwPm5x/8x86Tj5zx4lwy73sWM/vv32ekpZ67+eNFkMe8HFf6gbmoAs5Bx2MN1uecwGpJ6GaT4Ga6+/Vi7AbKAJPNQHdRtjwIz7123qfWfOxe79ASAqbTL/z6sazP/3a4dPDDzwu4egwO9ZbxayJ7zYPollvlIz7Uv0IRxeQDararTooy7hYQRp4EKoRkLqD6lHgg6ea7dyMAiqZjQ9YhMRsPiT96J/+udNvEurM73L/2sCu6vrM3xGOWmVAHlqx1ihD6L50SN3BIyAcXZo8yN5h6/GljYBUn1GfftE9+FLnpgUQhKSAOmZjzNt93vggafW3Pda35mNf+Jpf7xq2W3Vd+6EP7TjwO6ZakfbN1BWuy2zEVCFz/sxmg7Tbq0M4ugIZhURIuggnA1LHQzUf5/q4+uTOq7AbKAYhKaCG+W5ubezOsdFgwtZ/Zs+XCElhCxOONvzhN24IPliDNbP5YirGpZq/metytJhJqgrhaJEISRfnagVp4HCo5mPFoavvmSH2wCIISQGrjclMuw4WIOkhJIUNwuFogVTdmfmN18tsYsRvQB5YUc0fEwlJCZPsNtDYnWvl3qR4hKSXczkgdTFUG5XBur5xNSClvR5YgiywWnliD1jlKVmE8/1lAUJSpGmxcDTMrFnMbGLT7k1QGhtzXm+Rdnof14iJkjDpFsZIWGmnhNgoESHppQhIdfFyQSJPgVyrCPY17AZKIjc7OzlrWAaVxvErLMLZCdkyhKRIw0rhaJhp9w4FpVyvozEic0bbZcMVJETOdzOhvzXG5Xehz/cTUYlQSOp9+O9sQOpoqOZzxYZrs3SovgGKJDc9t/OljSUM0soZG9NOv4NFuN1MSLr2E/ftrKrbMOf7uUD8Vt/4x4PFhqNhEpS2UlFakXAwypzRlEiXU7s8wOfeND0m62HmbkQkJG33/TPtcgVp4FioNub54sS1QJGAFCiB3PzwxB6LopUzcuHNPpiXrcCF3e3v/QIhKeJkqpU33JG9u5KXWFBRyhid4pjzdD3BqF3kAX4r9x2JG5eWemahR4wKafcDUpdCKK8DNWlHd6Utx/ewGygLT+yxkgULbxYspZsPRqUig80+lKnf1vuMCUlrNm056/u5QLRM8L7m5s4nTLVyVH+xXK+7pAPgEalYxwfG5H5nEzNG7RV6QEt7cjKGZBY6LfUxCa23HnHyDa7A6YDUsVCNCg53zgHVo0AFQk/sXRujgogQlJZsLByMUpGhlwlJV2+56yZCUkRlPhz92L1fWN/+5INxnFQJmMx1x1Qt3e35d/u4VIveLhX8fVyPdZBui2ZfQ6UEjMnvRQcPC5IhD8pv8e3hlesVpIEjoRoVhxe4EiwSdgMVkgVVhwRgVJ1gUaGg9BZaORc1KjNGCUYdsm7rrrFN935/ndlIx/dzgcqYoH3tJ+673gTvSZzKxu7coHy3b5KKPF/C0iF5v81SLUobvUJSedcrVdHcc0Sj0E7PrNEUSAbV6lPw70NA6kKoxsXgg4pg7UEIYTcQIQnAmmVhQVCKRZnrLq2clyhUKLUyY9RdZiMds6GO7+cB5TEBu6lGNoF70qdQgqb+BWHpgEMtzGPyfu5u7M5VSVVcPw+p3CAP8bsISisSHvlDO32KFgT/zndl1VpwDLEyF6h8NmO+hJoUvw1ubj9gzsX9thxMGQi7gRhIyNOfz2bMDWmv8ms+YiIP2sznozefzZiFd+FPgwfn3FSLmkXGIItwf5gNdapXN/Sc+9nf/fXc5Kkq388HimOC9Uo3Y4qKXK/6Cx1Y+WymVa7b7VLZpOH6PS5rgPk/FEv4Qe45uvLZTE8QBOZPF/enKxqT33XGS1hGPs/t+WymXe4nW1x8n84HpEJzqDZu2k0sOA5b9CsPSPlZAjEKBaXtcjO6nfONxch362A+m9kYCkpd+7yMyvfmIDO7/GV2uA9q1/548vA//tPMiUNrfT8fWNr8vNGP/umfz39mLCXh4sWAUQLT8J82C458RI5x/g+BqN8k6Cs8nO1y9H6jUuZ3pp+uFvvJqINW+Sz3uBaUVs3NzVlwGPGSL879Sg9/QEr0IfLZzBGlT99M2L3RguNQT8KvFxW+j0fYGTpZ+WymWW5EexRdN8zT88RnkPF7dUGosrRd4XdNoUppUKqUCEVxife/3bl/8vDzrZwVLFR71cdP1jX9fmsaLfVRk+/+ZrmOB6F/RlVxOh4Kac0196T85yNcd1GM0P1pl6uVeEUYL1SH8xBBL0eKUm4vrLu8qCA1v3CK2+ypOLyc1opgfpZAwmShYiph+kJteR0W3oyOyTWCm8SUFSpLgw8WMO2hP7bdRxQW6YW2Tca4YFlX3Dlwy+nhBx4///NvPkDLPQpW33DXyIbP/W27KydEvvuPLDfaSu4JSilcIPxEZBbcnzaHHsy6Xlk6LvdYg3TJukHuPYflc9yldJTExXEOXlSQBh9UhGh8Ys78jQVCv3zaDBJ8REPxZ4AAwxKhtupWuSFNOjAdXRBspb7oooJ0ZfK5aQ3NvmtO8LMzFlrwF9o2WayjLGdeeaJp6ugPXpk6+sMMZ9BfZpf6uqY7diS1Sz2AlUlu0Z7S/WkcRgvdLayD/CAPoArjJGwNS0dDFcz+BaQAACxHAsJC6FWoLInixnREgq2L4RYPvtwSaucs/AlCn6Gwhe2di+0GWlg8FFo2T/JwDXE59UL3s5OHn99ONal/6q7/7IHaK2/qcKGlHnCZ3J+m8WC2XCMLigC45/WYhKXhbqy0NtYrqjiFgBQAgBXIzWlYOAgLQgFoAaEWABUmXn5029SvRp6bfudV5qR7YL5q9Nr2/2zzRkwAlif3pc0LHupHNWO3WKPyMHdY7oHZkAwrWmRjvTg+t+ERVAdKCeoJSAEAAADPMZvUfa7NGgVwudA4oCAUnIYtfMi/mJOhjciCBYUAdEIhcqFilHAH1mKf34KFn9H5DqxKxzgQkAIAAACYn006/e4bg+x07xazQ/2qa9vuqr/14X2+nwsAAJZCQAoAAADgool9vfdM/eb7f0PbvW7V9Zun667/g79a3/7kg76fCwAAVkJACgAAAOAypu1+8vA//b+zE8dqOTt6VNVtmKu7rv0l2ukBACgeASkAAACAJZ3+3s6vTo4NdxKU2s/MGa3ZuKWT3ekBACgNASkAAACAZZn5pDMnDw1MvjV8Gxs52WfVde2Hahtv7mLOKAAA5SEgBQAAAFCUQlA6dezHv0dFabpMK31t5pO/JBgFAKByBKQAAAAASkbrfToKM0ZppQcAIDoEpAAAAADKZjZzmn77X77Mrvfxmt+Vvql9oHrdh/+SYBQAgGgRkAIAAACo2MTLj26bOfGLr0z95uUW5pRGZ36+6MYt2frbHutz5T0BAGAbAlIAAAAAkTLt9zMnf3nn1NEfZjizpavZtOVs7dW3PF+z4SM9VIsCABA/AlIAAAAAsZjf1OnUr/umj+//7MyJQ2s5y0szLfS1V3/itZqG65+o39b7jK3HCQCAiwhIAQAAAMTOtODPTuT+48x7b7Yzr/QCUylas/GGNwlFAQBIFwEpAAAAgESZytLZM2//xczpY+0z777Z5MtO+GYH+trGj71dveHaV6rrM/+t/taH91lwWAAAeI+AFAAAAECqJvb13jN7Nv/52VO/2joz/lajK4GpCURrGprHaxqaR6vXXT3IRksAANiJgBQAAACAVUw7/tzkqTvnzr336ZnxIy0z40caNOyMX3vVx09Wr7/mSPXaD/2kqq7hBdrmAQDQgYAUAAAAgPVMW/7c5Km7Z8+Pt81NnmqePX20eW76zOqkN38ymylVr2s8XbX2yner6zb82lSGBrVrf0y7PAAAehGQAgAAAFCtEJ6a9zA3febmucnTNxTez+yZ4zfOTZ1ZU+z7M+3wH/yH1SeqVzeMzP87ISgAAG4KguD/AHF5VCE9kdVYAAAAAElFTkSuQmCC;fontFamily=Helvetica;" parent="1" vertex="1">
          <mxGeometry x="281.99" y="517" width="156.02" height="28.5" as="geometry" />
        </mxCell>
        <mxCell id="dUxdY9-ZrJmHRpGlW5pJ-28" value="Asynchronous operations" style="text;html=1;align=center;verticalAlign=middle;resizable=0;points=[];autosize=1;strokeColor=none;fillColor=none;fontStyle=1;labelBackgroundColor=default;fontSize=13;" parent="1" vertex="1">
          <mxGeometry x="495" y="700" width="170" height="30" as="geometry" />
        </mxCell>
        <mxCell id="dUxdY9-ZrJmHRpGlW5pJ-30" value="" style="group" parent="1" vertex="1" connectable="0">
          <mxGeometry x="2138.5499999999993" y="880" width="113.20000000000005" height="120" as="geometry" />
        </mxCell>
        <mxCell id="dUxdY9-ZrJmHRpGlW5pJ-31" value="" style="edgeStyle=orthogonalEdgeStyle;rounded=0;orthogonalLoop=1;jettySize=auto;html=1;" parent="dUxdY9-ZrJmHRpGlW5pJ-30" edge="1">
          <mxGeometry relative="1" as="geometry">
            <mxPoint x="67.52000000000055" y="52.5" as="sourcePoint" />
            <mxPoint x="67.52000000000055" y="52.5" as="targetPoint" />
          </mxGeometry>
        </mxCell>
        <mxCell id="dUxdY9-ZrJmHRpGlW5pJ-32" value="" style="curved=1;endArrow=classic;html=1;rounded=0;entryX=-0.037;entryY=0.77;entryDx=0;entryDy=0;entryPerimeter=0;fontSize=13;" parent="1" edge="1">
          <mxGeometry width="50" height="50" relative="1" as="geometry">
            <mxPoint x="460.6599893550097" y="769.2857142857143" as="sourcePoint" />
            <mxPoint x="680.0000000000001" y="768.7828571428572" as="targetPoint" />
            <Array as="points">
              <mxPoint x="567.1098853244301" y="751" />
            </Array>
          </mxGeometry>
        </mxCell>
        <mxCell id="dUxdY9-ZrJmHRpGlW5pJ-33" value="&lt;font style=&quot;font-size: 13px;&quot;&gt;Status request&lt;/font&gt;" style="edgeLabel;html=1;align=center;verticalAlign=middle;resizable=0;points=[];" parent="dUxdY9-ZrJmHRpGlW5pJ-32" connectable="0" vertex="1">
          <mxGeometry x="0.0507" y="-16" relative="1" as="geometry">
            <mxPoint x="-3" y="-8" as="offset" />
          </mxGeometry>
        </mxCell>
        <mxCell id="dUxdY9-ZrJmHRpGlW5pJ-34" value="" style="curved=1;endArrow=classic;html=1;rounded=0;entryX=-0.037;entryY=0.77;entryDx=0;entryDy=0;entryPerimeter=0;fontSize=13;" parent="1" edge="1">
          <mxGeometry width="50" height="50" relative="1" as="geometry">
            <mxPoint x="679.3400106449903" y="789.2142857142857" as="sourcePoint" />
            <mxPoint x="460" y="789.7171428571428" as="targetPoint" />
            <Array as="points">
              <mxPoint x="572.8901146755701" y="807.5" />
            </Array>
          </mxGeometry>
        </mxCell>
        <mxCell id="dUxdY9-ZrJmHRpGlW5pJ-35" value="&lt;font style=&quot;font-size: 13px;&quot;&gt;Provisioning status&lt;/font&gt;" style="edgeLabel;html=1;align=center;verticalAlign=middle;resizable=0;points=[];" parent="dUxdY9-ZrJmHRpGlW5pJ-34" connectable="0" vertex="1">
          <mxGeometry x="0.1688" y="-12" relative="1" as="geometry">
            <mxPoint x="27" y="5" as="offset" />
          </mxGeometry>
        </mxCell>
        <mxCell id="84gBqDUAVP-YG94VW5wj-1" value="" style="rounded=1;whiteSpace=wrap;html=1;arcSize=3;fillColor=none;fontSize=13;perimeterSpacing=0;" parent="1" vertex="1">
          <mxGeometry x="1670" y="335" width="590" height="535" as="geometry" />
        </mxCell>
        <mxCell id="84gBqDUAVP-YG94VW5wj-2" value="&lt;span style=&quot;background-color: rgb(255, 255, 255); font-size: 13px;&quot;&gt;Workspace:&amp;nbsp;&lt;/span&gt;test-domain_databricks-test-dataproduct_0" style="rounded=0;whiteSpace=wrap;html=1;align=left;spacing=4;verticalAlign=top;fontStyle=1;fontSize=13;spacingLeft=4;" parent="1" vertex="1">
          <mxGeometry x="1708.7899999999997" y="390" width="519.71" height="447.5" as="geometry" />
        </mxCell>
        <mxCell id="84gBqDUAVP-YG94VW5wj-5" value="&lt;span style=&quot;font-size: 18px;&quot;&gt;&lt;span dir=&quot;ltr&quot; class=&quot;ui-provider cfk cfl jk cfm cfn cfo cfp cfq cfr cfs cft cfu cfv cfw cfx cfy cfz cga cgb cgc cgd cge cgf cgg cgh cgi cgj cgk cgl cgm cgn cgo cgp cgq cgr&quot; style=&quot;font-size: 18px;&quot;&gt;Databricks Cloud&lt;/span&gt;&lt;/span&gt;" style="text;whiteSpace=wrap;html=1;fontStyle=1;fontSize=18;" parent="1" vertex="1">
          <mxGeometry x="1679.9999999999998" y="345" width="190" height="40" as="geometry" />
        </mxCell>
        <mxCell id="84gBqDUAVP-YG94VW5wj-6" value="" style="group" parent="1" vertex="1" connectable="0">
          <mxGeometry x="2079.7099999999996" y="712.5" width="113.20000000000005" height="120" as="geometry" />
        </mxCell>
        <mxCell id="84gBqDUAVP-YG94VW5wj-7" value="" style="sketch=0;pointerEvents=1;shadow=0;dashed=0;html=1;strokeColor=none;fillColor=#505050;labelPosition=center;verticalLabelPosition=bottom;verticalAlign=top;outlineConnect=0;align=center;shape=mxgraph.office.servers.cluster_server;" parent="84gBqDUAVP-YG94VW5wj-6" vertex="1">
          <mxGeometry width="113.2" height="90" as="geometry" />
        </mxCell>
        <mxCell id="84gBqDUAVP-YG94VW5wj-8" value="&lt;div&gt;&lt;span style=&quot;background-color: initial;&quot;&gt;cluster&lt;/span&gt;&lt;br&gt;&lt;/div&gt;" style="text;html=1;strokeColor=none;fillColor=none;align=center;verticalAlign=middle;whiteSpace=wrap;rounded=0;" parent="84gBqDUAVP-YG94VW5wj-6" vertex="1">
          <mxGeometry x="6.600000000000136" y="90" width="100" height="30" as="geometry" />
        </mxCell>
        <mxCell id="84gBqDUAVP-YG94VW5wj-9" value="Databricks&lt;br&gt;Workspace-Repo&lt;br&gt;Sync" style="rhombus;whiteSpace=wrap;html=1;fontSize=13;align=center;verticalAlign=middle;rounded=0;spacing=4;fontStyle=1;spacingLeft=4;" parent="1" vertex="1">
          <mxGeometry x="1422.56" y="487.51" width="210" height="165" as="geometry" />
        </mxCell>
        <mxCell id="84gBqDUAVP-YG94VW5wj-10" value="" style="edgeStyle=orthogonalEdgeStyle;rounded=0;orthogonalLoop=1;jettySize=auto;html=1;shape=flexArrow;dashed=1;startArrow=block;exitX=0;exitY=0.5;exitDx=0;exitDy=0;" parent="1" source="84gBqDUAVP-YG94VW5wj-32" target="84gBqDUAVP-YG94VW5wj-9" edge="1">
          <mxGeometry relative="1" as="geometry">
            <mxPoint x="1807.3499999999997" y="570" as="sourcePoint" />
            <mxPoint x="1630" y="570" as="targetPoint" />
          </mxGeometry>
        </mxCell>
        <mxCell id="84gBqDUAVP-YG94VW5wj-11" style="edgeStyle=orthogonalEdgeStyle;rounded=0;orthogonalLoop=1;jettySize=auto;html=1;" parent="1" source="84gBqDUAVP-YG94VW5wj-12" target="84gBqDUAVP-YG94VW5wj-7" edge="1">
          <mxGeometry relative="1" as="geometry">
            <mxPoint x="2130" y="745" as="targetPoint" />
          </mxGeometry>
        </mxCell>
        <mxCell id="84gBqDUAVP-YG94VW5wj-12" value="Workflow:&amp;nbsp;&lt;span style=&quot;font-size: 13px; font-weight: 700; text-align: left;&quot;&gt;test-domain_databricks-test-dataproduct_0_databricks-test-workflow_environment&lt;/span&gt;" style="shape=process;whiteSpace=wrap;html=1;backgroundOutline=1;" parent="1" vertex="1">
          <mxGeometry x="1749.7099999999998" y="702.5" width="240" height="110" as="geometry" />
        </mxCell>
        <mxCell id="84gBqDUAVP-YG94VW5wj-32" value="&lt;pre style=&quot;line-height: 120%;&quot;&gt;  Workspace/&lt;br&gt;    └── databricks-test-dataproduct_0/&lt;br&gt;      ├── databricks-test-workflow/&lt;br&gt;      │  ├── catalog-info.yaml&lt;br&gt;      │  └── ...&lt;br&gt;      └── &amp;lt;workload component name&amp;gt;/&lt;br&gt;        ├── catalog-info.yaml&lt;br&gt;        └── ...&lt;br&gt;&lt;/pre&gt;&lt;div&gt;&lt;br&gt;&lt;/div&gt;" style="text;html=1;strokeColor=default;fillColor=none;spacing=0;spacingTop=0;whiteSpace=wrap;overflow=hidden;rounded=0;spacingRight=0;" parent="1" vertex="1">
          <mxGeometry x="1799.85" y="480.13" width="340" height="179.75" as="geometry" />
        </mxCell>
        <mxCell id="84gBqDUAVP-YG94VW5wj-33" style="edgeStyle=orthogonalEdgeStyle;rounded=0;orthogonalLoop=1;jettySize=auto;html=1;exitX=1;exitY=0.5;exitDx=0;exitDy=0;entryX=0;entryY=0.5;entryDx=0;entryDy=0;startArrow=classic;startFill=1;" parent="1" source="dUxdY9-ZrJmHRpGlW5pJ-6" target="84gBqDUAVP-YG94VW5wj-12" edge="1">
          <mxGeometry relative="1" as="geometry">
            <mxPoint x="1220" y="757" as="targetPoint" />
          </mxGeometry>
        </mxCell>
        <mxCell id="I6UmSGVhFO2McCPYnpLK-1" value="&lt;font style=&quot;font-size: 13px;&quot;&gt;&amp;nbsp;Retrieve information&amp;nbsp;&lt;/font&gt;" style="edgeLabel;html=1;align=center;verticalAlign=middle;resizable=0;points=[];" parent="84gBqDUAVP-YG94VW5wj-33" vertex="1" connectable="0">
          <mxGeometry x="0.2195" y="-2" relative="1" as="geometry">
            <mxPoint x="-50" y="-2" as="offset" />
          </mxGeometry>
        </mxCell>
        <mxCell id="84gBqDUAVP-YG94VW5wj-36" value="" style="group" parent="1" vertex="1" connectable="0">
          <mxGeometry x="1350" y="200" width="72.56" height="70.00210526315792" as="geometry" />
        </mxCell>
        <mxCell id="84gBqDUAVP-YG94VW5wj-37" value="" style="shape=note;whiteSpace=wrap;html=1;backgroundOutline=1;darkOpacity=0.05;size=13;fontSize=13;container=0;" parent="84gBqDUAVP-YG94VW5wj-36" vertex="1">
          <mxGeometry width="37.970214404929926" height="42.66944792680888" as="geometry" />
        </mxCell>
        <mxCell id="84gBqDUAVP-YG94VW5wj-38" value="" style="endArrow=none;html=1;rounded=0;fontSize=13;" parent="84gBqDUAVP-YG94VW5wj-36" edge="1">
          <mxGeometry width="50" height="50" relative="1" as="geometry">
            <mxPoint x="3.1641845337441232" y="18.164993545984363" as="sourcePoint" />
            <mxPoint x="34.80602987118582" y="18.164993545984363" as="targetPoint" />
          </mxGeometry>
        </mxCell>
        <mxCell id="84gBqDUAVP-YG94VW5wj-39" value="" style="endArrow=none;html=1;rounded=0;fontSize=13;" parent="84gBqDUAVP-YG94VW5wj-36" edge="1">
          <mxGeometry width="50" height="50" relative="1" as="geometry">
            <mxPoint x="3.1641845337441232" y="24.38254167246224" as="sourcePoint" />
            <mxPoint x="34.80602987118582" y="24.38254167246224" as="targetPoint" />
          </mxGeometry>
        </mxCell>
        <mxCell id="84gBqDUAVP-YG94VW5wj-40" value="" style="endArrow=none;html=1;rounded=0;fontStyle=0;fontSize=13;" parent="84gBqDUAVP-YG94VW5wj-36" edge="1">
          <mxGeometry width="50" height="50" relative="1" as="geometry">
            <mxPoint x="3.1641845337441232" y="30.478177090577752" as="sourcePoint" />
            <mxPoint x="34.80602987118582" y="30.478177090577752" as="targetPoint" />
          </mxGeometry>
        </mxCell>
        <mxCell id="84gBqDUAVP-YG94VW5wj-41" value="" style="endArrow=none;html=1;rounded=0;fontSize=13;" parent="84gBqDUAVP-YG94VW5wj-36" edge="1">
          <mxGeometry width="50" height="50" relative="1" as="geometry">
            <mxPoint x="3.1641845337441232" y="36.573812508693344" as="sourcePoint" />
            <mxPoint x="34.80602987118582" y="36.573812508693344" as="targetPoint" />
          </mxGeometry>
        </mxCell>
        <mxCell id="84gBqDUAVP-YG94VW5wj-42" value="catalog-info.yaml" style="text;html=1;strokeColor=none;fillColor=none;align=center;verticalAlign=middle;whiteSpace=wrap;rounded=0;container=0;" parent="84gBqDUAVP-YG94VW5wj-36" vertex="1">
          <mxGeometry x="-34.59" y="40" width="107.15" height="30" as="geometry" />
        </mxCell>
        <mxCell id="I6UmSGVhFO2McCPYnpLK-2" value="" style="edgeStyle=orthogonalEdgeStyle;rounded=0;orthogonalLoop=1;jettySize=auto;html=1;shape=flexArrow;dashed=1;startArrow=block;entryX=0.5;entryY=0;entryDx=0;entryDy=0;" parent="1" source="84gBqDUAVP-YG94VW5wj-15" target="84gBqDUAVP-YG94VW5wj-9" edge="1">
          <mxGeometry relative="1" as="geometry">
            <mxPoint x="1810" y="580" as="sourcePoint" />
            <mxPoint x="1643" y="580" as="targetPoint" />
          </mxGeometry>
        </mxCell>
      </root>
    </mxGraphModel>
  </diagram>
</mxfile>
